<svg xmlns="http://www.w3.org/2000/svg" xmlns:xlink="http://www.w3.org/1999/xlink" xmlns:lucid="lucid" width="1286" height="526"><g transform="translate(-253 -222)" lucid:page-tab-id=".KHBNor7AMiI"><path d="M0 0h1870.4v1323.2H0z" fill="#fff"/><path d="M985.3 650c0 27.6-49.25 50-110 50-60.76 0-110-22.4-110-50s49.24-50 110-50c60.75 0 110 22.4 110 50z" stroke="#000" stroke-width="2" fill="#ffdba9"/><use xlink:href="#a" transform="matrix(1,0,0,1,770.2950083706987,605) translate(51.554382716049375 50.20138888888889)"/><path d="M692.65 260L845.3 398.93 692.65 537.85 540 398.93z" stroke="#000" stroke-width="2" fill="#99d2f2"/><use xlink:href="#b" transform="matrix(1,0,0,1,545,265) translate(89.8012962962963 121.83333333333334)"/><use xlink:href="#c" transform="matrix(1,0,0,1,545,265) translate(57.319814814814805 153.83333333333334)"/><path d="M1108.15 500L985.3 440V320l122.85-60L1231 320v120z" stroke="#000" stroke-width="2" fill="#a3d977"/><path d="M1008.57 328.6h199.16v105.37h-199.16z" stroke="#000" stroke-opacity="0" stroke-width="2" fill="#a3d977"/><use xlink:href="#d" transform="matrix(1,0,0,1,1013.5655037197623,333.5939157818937) translate(18.259259259259252 24.888888888888893)"/><use xlink:href="#e" transform="matrix(1,0,0,1,1013.5655037197623,333.5939157818937) translate(34.938271604938265 62.222222222222236)"/><use xlink:href="#f" transform="matrix(1,0,0,1,1013.5655037197623,333.5939157818937) translate(38.09259259259259 99.55555555555557)"/><path d="M903.82 599.9l105.4-127.1" stroke="#000" stroke-width="2" fill="none"/><path d="M904.6 600.52l-.23.28-2.38-.27 1.07-1.3z"/><path d="M1018.95 461.05l-5.53 13.94-7.14-5.93z" stroke="#000" stroke-width="2"/><use xlink:href="#g" transform="matrix(1,0,0,1,935.4273948963339,498.13207338177665) translate(0 17.77777777777778)"/><path d="M1071.22 484.15l-11.3 13.05m-11.33 13.05l-22.63 26.1m-11.32 13.04l-22.62 26.1m-11.32 13.04l-11.3 13.05" stroke="#000" stroke-width="2" fill="none"/><path d="M1072.8 483.85l-.84.98-1.5-1.3.5-.6z"/><path d="M959.4 613.12l5.84-13.82 7 6.08z" stroke="#000" stroke-width="2"/><path d="M1100 607.8c0 2.8-2.56 5.08-5.68 5.08h-68.64c-3.12 0-5.68-2.27-5.68-5.08v-42.72c0-2.8 2.56-5.08 5.68-5.08h68.64c3.12 0 5.68 2.27 5.68 5.08v42.72z" stroke="#000" stroke-opacity="0" fill="#fcd116"/><path d="M1026.86 566.1h66.28v40.68h-66.28V566.1z" stroke="#000" stroke-opacity="0" fill="#fff"/><path d="M1048.57 597.63c0 4.5-4.1 8.13-9.14 8.13-5.05 0-9.14-3.64-9.14-8.13 0-4.5 4.08-8.14 9.13-8.14 5.05 0 9.14 3.64 9.14 8.13z" stroke="#000" stroke-opacity="0" fill="#dd5900"/><path d="M1046.3 597.63c0 3.37-3.1 6.1-6.87 6.1-3.8 0-6.86-2.73-6.86-6.1 0-3.37 3.07-6.1 6.86-6.1 3.78 0 6.86 2.73 6.86 6.1z" stroke="#000" stroke-opacity="0" fill="#ff8c00"/><path d="M1039.43 603.73c-2.67 0-5.08-.92-6.9-2.4l-1.1 18.56 7.9-7 8 7.1.1-1-1.1-17.66c-1.83 1.47-4.24 2.4-6.9 2.4z" stroke="#000" stroke-opacity="0" fill="#dd5900"/><path d="M1085.54 595.7c0 .64-.56 1.15-1.28 1.15h-28.7c-.7 0-1.28-.5-1.28-1.14 0-.6.57-1.12 1.3-1.12h28.68c.72 0 1.28.5 1.28 1.13M1085.54 589.5c0 .62-.56 1.13-1.28 1.13h-28.7c-.7 0-1.28-.5-1.28-1.14 0-.64.57-1.15 1.3-1.15h28.68c.72 0 1.28.5 1.28 1.14M1085.54 580.34c0 .63-.56 1.14-1.27 1.14h-48.15c-.7 0-1.26-.5-1.26-1.14 0-.63.55-1.14 1.26-1.14h48.15c.7 0 1.27.5 1.27 1.14" stroke="#000" stroke-opacity="0" fill="#7a7a7a"/><g><use xlink:href="#h" transform="matrix(1,0,0,1,990,629) translate(29.599999999999994 14.4)"/></g><defs><path d="M233-177c-1 41-23 64-60 70L243 0h-38l-65-103H63V0H30v-248c88 3 205-21 203 71zM63-129c60-2 137 13 137-47 0-61-80-42-137-45v92" id="i"/><path d="M100-194c63 0 86 42 84 106H49c0 40 14 67 53 68 26 1 43-12 49-29l28 8c-11 28-37 45-77 45C44 4 14-33 15-96c1-61 26-98 85-98zm52 81c6-60-76-77-97-28-3 7-6 17-6 28h103" id="j"/><path d="M24 0v-261h32V0H24" id="k"/><path d="M141-36C126-15 110 5 73 4 37 3 15-17 15-53c-1-64 63-63 125-63 3-35-9-54-41-54-24 1-41 7-42 31l-33-3c5-37 33-52 76-52 45 0 72 20 72 64v82c-1 20 7 32 28 27v20c-31 9-61-2-59-35zM48-53c0 20 12 33 32 33 41-3 63-29 60-74-43 2-92-5-92 41" id="l"/><path d="M179-190L93 31C79 59 56 82 12 73V49c39 6 53-20 64-50L1-190h34L92-34l54-156h33" id="m"/><path d="M114-163C36-179 61-72 57 0H25l-1-190h30c1 12-1 29 2 39 6-27 23-49 58-41v29" id="n"/><g id="a"><use transform="matrix(0.08641975308641976,0,0,0.08641975308641976,0,0)" xlink:href="#i"/><use transform="matrix(0.08641975308641976,0,0,0.08641975308641976,22.38271604938272,0)" xlink:href="#j"/><use transform="matrix(0.08641975308641976,0,0,0.08641975308641976,39.66666666666667,0)" xlink:href="#k"/><use transform="matrix(0.08641975308641976,0,0,0.08641975308641976,46.49382716049383,0)" xlink:href="#l"/><use transform="matrix(0.08641975308641976,0,0,0.08641975308641976,63.777777777777786,0)" xlink:href="#m"/><use transform="matrix(0.08641975308641976,0,0,0.08641975308641976,79.33333333333334,0)" xlink:href="#j"/><use transform="matrix(0.08641975308641976,0,0,0.08641975308641976,96.61728395061729,0)" xlink:href="#n"/></g><path d="M30 0v-248h187v28H63v79h144v27H63v87h162V0H30" id="o"/><path d="M59-47c-2 24 18 29 38 22v24C64 9 27 4 27-40v-127H5v-23h24l9-43h21v43h35v23H59v120" id="p"/><path d="M106-169C34-169 62-67 57 0H25v-261h32l-1 103c12-21 28-36 61-36 89 0 53 116 60 194h-32v-121c2-32-8-49-39-48" id="q"/><path d="M84 4C-5 8 30-112 23-190h32v120c0 31 7 50 39 49 72-2 45-101 50-169h31l1 190h-30c-1-10 1-25-2-33-11 22-28 36-60 37" id="r"/><path d="M210-169c-67 3-38 105-44 169h-31v-121c0-29-5-50-35-48C34-165 62-65 56 0H25l-1-190h30c1 10-1 24 2 32 10-44 99-50 107 0 11-21 27-35 58-36 85-2 47 119 55 194h-31v-121c0-29-5-49-35-48" id="s"/><g id="b"><use transform="matrix(0.07407407407407408,0,0,0.07407407407407408,0,0)" xlink:href="#o"/><use transform="matrix(0.07407407407407408,0,0,0.07407407407407408,17.77777777777778,0)" xlink:href="#p"/><use transform="matrix(0.07407407407407408,0,0,0.07407407407407408,25.185185185185187,0)" xlink:href="#q"/><use transform="matrix(0.07407407407407408,0,0,0.07407407407407408,40,0)" xlink:href="#j"/><use transform="matrix(0.07407407407407408,0,0,0.07407407407407408,54.81481481481482,0)" xlink:href="#n"/><use transform="matrix(0.07407407407407408,0,0,0.07407407407407408,63.629629629629626,0)" xlink:href="#j"/><use transform="matrix(0.07407407407407408,0,0,0.07407407407407408,78.44444444444446,0)" xlink:href="#r"/><use transform="matrix(0.07407407407407408,0,0,0.07407407407407408,93.25925925925927,0)" xlink:href="#s"/></g><path d="M185-189c-5-48-123-54-124 2 14 75 158 14 163 119 3 78-121 87-175 55-17-10-28-26-33-46l33-7c5 56 141 63 141-1 0-78-155-14-162-118-5-82 145-84 179-34 5 7 8 16 11 25" id="t"/><path d="M16-82v-28h88v28H16" id="u"/><path d="M212-179c-10-28-35-45-73-45-59 0-87 40-87 99 0 60 29 101 89 101 43 0 62-24 78-52l27 14C228-24 195 4 139 4 59 4 22-46 18-125c-6-104 99-153 187-111 19 9 31 26 39 46" id="v"/><path d="M100-194c62-1 85 37 85 99 1 63-27 99-86 99S16-35 15-95c0-66 28-99 85-99zM99-20c44 1 53-31 53-75 0-43-8-75-51-75s-53 32-53 75 10 74 51 75" id="w"/><path d="M117-194c89-4 53 116 60 194h-32v-121c0-31-8-49-39-48C34-167 62-67 57 0H25l-1-190h30c1 10-1 24 2 32 11-22 29-35 61-36" id="x"/><path d="M96-169c-40 0-48 33-48 73s9 75 48 75c24 0 41-14 43-38l32 2c-6 37-31 61-74 61-59 0-76-41-82-99-10-93 101-131 147-64 4 7 5 14 7 22l-32 3c-4-21-16-35-41-35" id="y"/><g id="c"><use transform="matrix(0.07407407407407408,0,0,0.07407407407407408,0,0)" xlink:href="#t"/><use transform="matrix(0.07407407407407408,0,0,0.07407407407407408,17.77777777777778,0)" xlink:href="#s"/><use transform="matrix(0.07407407407407408,0,0,0.07407407407407408,39.92592592592593,0)" xlink:href="#l"/><use transform="matrix(0.07407407407407408,0,0,0.07407407407407408,54.74074074074075,0)" xlink:href="#n"/><use transform="matrix(0.07407407407407408,0,0,0.07407407407407408,63.555555555555564,0)" xlink:href="#p"/><use transform="matrix(0.07407407407407408,0,0,0.07407407407407408,70.96296296296298,0)" xlink:href="#u"/><use transform="matrix(0.07407407407407408,0,0,0.07407407407407408,79.7777777777778,0)" xlink:href="#v"/><use transform="matrix(0.07407407407407408,0,0,0.07407407407407408,98.96296296296299,0)" xlink:href="#w"/><use transform="matrix(0.07407407407407408,0,0,0.07407407407407408,113.7777777777778,0)" xlink:href="#x"/><use transform="matrix(0.07407407407407408,0,0,0.07407407407407408,128.5925925925926,0)" xlink:href="#p"/><use transform="matrix(0.07407407407407408,0,0,0.07407407407407408,136.00000000000003,0)" xlink:href="#n"/><use transform="matrix(0.07407407407407408,0,0,0.07407407407407408,144.81481481481484,0)" xlink:href="#l"/><use transform="matrix(0.07407407407407408,0,0,0.07407407407407408,159.62962962962965,0)" xlink:href="#y"/><use transform="matrix(0.07407407407407408,0,0,0.07407407407407408,172.962962962963,0)" xlink:href="#p"/></g><path d="M127-220V0H93v-220H8v-28h204v28h-85" id="z"/><path d="M85-194c31 0 48 13 60 33l-1-100h32l1 261h-30c-2-10 0-23-3-31C134-8 116 4 85 4 32 4 16-35 15-94c0-66 23-100 70-100zm9 24c-40 0-46 34-46 75 0 40 6 74 45 74 42 0 51-32 51-76 0-42-9-74-50-73" id="A"/><path d="M24-231v-30h32v30H24zM24 0v-190h32V0H24" id="B"/><g id="d"><use transform="matrix(0.08641975308641976,0,0,0.08641975308641976,0,0)" xlink:href="#z"/><use transform="matrix(0.08641975308641976,0,0,0.08641975308641976,15.469135802469134,0)" xlink:href="#j"/><use transform="matrix(0.08641975308641976,0,0,0.08641975308641976,32.75308641975309,0)" xlink:href="#x"/><use transform="matrix(0.08641975308641976,0,0,0.08641975308641976,50.037037037037045,0)" xlink:href="#A"/><use transform="matrix(0.08641975308641976,0,0,0.08641975308641976,67.32098765432099,0)" xlink:href="#j"/><use transform="matrix(0.08641975308641976,0,0,0.08641975308641976,84.60493827160494,0)" xlink:href="#n"/><use transform="matrix(0.08641975308641976,0,0,0.08641975308641976,94.88888888888889,0)" xlink:href="#s"/><use transform="matrix(0.08641975308641976,0,0,0.08641975308641976,120.72839506172839,0)" xlink:href="#B"/><use transform="matrix(0.08641975308641976,0,0,0.08641975308641976,127.55555555555554,0)" xlink:href="#x"/><use transform="matrix(0.08641975308641976,0,0,0.08641975308641976,144.83950617283952,0)" xlink:href="#p"/></g><path d="M137 0h-34L2-248h35l83 218 83-218h36" id="C"/><g id="e"><use transform="matrix(0.08641975308641976,0,0,0.08641975308641976,0,0)" xlink:href="#C"/><use transform="matrix(0.08641975308641976,0,0,0.08641975308641976,18.407407407407412,0)" xlink:href="#l"/><use transform="matrix(0.08641975308641976,0,0,0.08641975308641976,35.69135802469137,0)" xlink:href="#k"/><use transform="matrix(0.08641975308641976,0,0,0.08641975308641976,42.51851851851853,0)" xlink:href="#B"/><use transform="matrix(0.08641975308641976,0,0,0.08641975308641976,49.34567901234569,0)" xlink:href="#A"/><use transform="matrix(0.08641975308641976,0,0,0.08641975308641976,66.62962962962965,0)" xlink:href="#l"/><use transform="matrix(0.08641975308641976,0,0,0.08641975308641976,83.9135802469136,0)" xlink:href="#p"/><use transform="matrix(0.08641975308641976,0,0,0.08641975308641976,92.55555555555557,0)" xlink:href="#w"/><use transform="matrix(0.08641975308641976,0,0,0.08641975308641976,109.83950617283952,0)" xlink:href="#n"/></g><path d="M190 0L58-211 59 0H30v-248h39L202-35l-2-213h31V0h-41" id="D"/><path d="M206 0h-36l-40-164L89 0H53L-1-190h32L70-26l43-164h34l41 164 42-164h31" id="E"/><path d="M143 0L79-87 56-68V0H24v-261h32v163l83-92h37l-77 82L181 0h-38" id="F"/><g id="f"><use transform="matrix(0.08641975308641976,0,0,0.08641975308641976,0,0)" xlink:href="#D"/><use transform="matrix(0.08641975308641976,0,0,0.08641975308641976,22.38271604938272,0)" xlink:href="#j"/><use transform="matrix(0.08641975308641976,0,0,0.08641975308641976,39.66666666666667,0)" xlink:href="#p"/><use transform="matrix(0.08641975308641976,0,0,0.08641975308641976,48.308641975308646,0)" xlink:href="#E"/><use transform="matrix(0.08641975308641976,0,0,0.08641975308641976,70.69135802469137,0)" xlink:href="#w"/><use transform="matrix(0.08641975308641976,0,0,0.08641975308641976,87.97530864197532,0)" xlink:href="#n"/><use transform="matrix(0.08641975308641976,0,0,0.08641975308641976,98.25925925925927,0)" xlink:href="#F"/></g><path d="M115-194c53 0 69 39 70 98 0 66-23 100-70 100C84 3 66-7 56-30L54 0H23l1-261h32v101c10-23 28-34 59-34zm-8 174c40 0 45-34 45-75 0-40-5-75-45-74-42 0-51 32-51 76 0 43 10 73 51 73" id="G"/><g id="g"><use transform="matrix(0.06172839506172839,0,0,0.06172839506172839,0,0)" xlink:href="#G"/><use transform="matrix(0.06172839506172839,0,0,0.06172839506172839,12.345679012345679,0)" xlink:href="#B"/><use transform="matrix(0.06172839506172839,0,0,0.06172839506172839,17.22222222222222,0)" xlink:href="#A"/></g><path d="M101-234c-31-9-42 10-38 44h38v23H63V0H32v-167H5v-23h27c-7-52 17-82 69-68v24" id="H"/><g id="h"><use transform="matrix(0.05,0,0,0.05,0,0)" xlink:href="#v"/><use transform="matrix(0.05,0,0,0.05,12.950000000000001,0)" xlink:href="#j"/><use transform="matrix(0.05,0,0,0.05,22.950000000000003,0)" xlink:href="#n"/><use transform="matrix(0.05,0,0,0.05,28.900000000000002,0)" xlink:href="#p"/><use transform="matrix(0.05,0,0,0.05,33.900000000000006,0)" xlink:href="#B"/><use transform="matrix(0.05,0,0,0.05,37.85000000000001,0)" xlink:href="#H"/><use transform="matrix(0.05,0,0,0.05,42.85000000000001,0)" xlink:href="#B"/><use transform="matrix(0.05,0,0,0.05,46.80000000000001,0)" xlink:href="#y"/><use transform="matrix(0.05,0,0,0.05,55.80000000000001,0)" xlink:href="#l"/><use transform="matrix(0.05,0,0,0.05,65.80000000000001,0)" xlink:href="#p"/><use transform="matrix(0.05,0,0,0.05,70.80000000000001,0)" xlink:href="#j"/></g></defs></g></svg>