<svg xmlns="http://www.w3.org/2000/svg" xmlns:xlink="http://www.w3.org/1999/xlink" xmlns:lucid="lucid" width="995" height="582"><g transform="translate(-609 -283)" lucid:page-tab-id="0_0"><path d="M0 0h1870.4v1323.2H0z" fill="#fff"/><path d="M860 710c0 27.6-49.25 50-110 50s-110-22.4-110-50 49.25-50 110-50 110 22.4 110 50z" stroke="#000" stroke-width="2" fill="#ffdba9"/><use xlink:href="#a" transform="matrix(1,0,0,1,645,665) translate(51.554382716049375 50.20138888888889)"/><path d="M1082.85 540L960 480V360l122.85-60 122.85 60v120z" stroke="#000" stroke-width="2" fill="#a3d977"/><path d="M983.27 368.6h199.16v105.37H983.27z" stroke="#000" stroke-opacity="0" stroke-width="2" fill="#a3d977"/><use xlink:href="#b" transform="matrix(1,0,0,1,988.2704953490636,373.5939157818937) translate(18.259259259259252 24.888888888888893)"/><use xlink:href="#c" transform="matrix(1,0,0,1,988.2704953490636,373.5939157818937) translate(34.938271604938265 62.222222222222236)"/><use xlink:href="#d" transform="matrix(1,0,0,1,988.2704953490636,373.5939157818937) translate(38.09259259259259 99.55555555555557)"/><path d="M1432.65 571.07L1585.3 710l-152.65 138.93L1280 710z" stroke="#000" stroke-width="2" fill="#99d2f2"/><use xlink:href="#e" transform="matrix(1,0,0,1,1285,576.0738036832895) translate(80.68401234567901 121.20138888888889)"/><use xlink:href="#f" transform="matrix(1,0,0,1,1285,576.0738036832895) translate(42.78895061728395 158.53472222222223)"/><path d="M940 587.8c0 2.8-2.56 5.08-5.68 5.08h-68.64c-3.12 0-5.68-2.27-5.68-5.08v-42.72c0-2.8 2.56-5.08 5.68-5.08h68.64c3.12 0 5.68 2.27 5.68 5.08v42.72z" stroke="#000" stroke-opacity="0" fill="#fcd116"/><path d="M866.86 546.1h66.28v40.68h-66.28V546.1z" stroke="#000" stroke-opacity="0" fill="#fff"/><path d="M888.57 577.63c0 4.5-4.1 8.13-9.14 8.13-5.05 0-9.14-3.64-9.14-8.13 0-4.5 4.08-8.14 9.13-8.14 5.05 0 9.14 3.64 9.14 8.13z" stroke="#000" stroke-opacity="0" fill="#dd5900"/><path d="M886.3 577.63c0 3.37-3.1 6.1-6.87 6.1-3.8 0-6.86-2.73-6.86-6.1 0-3.37 3.07-6.1 6.86-6.1 3.78 0 6.86 2.73 6.86 6.1z" stroke="#000" stroke-opacity="0" fill="#ff8c00"/><path d="M879.43 583.73c-2.67 0-5.08-.92-6.9-2.4l-1.1 18.56 7.9-7 8 7.1.1-1-1.1-17.66c-1.83 1.47-4.24 2.4-6.9 2.4z" stroke="#000" stroke-opacity="0" fill="#dd5900"/><path d="M925.54 575.7c0 .64-.56 1.15-1.28 1.15h-28.7c-.7 0-1.28-.5-1.28-1.14 0-.6.57-1.12 1.3-1.12h28.68c.72 0 1.28.5 1.28 1.13M925.54 569.5c0 .62-.56 1.13-1.28 1.13h-28.7c-.7 0-1.28-.5-1.28-1.14 0-.64.57-1.15 1.3-1.15h28.68c.72 0 1.28.5 1.28 1.14M925.54 560.34c0 .63-.56 1.14-1.27 1.14h-48.15c-.7 0-1.26-.5-1.26-1.14 0-.63.55-1.14 1.26-1.14h48.15c.7 0 1.27.5 1.27 1.14" stroke="#000" stroke-opacity="0" fill="#7a7a7a"/><use xlink:href="#g" transform="matrix(1,0,0,1,830,609) translate(29.599999999999994 14.4)"/><path d="M989.54 496.55L936.8 539.8" stroke="#000" stroke-width="2" fill="none"/><path d="M991.3 496.4l-1.15.94-1.27-1.55.44-.37zM937.46 540.56l-.22.2-2.4-.63 1.35-1.1z"/><path d="M870.9 597.15l-58.33 54.45" stroke="#000" stroke-width="2" fill="none"/><path d="M871.55 597.9l-1.35-1.46 1.52-1.4z"/><path d="M801.4 662.02l7.27-13.12 6.33 6.77z" stroke="#000" stroke-width="2"/><path d="M1176.17 496.55l53.9 44.2" stroke="#000" stroke-width="2" fill="none"/><path d="M1176.82 495.8l-1.27 1.54-1.14-.94 1.98-.97zM1231.9 540.96l-1.96.8-.12.1-.4-.34 1.25-1.55z"/><path d="M1288.98 540h-52.16c-6.08 0-11.12 3.66-11.12 8.04v43.92c0 4.44 5.04 8.04 11.12 8.04h57.76c6.16 0 11.12-3.66 11.12-8.04v-40.08L1288.98 540zm9.84 51.96c0 1.74-1.84 3.06-4.24 3.06h-57.76c-2.4 0-4.24-1.32-4.24-3.06v-43.92c0-1.74 1.84-3.06 4.24-3.06h48.8v9.6h13.2v37.38z" stroke="#000" stroke-opacity="0" fill="#2a3282"/><path d="M1249.78 560.7v4.02c0 2.34-1.28 3.48-3.68 3.48v3.24c2.64 0 3.68 1.14 3.68 3.24v4.44c0 2.34.8 3.84 2.16 4.8 1.52 1.38 4.24 1.92 8.16 1.92v-3.42c-1.28 0-2.4-.24-3.2-.78-.48-.6-1.04-1.32-1.04-2.46v-3.66c.32-2.88-1.04-4.8-3.44-5.58 2.64-.72 3.76-2.46 3.76-5.34v-3.84c0-2.16 1.28-3.12 3.92-3.12v-3.42c-3.92 0-6.64.6-8.16 1.74-1.36.72-2.16 2.46-2.16 4.74zM1278.98 564.72v-4.2c0-2.34-.8-3.84-2.08-4.98-1.6-.96-4.32-1.56-8.24-1.56v3.48c2.64 0 3.92.96 3.92 3.06v3.66c0 3.06 1.36 4.98 3.76 5.76-2.64.78-3.76 2.46-3.76 5.4v3.84c0 1.14-.24 1.92-.8 2.46-.8.6-1.52.78-3.2.78v3.42c4 0 6.64-.54 8.24-1.74 1.36-.96 2.08-2.7 2.08-4.98v-4.2c0-2.28 1.36-3.42 3.76-3.42v-3.3c-2.4 0-3.68-1.14-3.68-3.48z" stroke="#000" stroke-opacity="0" fill="#2a3282"/><use xlink:href="#h" transform="matrix(1,0,0,1,1195.7049916293013,609) translate(26.549999999999997 14.4)"/><use xlink:href="#i" transform="matrix(1,0,0,1,1195.7049916293013,609) translate(42.025 36)"/><path d="M1304.32 597.34l34.43 32.9" stroke="#000" stroke-width="2" fill="none"/><path d="M1305.03 596.64l-1.38 1.44-.86-.82.8-.6.6-.8z"/><path d="M1349.8 640.77l-13.53-6.5 6.4-6.7z" stroke="#000" stroke-width="2"/><path d="M862 710h18.95m18.96 0h37.9m18.96 0h37.9m18.96 0h37.9m18.96 0h37.9m18.96 0h37.9m18.96 0h37.9m18.96 0H1260" stroke="#000" stroke-width="2" fill="none"/><path d="M862.03 711h-1.05l.02-1v-.62l-.03-.38h1.06z"/><path d="M1275.28 710l-14.27 4.64v-9.28z" stroke="#000" stroke-width="2"/><use xlink:href="#j" transform="matrix(1,0,0,1,1087.5583333333332,684.4) translate(0 14.4)"/><path d="M1076.73 711.87c0 1.87-1.82 3.38-4.03 3.38h-48.67c-2.2 0-4.03-1.5-4.03-3.38v-28.5c0-1.85 1.82-3.37 4.03-3.37h48.67c2.2 0 4.03 1.52 4.03 3.38v28.5z" stroke="#000" stroke-opacity="0" fill="#fcd116"/><path d="M1024.86 684.07h47v27.12h-47v-27.13z" stroke="#000" stroke-opacity="0" fill="#fff"/><path d="M1040.26 705.1c0 2.98-2.9 5.4-6.48 5.4-3.58 0-6.5-2.42-6.5-5.4 0-3 2.92-5.44 6.5-5.44s6.48 2.43 6.48 5.43z" stroke="#000" stroke-opacity="0" fill="#dd5900"/><path d="M1038.64 705.1c0 2.23-2.18 4.05-4.86 4.05-2.7 0-4.87-1.82-4.87-4.06 0-2.26 2.2-4.08 4.88-4.08 2.68 0 4.86 1.82 4.86 4.07z" stroke="#000" stroke-opacity="0" fill="#ff8c00"/><path d="M1033.78 709.15c-1.9 0-3.6-.6-4.9-1.6l-.77 12.38 5.6-4.67 5.67 4.74.08-.67-.77-11.77c-1.3.98-3.02 1.6-4.9 1.6z" stroke="#000" stroke-opacity="0" fill="#dd5900"/><path d="M1066.48 703.8c0 .43-.4.77-.9.77h-20.36c-.5 0-.9-.34-.9-.76 0-.4.4-.75.9-.75h20.35c.5 0 .9.34.9.76M1066.48 699.66c0 .42-.4.76-.9.76h-20.36c-.5 0-.9-.34-.9-.76s.4-.76.9-.76h20.35c.5 0 .9.34.9.76M1066.48 693.56c0 .42-.4.76-.9.76h-34.15c-.5 0-.9-.34-.9-.76s.4-.76.9-.76h34.15c.5 0 .9.34.9.76" stroke="#000" stroke-opacity="0" fill="#7a7a7a"/><path d="M1048.36 715.25" stroke="#000" stroke-width="2" fill="none"/><path/><path/><defs><path d="M233-177c-1 41-23 64-60 70L243 0h-38l-65-103H63V0H30v-248c88 3 205-21 203 71zM63-129c60-2 137 13 137-47 0-61-80-42-137-45v92" id="k"/><path d="M100-194c63 0 86 42 84 106H49c0 40 14 67 53 68 26 1 43-12 49-29l28 8c-11 28-37 45-77 45C44 4 14-33 15-96c1-61 26-98 85-98zm52 81c6-60-76-77-97-28-3 7-6 17-6 28h103" id="l"/><path d="M24 0v-261h32V0H24" id="m"/><path d="M141-36C126-15 110 5 73 4 37 3 15-17 15-53c-1-64 63-63 125-63 3-35-9-54-41-54-24 1-41 7-42 31l-33-3c5-37 33-52 76-52 45 0 72 20 72 64v82c-1 20 7 32 28 27v20c-31 9-61-2-59-35zM48-53c0 20 12 33 32 33 41-3 63-29 60-74-43 2-92-5-92 41" id="n"/><path d="M179-190L93 31C79 59 56 82 12 73V49c39 6 53-20 64-50L1-190h34L92-34l54-156h33" id="o"/><path d="M114-163C36-179 61-72 57 0H25l-1-190h30c1 12-1 29 2 39 6-27 23-49 58-41v29" id="p"/><g id="a"><use transform="matrix(0.08641975308641976,0,0,0.08641975308641976,0,0)" xlink:href="#k"/><use transform="matrix(0.08641975308641976,0,0,0.08641975308641976,22.38271604938272,0)" xlink:href="#l"/><use transform="matrix(0.08641975308641976,0,0,0.08641975308641976,39.66666666666667,0)" xlink:href="#m"/><use transform="matrix(0.08641975308641976,0,0,0.08641975308641976,46.49382716049383,0)" xlink:href="#n"/><use transform="matrix(0.08641975308641976,0,0,0.08641975308641976,63.777777777777786,0)" xlink:href="#o"/><use transform="matrix(0.08641975308641976,0,0,0.08641975308641976,79.33333333333334,0)" xlink:href="#l"/><use transform="matrix(0.08641975308641976,0,0,0.08641975308641976,96.61728395061729,0)" xlink:href="#p"/></g><path d="M127-220V0H93v-220H8v-28h204v28h-85" id="q"/><path d="M117-194c89-4 53 116 60 194h-32v-121c0-31-8-49-39-48C34-167 62-67 57 0H25l-1-190h30c1 10-1 24 2 32 11-22 29-35 61-36" id="r"/><path d="M85-194c31 0 48 13 60 33l-1-100h32l1 261h-30c-2-10 0-23-3-31C134-8 116 4 85 4 32 4 16-35 15-94c0-66 23-100 70-100zm9 24c-40 0-46 34-46 75 0 40 6 74 45 74 42 0 51-32 51-76 0-42-9-74-50-73" id="s"/><path d="M210-169c-67 3-38 105-44 169h-31v-121c0-29-5-50-35-48C34-165 62-65 56 0H25l-1-190h30c1 10-1 24 2 32 10-44 99-50 107 0 11-21 27-35 58-36 85-2 47 119 55 194h-31v-121c0-29-5-49-35-48" id="t"/><path d="M24-231v-30h32v30H24zM24 0v-190h32V0H24" id="u"/><path d="M59-47c-2 24 18 29 38 22v24C64 9 27 4 27-40v-127H5v-23h24l9-43h21v43h35v23H59v120" id="v"/><g id="b"><use transform="matrix(0.08641975308641976,0,0,0.08641975308641976,0,0)" xlink:href="#q"/><use transform="matrix(0.08641975308641976,0,0,0.08641975308641976,15.469135802469134,0)" xlink:href="#l"/><use transform="matrix(0.08641975308641976,0,0,0.08641975308641976,32.75308641975309,0)" xlink:href="#r"/><use transform="matrix(0.08641975308641976,0,0,0.08641975308641976,50.037037037037045,0)" xlink:href="#s"/><use transform="matrix(0.08641975308641976,0,0,0.08641975308641976,67.32098765432099,0)" xlink:href="#l"/><use transform="matrix(0.08641975308641976,0,0,0.08641975308641976,84.60493827160494,0)" xlink:href="#p"/><use transform="matrix(0.08641975308641976,0,0,0.08641975308641976,94.88888888888889,0)" xlink:href="#t"/><use transform="matrix(0.08641975308641976,0,0,0.08641975308641976,120.72839506172839,0)" xlink:href="#u"/><use transform="matrix(0.08641975308641976,0,0,0.08641975308641976,127.55555555555554,0)" xlink:href="#r"/><use transform="matrix(0.08641975308641976,0,0,0.08641975308641976,144.83950617283952,0)" xlink:href="#v"/></g><path d="M137 0h-34L2-248h35l83 218 83-218h36" id="w"/><path d="M100-194c62-1 85 37 85 99 1 63-27 99-86 99S16-35 15-95c0-66 28-99 85-99zM99-20c44 1 53-31 53-75 0-43-8-75-51-75s-53 32-53 75 10 74 51 75" id="x"/><g id="c"><use transform="matrix(0.08641975308641976,0,0,0.08641975308641976,0,0)" xlink:href="#w"/><use transform="matrix(0.08641975308641976,0,0,0.08641975308641976,18.407407407407412,0)" xlink:href="#n"/><use transform="matrix(0.08641975308641976,0,0,0.08641975308641976,35.69135802469137,0)" xlink:href="#m"/><use transform="matrix(0.08641975308641976,0,0,0.08641975308641976,42.51851851851853,0)" xlink:href="#u"/><use transform="matrix(0.08641975308641976,0,0,0.08641975308641976,49.34567901234569,0)" xlink:href="#s"/><use transform="matrix(0.08641975308641976,0,0,0.08641975308641976,66.62962962962965,0)" xlink:href="#n"/><use transform="matrix(0.08641975308641976,0,0,0.08641975308641976,83.9135802469136,0)" xlink:href="#v"/><use transform="matrix(0.08641975308641976,0,0,0.08641975308641976,92.55555555555557,0)" xlink:href="#x"/><use transform="matrix(0.08641975308641976,0,0,0.08641975308641976,109.83950617283952,0)" xlink:href="#p"/></g><path d="M190 0L58-211 59 0H30v-248h39L202-35l-2-213h31V0h-41" id="y"/><path d="M206 0h-36l-40-164L89 0H53L-1-190h32L70-26l43-164h34l41 164 42-164h31" id="z"/><path d="M143 0L79-87 56-68V0H24v-261h32v163l83-92h37l-77 82L181 0h-38" id="A"/><g id="d"><use transform="matrix(0.08641975308641976,0,0,0.08641975308641976,0,0)" xlink:href="#y"/><use transform="matrix(0.08641975308641976,0,0,0.08641975308641976,22.38271604938272,0)" xlink:href="#l"/><use transform="matrix(0.08641975308641976,0,0,0.08641975308641976,39.66666666666667,0)" xlink:href="#v"/><use transform="matrix(0.08641975308641976,0,0,0.08641975308641976,48.308641975308646,0)" xlink:href="#z"/><use transform="matrix(0.08641975308641976,0,0,0.08641975308641976,70.69135802469137,0)" xlink:href="#x"/><use transform="matrix(0.08641975308641976,0,0,0.08641975308641976,87.97530864197532,0)" xlink:href="#p"/><use transform="matrix(0.08641975308641976,0,0,0.08641975308641976,98.25925925925927,0)" xlink:href="#A"/></g><path d="M30 0v-248h187v28H63v79h144v27H63v87h162V0H30" id="B"/><path d="M106-169C34-169 62-67 57 0H25v-261h32l-1 103c12-21 28-36 61-36 89 0 53 116 60 194h-32v-121c2-32-8-49-39-48" id="C"/><path d="M84 4C-5 8 30-112 23-190h32v120c0 31 7 50 39 49 72-2 45-101 50-169h31l1 190h-30c-1-10 1-25-2-33-11 22-28 36-60 37" id="D"/><g id="e"><use transform="matrix(0.08641975308641976,0,0,0.08641975308641976,0,0)" xlink:href="#B"/><use transform="matrix(0.08641975308641976,0,0,0.08641975308641976,20.740740740740744,0)" xlink:href="#v"/><use transform="matrix(0.08641975308641976,0,0,0.08641975308641976,29.382716049382726,0)" xlink:href="#C"/><use transform="matrix(0.08641975308641976,0,0,0.08641975308641976,46.66666666666667,0)" xlink:href="#l"/><use transform="matrix(0.08641975308641976,0,0,0.08641975308641976,63.95061728395062,0)" xlink:href="#p"/><use transform="matrix(0.08641975308641976,0,0,0.08641975308641976,74.23456790123457,0)" xlink:href="#l"/><use transform="matrix(0.08641975308641976,0,0,0.08641975308641976,91.51851851851853,0)" xlink:href="#D"/><use transform="matrix(0.08641975308641976,0,0,0.08641975308641976,108.80246913580245,0)" xlink:href="#t"/></g><path d="M185-189c-5-48-123-54-124 2 14 75 158 14 163 119 3 78-121 87-175 55-17-10-28-26-33-46l33-7c5 56 141 63 141-1 0-78-155-14-162-118-5-82 145-84 179-34 5 7 8 16 11 25" id="E"/><path d="M16-82v-28h88v28H16" id="F"/><path d="M212-179c-10-28-35-45-73-45-59 0-87 40-87 99 0 60 29 101 89 101 43 0 62-24 78-52l27 14C228-24 195 4 139 4 59 4 22-46 18-125c-6-104 99-153 187-111 19 9 31 26 39 46" id="G"/><path d="M96-169c-40 0-48 33-48 73s9 75 48 75c24 0 41-14 43-38l32 2c-6 37-31 61-74 61-59 0-76-41-82-99-10-93 101-131 147-64 4 7 5 14 7 22l-32 3c-4-21-16-35-41-35" id="H"/><g id="f"><use transform="matrix(0.08641975308641976,0,0,0.08641975308641976,0,0)" xlink:href="#E"/><use transform="matrix(0.08641975308641976,0,0,0.08641975308641976,20.740740740740744,0)" xlink:href="#t"/><use transform="matrix(0.08641975308641976,0,0,0.08641975308641976,46.580246913580254,0)" xlink:href="#n"/><use transform="matrix(0.08641975308641976,0,0,0.08641975308641976,63.8641975308642,0)" xlink:href="#p"/><use transform="matrix(0.08641975308641976,0,0,0.08641975308641976,74.14814814814815,0)" xlink:href="#v"/><use transform="matrix(0.08641975308641976,0,0,0.08641975308641976,82.79012345679013,0)" xlink:href="#F"/><use transform="matrix(0.08641975308641976,0,0,0.08641975308641976,93.07407407407409,0)" xlink:href="#G"/><use transform="matrix(0.08641975308641976,0,0,0.08641975308641976,115.4567901234568,0)" xlink:href="#x"/><use transform="matrix(0.08641975308641976,0,0,0.08641975308641976,132.74074074074076,0)" xlink:href="#r"/><use transform="matrix(0.08641975308641976,0,0,0.08641975308641976,150.0246913580247,0)" xlink:href="#v"/><use transform="matrix(0.08641975308641976,0,0,0.08641975308641976,158.66666666666669,0)" xlink:href="#p"/><use transform="matrix(0.08641975308641976,0,0,0.08641975308641976,168.95061728395063,0)" xlink:href="#n"/><use transform="matrix(0.08641975308641976,0,0,0.08641975308641976,186.23456790123458,0)" xlink:href="#H"/><use transform="matrix(0.08641975308641976,0,0,0.08641975308641976,201.79012345679016,0)" xlink:href="#v"/></g><path d="M101-234c-31-9-42 10-38 44h38v23H63V0H32v-167H5v-23h27c-7-52 17-82 69-68v24" id="I"/><g id="g"><use transform="matrix(0.05,0,0,0.05,0,0)" xlink:href="#G"/><use transform="matrix(0.05,0,0,0.05,12.950000000000001,0)" xlink:href="#l"/><use transform="matrix(0.05,0,0,0.05,22.950000000000003,0)" xlink:href="#p"/><use transform="matrix(0.05,0,0,0.05,28.900000000000002,0)" xlink:href="#v"/><use transform="matrix(0.05,0,0,0.05,33.900000000000006,0)" xlink:href="#u"/><use transform="matrix(0.05,0,0,0.05,37.85000000000001,0)" xlink:href="#I"/><use transform="matrix(0.05,0,0,0.05,42.85000000000001,0)" xlink:href="#u"/><use transform="matrix(0.05,0,0,0.05,46.80000000000001,0)" xlink:href="#H"/><use transform="matrix(0.05,0,0,0.05,55.80000000000001,0)" xlink:href="#n"/><use transform="matrix(0.05,0,0,0.05,65.80000000000001,0)" xlink:href="#v"/><use transform="matrix(0.05,0,0,0.05,70.80000000000001,0)" xlink:href="#l"/></g><path d="M160-131c35 5 61 23 61 61C221 17 115-2 30 0v-248c76 3 177-17 177 60 0 33-19 50-47 57zm-97-11c50-1 110 9 110-42 0-47-63-36-110-37v79zm0 115c55-2 124 14 124-45 0-56-70-42-124-44v89" id="J"/><g id="h"><use transform="matrix(0.05,0,0,0.05,0,0)" xlink:href="#J"/><use transform="matrix(0.05,0,0,0.05,12,0)" xlink:href="#m"/><use transform="matrix(0.05,0,0,0.05,15.949999999999998,0)" xlink:href="#x"/><use transform="matrix(0.05,0,0,0.05,25.950000000000003,0)" xlink:href="#H"/><use transform="matrix(0.05,0,0,0.05,34.95,0)" xlink:href="#A"/><use transform="matrix(0.05,0,0,0.05,43.95,0)" xlink:href="#H"/><use transform="matrix(0.05,0,0,0.05,52.95,0)" xlink:href="#C"/><use transform="matrix(0.05,0,0,0.05,62.95,0)" xlink:href="#n"/><use transform="matrix(0.05,0,0,0.05,72.95,0)" xlink:href="#u"/><use transform="matrix(0.05,0,0,0.05,76.9,0)" xlink:href="#r"/></g><g id="i"><use transform="matrix(0.05,0,0,0.05,0,0)" xlink:href="#C"/><use transform="matrix(0.05,0,0,0.05,10,0)" xlink:href="#l"/><use transform="matrix(0.05,0,0,0.05,20,0)" xlink:href="#n"/><use transform="matrix(0.05,0,0,0.05,30,0)" xlink:href="#s"/><use transform="matrix(0.05,0,0,0.05,40,0)" xlink:href="#l"/><use transform="matrix(0.05,0,0,0.05,50,0)" xlink:href="#p"/></g><g id="j"><use transform="matrix(0.05,0,0,0.05,0,0)" xlink:href="#w"/><use transform="matrix(0.05,0,0,0.05,10.65,0)" xlink:href="#n"/><use transform="matrix(0.05,0,0,0.05,20.65,0)" xlink:href="#m"/><use transform="matrix(0.05,0,0,0.05,24.599999999999998,0)" xlink:href="#u"/><use transform="matrix(0.05,0,0,0.05,28.549999999999997,0)" xlink:href="#s"/><use transform="matrix(0.05,0,0,0.05,38.55,0)" xlink:href="#n"/><use transform="matrix(0.05,0,0,0.05,48.55,0)" xlink:href="#v"/><use transform="matrix(0.05,0,0,0.05,53.54999999999999,0)" xlink:href="#l"/></g></defs></g></svg>