<svg xmlns="http://www.w3.org/2000/svg" xmlns:xlink="http://www.w3.org/1999/xlink" xmlns:lucid="lucid" width="1400" height="1760"><g transform="translate(-220 -140)" lucid:page-tab-id="0_0"><path d="M0 0h2280v1997.5H0z" fill="#fff"/><path d="M240 160h303.65v1719.37H240z" stroke="#000" stroke-opacity="0" fill="#99d5ca" fill-opacity=".3"/><path d="M880 160h360v1720H880z" stroke="#000" stroke-opacity="0" fill="#7ab648" fill-opacity=".25"/><path d="M543.65 160H880v1720H543.65z" stroke="#000" stroke-opacity="0" fill="#c1e4f7" fill-opacity=".5"/><path d="M1240 160h360v1719.58h-360z" stroke="#000" stroke-opacity="0" fill="#ffd99a" fill-opacity=".3"/><path d="M698.7 349.5v9.96m0 9.96l.02 19.92m0 9.96l.02 19.92m0 9.96l.02 19.92m0 9.96l.03 19.92m0 9.96v19.92m.02 9.96v19.92m.02 9.96l.02 19.92m0 9.96l.02 19.92m0 9.96l.02 19.92m0 9.96l.02 19.92m0 9.96l.03 19.92m0 9.96l.02 19.92m0 9.96l.02 19.92m0 9.96v19.9m.02 9.97l.02 19.92m0 9.96l.02 19.93m0 9.96l.02 19.9m0 9.97l.03 19.92m0 9.95l.03 19.92m0 9.96l.02 19.92m0 9.96l.02 19.93m0 9.96l.03 19.9m0 9.97l.02 19.92m0 9.95l.02 19.92m0 9.96l.03 19.92m0 9.96l.02 19.93m0 9.96v19.9m.02 9.97v19.92m.02 9.95l.02 19.92m0 9.96l.02 19.92m0 9.96l.02 19.93m0 9.96l.03 19.9m0 9.97l.02 19.92m0 9.95l.02 19.92m0 9.96l.02 19.92m0 9.96l.02 19.93m0 9.96l.02 19.9m0 9.97l.02 19.92m0 9.95l.03 19.92m0 9.96v19.92m.02 9.96v19.93m.02 9.96v19.9m.02 9.96l.02 19.92m0 9.96l.02 19.92m0 9.96l.02 19.92m0 9.96l.03 19.92m0 9.96v9.96" stroke="#333" fill="none"/><path d="M699.2 349.5h-1v-.5h1z" fill="#333"/><path d="M699.76 1753.83v3.5" stroke="#333" fill="none"/><path d="M679.76 448c0-4.42 3.58-8 8-8h24c4.42 0 8 3.58 8 8v144c0 4.42-3.58 8-8 8h-24c-4.42 0-8-3.58-8-8z" stroke="#0c7cba" stroke-width="2" fill="#fff"/><path d="M1039.68 1717.52l-.15 10-1-.03.15-10zm.44-29.95l-.3 19.97-1-.02.3-19.97zm.45-29.96l-.3 19.98h-1l.3-20zm.44-29.95l-.28 19.97h-1l.3-19.98zm.46-29.95l-.3 19.97-1-.02.3-19.97zm.44-29.96l-.3 19.97h-1l.3-19.98zm.45-29.96l-.3 19.97h-1l.3-19.98zm.44-29.95l-.3 19.97-1-.02.3-19.97zm.44-29.96l-.3 19.97h-1l.3-20zm.45-29.96l-.3 19.98h-1l.3-19.98zm.43-29.94l-.3 19.97-1-.02.3-19.96zm.45-29.96l-.3 19.97h-1l.3-19.98zm.44-29.96l-.3 19.97h-1l.3-19.97zm.45-29.95l-.3 19.96-1-.02.3-19.97zm.44-29.97l-.3 19.97h-1l.3-19.98zm.46-29.96l-.3 19.98-1-.02.3-19.97zm.44-29.95l-.3 19.97-1-.03.3-19.97zm.45-29.96l-.3 19.97h-1l.3-19.98zm.44-29.96l-.3 19.98-1-.02.3-19.97zm.44-29.95l-.3 19.97-1-.02.3-19.97zm.44-29.96l-.3 19.96h-1l.3-19.98zm.45-29.97l-.3 19.98h-1l.3-19.98zm.44-29.95l-.3 19.97-1-.02.3-19.97zm.45-29.96l-.3 19.97-1-.02.3-19.97zm.45-29.95l-.3 19.97-1-.02.3-19.97zm.44-29.96l-.3 19.98h-1l.3-20zm.46-29.95l-.3 19.97h-1l.3-19.98zm.44-29.95l-.3 19.97-1-.02.3-19.97zm.45-29.96l-.3 19.97h-1l.3-19.98zm.44-29.96l-.3 19.97h-1l.3-19.98zm.44-29.95l-.3 19.97-1-.02.3-19.97zm.44-29.96l-.3 19.97h-1l.3-20zm.45-29.96l-.3 19.98h-1l.3-19.98zm.44-29.94l-.3 19.97-1-.02.3-19.96zm.45-29.96l-.3 19.97h-1l.3-19.98zm.44-29.96l-.3 19.97h-1l.3-19.97zm.45-29.95l-.3 19.96-1-.02.3-19.97zm.45-29.97l-.3 19.97h-1l.3-19.98zm.45-29.96l-.3 19.98-1-.02.3-19.97zm.44-29.95l-.3 19.97-1-.03.3-19.97zm.45-29.96l-.3 19.97h-1l.3-19.98zm.44-29.96l-.3 19.98-1-.02.3-19.97zm.44-29.95l-.3 19.97-1-.02.3-19.97zm.45-29.96l-.3 19.96h-1l.3-19.98zm.44-29.97l-.3 19.98h-1l.3-19.98zm.45-29.95l-.3 19.97-1-.02.3-19.97zm.3-19.97l-.15 10-1-.02.14-10z" fill="#333"/><path d="M1060 349.52h-1l.02-.52h1z" fill="#333"/><path fill="#333"/><path d="M1039.52 388c0-4.42 3.58-8 8-8h24c4.42 0 8 3.58 8 8v1384c0 4.42-3.58 8-8 8h-24c-4.42 0-8-3.58-8-8z" stroke="#0c7cba" stroke-width="2" fill="#fff"/><path d="M1420.36 357.5v10.1m0 10.07v20.17m0 10.1v20.16m0 10.08v20.17m0 10.1v20.16m0 10.1v20.16m0 10.1v20.16m0 10.08v20.17m0 10.1v20.16m0 10.08v20.18m0 10.1v20.16m0 10.08v20.17m0 10.08v20.17m0 10.08v20.17m0 10.1v20.16m0 10.08v20.17m0 10.1v20.17m0 10.1v20.16m0 10.08v20.18m0 10.1v20.16m0 10.08v20.17m0 10.08v20.17m0 10.08v20.17m0 10.1v20.16m0 10.08v20.17m0 10.1v20.17m0 10.08v20.17m0 10.1v20.16m0 10.08v20.17m0 10.1v20.16m0 10.07v20.17m0 10.1v20.16m0 10.1v20.16m0 10.08V1366m0 10.1v20.17m0 10.08v20.17m0 10.1v20.16m0 10.08v20.17m0 10.1v20.16m0 10.07v20.17m0 10.1v20.16m0 10.08v20.17m0 10.1v20.16m0 10.1v20.16m0 10.1v20.16m0 10.08v20.17m0 10.1v20.16m0 10.08v10.1" stroke="#333" fill="none"/><path d="M1420.86 357.5h-1v-.5h1z" fill="#333"/><path d="M1420.36 1779.5v.5" stroke="#333" fill="none"/><path d="M679.76 864.58c0-4.42 3.58-8 8-8h24c4.42 0 8 3.58 8 8V912c0 4.42-3.58 8-8 8h-24c-4.42 0-8-3.58-8-8zM603.65 248c0-4.42 3.58-8 8-8h174.07c4.42 0 8 3.58 8 8v92c0 4.42-3.58 8-8 8H611.65c-4.42 0-8-3.58-8-8z" stroke="#0c7cba" stroke-width="2" fill="#fff"/><use xlink:href="#a" transform="matrix(1,0,0,1,611.6496896262572,248) translate(12.932098765432102 50.44444444444444)"/><use xlink:href="#b" transform="matrix(1,0,0,1,611.6496896262572,248) translate(78.24074074074073 50.44444444444444)"/><path d="M964.48 248c0-4.42 3.6-8 8-8h174.08c4.42 0 8 3.58 8 8v92c0 4.42-3.58 8-8 8H972.48c-4.4 0-8-3.58-8-8z" stroke="#19967d" stroke-width="2" fill="#fff"/><use xlink:href="#c" transform="matrix(1,0,0,1,972.4836879544767,248) translate(44.166666666666664 50.44444444444444)"/><path d="M1325.32 248c0-4.42 3.58-8 8-8h174.07c4.4 0 8 3.58 8 8v100c0 4.42-3.6 8-8 8H1333.3c-4.42 0-8-3.58-8-8z" stroke="#ef8d22" stroke-width="2" fill="#fff"/><use xlink:href="#d" transform="matrix(1,0,0,1,1333.3176862826967,248) translate(49.32098765432099 54.44444444444444)"/><path d="M403.4 277.42c0 10.9-8.84 19.75-19.75 19.75-10.9 0-19.75-8.85-19.75-19.75s8.84-19.75 19.75-19.75c10.9 0 19.75 8.84 19.75 19.75z" stroke="#333" fill="#ffeca9"/><path d="M383.65 297.17v47.3c0 4.4 1.92 11.02 4.28 14.76l35.72 56.44m-40-63.2l-40 63.2m0-98.75h80" stroke="#333" fill="none"/><path d="M343.65 265.67c0-4.42 3.58-8 8-8h64c4.42 0 8 3.58 8 8v164c0 4.4-3.58 8-8 8h-64c-4.42 0-8-3.6-8-8z" fill="none"/><use xlink:href="#e" transform="matrix(1,0,0,1,263.6496896262572,415.6655519423589) translate(100.18827160493828 14.11111111111111)"/><path d="M387.05 449.12L387 459.2m-.05 10.07l-.1 20.16m-.06 10.08l-.12 20.17m-.05 10.07l-.1 20.16m-.06 10.08l-.1 20.16m-.06 10.08l-.1 20.15m-.05 10.08l-.1 20.16m-.06 10.1l-.12 20.15m-.05 10.07l-.1 20.16m-.06 10.08l-.1 20.16m-.06 10.08l-.1 20.15m-.05 10.08l-.1 20.16m-.07 10.07l-.1 20.16m-.06 10.07l-.1 20.16m-.06 10.08l-.1 20.16m-.06 10.08l-.1 20.15m-.06 10.08l-.1 20.17m-.06 10.08l-.1 20.16m-.06 10.08l-.1 20.16m-.06 10.08l-.1 20.16m-.06 10.08l-.1 20.15m-.06 10.1l-.1 20.15m-.06 10.08l-.1 20.16m-.06 10.07l-.1 20.15m-.06 10.08l-.1 20.16m-.06 10.08l-.1 20.15m-.06 10.07l-.1 20.16m-.06 10.08l-.1 20.17m-.06 10.08l-.1 20.15m-.06 10.08l-.1 20.16m-.06 10.08l-.1 20.15m-.06 10.08l-.1 20.16m-.06 10.1l-.1 20.15m-.06 10.08l-.1 20.15m-.06 10.08l-.1 20.16m-.06 10.08l-.1 20.15m-.06 10.08l-.1 20.16m-.06 10.07l-.1 20.16M381 1588l-.1 20.16m-.06 10.08l-.1 20.16m-.06 10.08l-.1 20.15m-.06 10.08l-.1 20.17m-.06 10.08l-.1 20.16m-.06 10.1l-.1 20.14m-.06 10.08l-.06 10.08M387.05 449.13v-.5M380 1779.5v.5M389.78 457.7h273.1M389.8 457.7h-.52" stroke="#333" fill="none"/><path d="M677.64 457.7l-14.26 4.65v-9.27z" stroke="#333" fill="#333"/><use xlink:href="#f" transform="matrix(1,0,0,1,472.5004025391267,435.04761904761904) translate(0.005000000000002558 12.444444444444446)"/><use xlink:href="#g" transform="matrix(1,0,0,1,472.5004025391267,435.04761904761904) translate(71.7333950617284 12.444444444444446)"/><path d="M460 460h143.65v118H460z" stroke="#000" stroke-opacity="0" fill="#fff" fill-opacity="0"/><use xlink:href="#h" transform="matrix(1,0,0,1,464.9999999999593,465) translate(0 17.80625)"/><use xlink:href="#i" transform="matrix(1,0,0,1,464.9999999999593,465) translate(0 39.40625)"/><use xlink:href="#j" transform="matrix(1,0,0,1,464.9999999999593,465) translate(20 39.40625)"/><use xlink:href="#k" transform="matrix(1,0,0,1,464.9999999999593,465) translate(60.9 39.40625)"/><use xlink:href="#i" transform="matrix(1,0,0,1,464.9999999999593,465) translate(0 61.00625)"/><use xlink:href="#l" transform="matrix(1,0,0,1,464.9999999999593,465) translate(20 61.00625)"/><use xlink:href="#k" transform="matrix(1,0,0,1,464.9999999999593,465) translate(40 61.00625)"/><use xlink:href="#i" transform="matrix(1,0,0,1,464.9999999999593,465) translate(0 82.60625000000002)"/><use xlink:href="#m" transform="matrix(1,0,0,1,464.9999999999593,465) translate(20 82.60625000000002)"/><use xlink:href="#i" transform="matrix(1,0,0,1,464.9999999999593,465) translate(0 104.20625000000001)"/><use xlink:href="#n" transform="matrix(1,0,0,1,464.9999999999593,465) translate(20 104.20625000000001)"/><use xlink:href="#o" transform="matrix(1,0,0,1,464.9999999999593,465) translate(49 104.20625000000001)"/><path d="M678.62 593.87l-10.22-.1m-10.22-.12l-20.44-.23m-10.22-.1l-20.44-.23m-10.22-.12l-20.44-.22m-10.22-.12l-20.44-.22m-10.22-.1l-20.44-.23m-10.22-.13l-20.44-.22m-10.2-.1l-20.45-.23m-10.23-.1l-20.44-.24m-10.22-.1l-10.2-.12" stroke="#333" fill="none"/><path d="M679.02 593.37l.2 1h-.62v-1z" fill="#333"/><path d="M387.92 590.7l14.32-4.48-.1 9.27z" stroke="#333" fill="#333"/><use xlink:href="#p" transform="matrix(1,0,0,1,525.5715419331286,596.277591297694) translate(0 14.4)"/><path d="M772.5 535.17l-1.1 3.22-1.24 2.76-1.4 2.46-1.56 2.24-1.76 2.06-2 1.95-2.3 1.85-2.72 1.78-3.24 1.73-4 1.66-5.1 1.56-6.72 1.4-2.2.24-.12-1 2.16-.23 6.64-1.38 5-1.55 3.9-1.63 3.17-1.68 2.64-1.73 2.23-1.78 1.94-1.88 1.7-2 1.52-2.15 1.35-2.4 1.2-2.68 1.07-3.12.76-3.2h1.03zm-36.25-51.93l9.15 1.27 6.1 1.45 4.37 1.5 3.33 1.48 2.65 1.5 2.17 1.53 1.84 1.55 1.57 1.64 1.4 1.72 1.22 1.87 1.1 2.07 1 2.36.85 2.8.74 3.54.07.6h-1l-.05-.44-.7-3.44-.86-2.72-.95-2.28-1.06-1.98-1.2-1.8-1.3-1.64-1.53-1.55-1.76-1.5-2.1-1.47-2.55-1.45-3.25-1.46-4.3-1.46-6-1.4-9.04-1.26-14.92-.63.04-1z" fill="#333"/><path d="M721.3 482.6l-.05 1h-.5v-1zM736.92 564.26l-14.54-3.68L736.3 555z" fill="#333"/><path d="M737.46 564.92l-16.7-4.23 16-6.4zM724 560.47l12.37 3.14-.52-7.87z" fill="#333"/><use xlink:href="#q" transform="matrix(1,0,0,1,706.8799856952944,510.11407600273475) translate(0 14.4)"/><use xlink:href="#r" transform="matrix(1,0,0,1,706.8799856952944,510.11407600273475) translate(54.95 14.4)"/><path d="M1400.36 586c0-4.42 3.58-8 8-8h24c4.4 0 8 3.58 8 8v104c0 4.42-3.6 8-8 8h-24c-4.42 0-8-3.58-8-8z" stroke="#0c7cba" stroke-width="2" fill="#fff"/><path d="M721.26 581.46l664.53-1.92" stroke="#333" fill="none"/><path d="M721.28 581.96h-.52v-1h.5z" fill="#333"/><path d="M1400.55 579.5l-14.25 4.67-.03-9.27z" stroke="#333" fill="#333"/><use xlink:href="#s" transform="matrix(1,0,0,1,1166.2895885769792,557.2996632004895) translate(0.0049999999999954525 12.444444444444446)"/><use xlink:href="#t" transform="matrix(1,0,0,1,1166.2895885769792,557.2996632004895) translate(32.80129629629629 12.444444444444446)"/><use xlink:href="#u" transform="matrix(1,0,0,1,1166.2895885769792,557.2996632004895) translate(105.39388888888888 12.444444444444446)"/><path d="M1398.86 616.44l-302.45.5" stroke="#333" fill="none"/><path d="M1399.36 616.94h-.52v-1h.52z" fill="#333"/><path d="M1081.64 616.95l14.26-4.66v9.26z" stroke="#333" fill="#333"/><use xlink:href="#v" transform="matrix(1,0,0,1,1194.2988312315458,620.6944653744862) translate(0.005000000000002558 12.444444444444446)"/><use xlink:href="#w" transform="matrix(1,0,0,1,1194.2988312315458,620.6944653744862) translate(70.7827777777778 12.444444444444446)"/><path d="M1080.52 660h10.6m10.6 0h21.17m10.6 0h21.17m10.6 0h21.18m10.6 0h21.18m10.6 0h10.6l.18.08.1.2.07.18.2.08h9.52m9.53 0h19.06m9.53 0h19.07m9.53 0h19.07m9.53 0h19.07m9.54 0h9.53" stroke="#333" fill="none"/><path d="M1080.53 660.5v-1z" fill="#333"/><path d="M1397.74 660.54l-14.27 4.63v-9.27z" stroke="#333" fill="#333"/><use xlink:href="#x" transform="matrix(1,0,0,1,1181.8622935880765,664.5356457045503) translate(0 12.444444444444446)"/><use xlink:href="#y" transform="matrix(1,0,0,1,1181.8622935880765,664.5356457045503) translate(44.851851851851855 12.444444444444446)"/><use xlink:href="#z" transform="matrix(1,0,0,1,1181.8622935880765,664.5356457045503) translate(94.9320987654321 12.444444444444446)"/><path d="M1399.02 690.9l-662.95-2.26" stroke="#333" fill="none"/><path d="M1399.42 690.4l.2 1h-.62v-1z" fill="#333"/><path d="M721.3 688.6l14.3-4.6-.04 9.28z" stroke="#333" fill="#333"/><use xlink:href="#A" transform="matrix(1,0,0,1,790.196305831554,693.2263349760107) translate(0 12.444444444444446)"/><use xlink:href="#y" transform="matrix(1,0,0,1,790.196305831554,693.2263349760107) translate(33.70370370370371 12.444444444444446)"/><use xlink:href="#B" transform="matrix(1,0,0,1,790.196305831554,693.2263349760107) translate(83.78395061728395 12.444444444444446)"/><use xlink:href="#C" transform="matrix(1,0,0,1,790.196305831554,693.2263349760107) translate(108.80246913580247 12.444444444444446)"/><use xlink:href="#D" transform="matrix(1,0,0,1,790.196305831554,693.2263349760107) translate(139.0493827160494 12.444444444444446)"/><use xlink:href="#E" transform="matrix(1,0,0,1,790.196305831554,693.2263349760107) translate(189.99382716049382 12.444444444444446)"/><path d="M678.7 688c0-4.42 3.57-8 8-8h24c4.4 0 8 3.58 8 8v124c0 4.42-3.6 8-8 8h-24c-4.43 0-8-3.58-8-8z" stroke="#0c7cba" stroke-width="2" fill="#fff"/><path d="M773.48 766.75l-.88 3.73-1.05 3.1-1.2 2.7-1.34 2.4-1.5 2.16-1.7 2.02-1.9 1.9-2.24 1.8-2.6 1.77-3.13 1.7-3.86 1.65-4.9 1.58-6.5 1.44-4 .5-.13-1 3.95-.5 6.4-1.4 4.82-1.56 3.77-1.6 3.04-1.67 2.53-1.7 2.15-1.76 1.86-1.82 1.63-1.95 1.46-2.1 1.3-2.3 1.16-2.6 1-3.02.87-3.64.13-1h1zm-41.68-53l8.48 1.15 6.27 1.46 4.84 1.6 3.86 1.7 3.2 1.78 2.68 1.83 2.3 1.9 2 2 1.8 2.13 1.56 2.3 1.4 2.5 1.26 2.83 1.1 3.23.9 3.8h-1.03l-.84-3.53-1.07-3.14-1.22-2.74-1.35-2.43-1.52-2.22-1.72-2.05-1.93-1.93-2.23-1.85-2.6-1.78-3.12-1.73-3.8-1.66-4.75-1.58-6.17-1.43-8.4-1.16-11.53-.5.04-1z" fill="#333"/><path d="M720.22 713.25l-.04 1-.5-.03v-1zM736.4 799.35l-14.52-3.7 13.93-5.55z" fill="#333"/><path d="M736.95 800l-16.7-4.25 16.02-6.37zm-13.46-4.46l12.37 3.16-.5-7.88z" fill="#333"/><use xlink:href="#F" transform="matrix(1,0,0,1,737.9609094158006,743.9730259465393) translate(0 14.4)"/><use xlink:href="#G" transform="matrix(1,0,0,1,737.9609094158006,743.9730259465393) translate(47.95 14.4)"/><path d="M1038.52 866.8l-301.38-.5" stroke="#333" fill="none"/><path d="M1038.52 866.3v1-1z" fill="#333"/><path d="M722.38 866.28l14.27-4.6v9.26z" stroke="#333" fill="#333"/><use xlink:href="#H" transform="matrix(1,0,0,1,840.035328795801,843.8742987224078) translate(0 12.444444444444446)"/><use xlink:href="#I" transform="matrix(1,0,0,1,840.035328795801,843.8742987224078) translate(30.24691358024692 12.444444444444446)"/><path d="M720.96 913.57h10.57m10.57 0h21.14m10.57 0h21.14m10.57 0h21.15m10.57 0h21.14m10.56 0h10.57l.17-.07.07-.18.08-.18.17-.07h9.5m9.5 0h19.03m9.5 0h19.03m9.5 0h19.03m9.5 0h19.02m9.5 0h9.52" stroke="#333" fill="none"/><path d="M720.98 914.07h-.62l.2-1h.42z" fill="#333"/><path d="M1037.4 913.07l-14.26 4.63v-9.27z" stroke="#333" fill="#333"/><use xlink:href="#J" transform="matrix(1,0,0,1,853.8617431442428,890.4054613200989) translate(0 12.444444444444446)"/><use xlink:href="#K" transform="matrix(1,0,0,1,853.8617431442428,890.4054613200989) translate(32.7962962962963 12.444444444444446)"/><path d="M1132.23 977l-.8 3.24-.9 2.6-1 2.2-1.12 1.92-1.25 1.74-1.43 1.63-1.64 1.54-1.93 1.5-2.33 1.46-2.9 1.46-3.8 1.45-5.18 1.45-7.68 1.36-3.27.25-.1-.98 3.23-.26 7.6-1.34 5.08-1.42 3.7-1.43 2.82-1.4 2.25-1.43 1.86-1.43 1.57-1.47 1.36-1.55 1.2-1.67 1.08-1.84.97-2.1.88-2.5.77-3.15.1-.75h1.02zm-36.1-46.96l9.16 1.28 5.96 1.42 4.24 1.46 3.2 1.45 2.53 1.45 2.07 1.47 1.75 1.5 1.5 1.57 1.32 1.67 1.17 1.83 1.05 2.03.94 2.34.83 2.82.4 2.13h-1l-.37-1.9-.8-2.72-.92-2.25-1-1.95-1.12-1.73-1.26-1.6-1.44-1.5-1.67-1.44-2-1.4-2.46-1.42-3.1-1.4-4.16-1.43-5.88-1.4-9.06-1.26-15.54-.66.04-1z" fill="#333"/><path d="M1080.56 929.38l-.04.82v-.82zM1096.7 1004.97l-14.5-3.9 14-5.36z" fill="#333"/><path d="M1097.23 1005.63l-16.64-4.47 16.08-6.16zm-13.4-4.63l12.33 3.3-.4-7.88z" fill="#333"/><use xlink:href="#L" transform="matrix(1,0,0,1,1064.7645509853462,954.4457506419897) translate(0 14.4)"/><use xlink:href="#M" transform="matrix(1,0,0,1,1064.7645509853462,954.4457506419897) translate(73.95 14.4)"/><path d="M679.76 1028c0-4.42 3.58-8 8-8h24c4.42 0 8 3.58 8 8v47.42c0 4.42-3.58 8-8 8h-24c-4.42 0-8-3.58-8-8z" stroke="#0c7cba" stroke-width="2" fill="#fff"/><path d="M1038.02 1027.67l-300.88.65" stroke="#333" fill="none"/><path d="M1038.52 1028.17h-.5v-1h.5z" fill="#333"/><path d="M722.38 1028.35l14.25-4.66.02 9.26z" stroke="#333" fill="#333"/><use xlink:href="#N" transform="matrix(1,0,0,1,833.8727810341167,1005.344338989255) translate(0 12.444444444444446)"/><use xlink:href="#O" transform="matrix(1,0,0,1,833.8727810341167,1005.344338989255) translate(37.160493827160494 12.444444444444446)"/><path d="M678.26 1050.64h-272.7" stroke="#333" fill="none"/><path d="M678.76 1051.14h-.5v-1h.5z" fill="#333"/><path d="M422.85 1040.46l-17.22 10.18 17.22 10.18" stroke="#333" fill="none"/><use xlink:href="#P" transform="matrix(1,0,0,1,462.2639094031905,1027.9745489146921) translate(0 12.444444444444446)"/><use xlink:href="#D" transform="matrix(1,0,0,1,462.2639094031905,1027.9745489146921) translate(56.12962962962963 12.444444444444446)"/><use xlink:href="#Q" transform="matrix(1,0,0,1,462.2639094031905,1027.9745489146921) translate(107.07407407407408 12.444444444444446)"/><path d="M363.65 1046.5c0-4.42 3.58-8 8-8h24c4.42 0 8 3.58 8 8v67c0 4.42-3.58 8-8 8h-24c-4.42 0-8-3.58-8-8z" stroke="#0c7cba" stroke-width="2" fill="#fff"/><path d="M405.15 1106.1l10.66-.16m10.67-.18l21.33-.35m10.66-.16l21.32-.35m10.66-.2l21.33-.34m10.66-.17l10.66-.2" stroke="#333" fill="none"/><path d="M405.17 1106.6l-.52.02v-1h.5z" fill="#333"/><path d="M515.97 1114.48l17.05-10.46-17.38-9.9" stroke="#333" fill="none"/><path d="M451.82 1113h160v64.42h-160z" stroke="#000" stroke-opacity="0" fill="#fff" fill-opacity="0"/><use xlink:href="#R" transform="matrix(1,0,0,1,456.82484481310826,1118) translate(4.611111111111114 22.756944444444446)"/><use xlink:href="#D" transform="matrix(1,0,0,1,456.82484481310826,1118) translate(42.635802469135804 22.756944444444446)"/><use xlink:href="#S" transform="matrix(1,0,0,1,456.82484481310826,1118) translate(93.58024691358025 22.756944444444446)"/><use xlink:href="#T" transform="matrix(1,0,0,1,456.82484481310826,1118) translate(20.685185185185176 41.423611111111114)"/><use xlink:href="#U" transform="matrix(1,0,0,1,456.82484481310826,1118) translate(37.969135802469125 41.423611111111114)"/><use xlink:href="#E" transform="matrix(1,0,0,1,456.82484481310826,1118) translate(89.69135802469135 41.423611111111114)"/><path d="M1038.02 1156.48L737 1154.3" stroke="#333" fill="none"/><path d="M1038.52 1156v1l-.52-.02v-1z" fill="#333"/><path d="M722.23 1154.2l14.3-4.54-.06 9.27z" stroke="#333" fill="#333"/><use xlink:href="#V" transform="matrix(1,0,0,1,787.6519061618944,1132.690285289775) translate(0 12.444444444444446)"/><use xlink:href="#W" transform="matrix(1,0,0,1,787.6519061618944,1132.690285289775) translate(50.94444444444444 12.444444444444446)"/><use xlink:href="#X" transform="matrix(1,0,0,1,787.6519061618944,1132.690285289775) translate(107.07407407407408 12.444444444444446)"/><use xlink:href="#Y" transform="matrix(1,0,0,1,787.6519061618944,1132.690285289775) translate(161.47530864197532 12.444444444444446)"/><path d="M679.76 1155c0-4.42 3.58-8 8-8h24c4.42 0 8 3.58 8 8v47.42c0 4.42-3.58 8-8 8h-24c-4.42 0-8-3.58-8-8z" stroke="#0c7cba" stroke-width="2" fill="#fff"/><path d="M721.26 1199.15l659.02-.47" stroke="#333" fill="none"/><path d="M721.27 1199.65h-.5v-1h.5z" fill="#333"/><path d="M1395.05 1198.67l-14.26 4.64-.02-9.26z" stroke="#333" fill="#333"/><g><use xlink:href="#Z" transform="matrix(1,0,0,1,1150.10299305636,1202.7970492701513) translate(0 12.444444444444446)"/><use xlink:href="#aa" transform="matrix(1,0,0,1,1150.10299305636,1202.7970492701513) translate(54.40123456790124 12.444444444444446)"/><use xlink:href="#ab" transform="matrix(1,0,0,1,1150.10299305636,1202.7970492701513) translate(93.29012345679013 12.444444444444446)"/></g><path d="M1400.36 1188c0-4.42 3.58-8 8-8h24c4.4 0 8 3.58 8 8v84c0 4.42-3.6 8-8 8h-24c-4.42 0-8-3.58-8-8z" stroke="#0c7cba" stroke-width="2" fill="#fff"/><path d="M1441.86 1211.58l6.34.3 5.72.8 4.8 1.14 4.07 1.38 3.44 1.55 2.93 1.65 2.48 1.74 2.1 1.8 1.8 1.8 1.48 1.86 1.24 1.86 1 1.86.78 1.87.6 1.87.4 1.87.2 1.88.05 1.87-.13 1.87-.32 1.87-.5 1.88-.7 1.87-.9 1.86-1.1 1.86-1.37 1.86-1.64 1.83-1.95 1.82-2.32 1.76-2.7 1.7-3.2 1.6-3.76 1.47-3.15.9" stroke="#333" fill="none"/><path d="M1441.9 1211.08l-.05 1-.5-.02v-1z" fill="#333"/><path d="M1442.96 1264.63l13.6-6.33 1.12 9.2z" stroke="#333" fill="#333"/><g><use xlink:href="#ac" transform="matrix(1,0,0,1,1489.222201910787,1229.145293149184) translate(0 14.4)"/></g><path d="M1398.86 1267.56l-10.26-.02m-10.26-.02l-20.5-.04m-10.27-.02l-20.5-.04m-10.26-.02l-20.5-.04m-10.26-.02l-20.52-.04m-10.25-.02l-20.52-.04m-10.25-.02l-10.26-.02" stroke="#333" fill="none"/><path d="M1399.36 1267.06v1h-.52v-1z" fill="#333"/><path d="M1231.55 1257.06l-17.23 10.14 17.2 10.22" stroke="#333" fill="none"/><path d="M1118.3 1267.2h190.07v100H1118.3z" stroke="#000" stroke-opacity="0" fill="#fff" fill-opacity="0"/><g><use xlink:href="#R" transform="matrix(1,0,0,1,1123.2957142684097,1272.2007210563665) translate(5.462962962962948 38.03819444444444)"/><use xlink:href="#ad" transform="matrix(1,0,0,1,1123.2957142684097,1272.2007210563665) translate(43.48765432098764 38.03819444444444)"/><use xlink:href="#W" transform="matrix(1,0,0,1,1123.2957142684097,1272.2007210563665) translate(106.44444444444444 38.03819444444444)"/><use xlink:href="#ae" transform="matrix(1,0,0,1,1123.2957142684097,1272.2007210563665) translate(162.57407407407408 38.03819444444444)"/><use xlink:href="#af" transform="matrix(1,0,0,1,1123.2957142684097,1272.2007210563665) translate(72.39506172839506 56.704861111111114)"/></g><path d="M679.76 1388c0-4.42 3.58-8 8-8h24c4.42 0 8 3.58 8 8v224c0 4.42-3.58 8-8 8h-24c-4.42 0-8-3.58-8-8z" stroke="#0c7cba" stroke-width="2" fill="#fff"/><path d="M1038.52 1396H736.64" stroke="#333" fill="none"/><path d="M1038.52 1396.5v-1z" fill="#333"/><path d="M721.88 1396l14.26-4.64v9.28z" stroke="#333" fill="#333"/><g><use xlink:href="#H" transform="matrix(1,0,0,1,822.6256440256876,1373.3333333333335) translate(0 12.444444444444446)"/><use xlink:href="#ag" transform="matrix(1,0,0,1,822.6256440256876,1373.3333333333335) translate(30.24691358024692 12.444444444444446)"/><use xlink:href="#ah" transform="matrix(1,0,0,1,822.6256440256876,1373.3333333333335) translate(47.530864197530875 12.444444444444446)"/></g><path d="M720.76 1420.02l6.4.28 5.83.76 4.95 1.1 4.24 1.35 3.62 1.53 3.12 1.64 2.68 1.72 2.3 1.78 1.97 1.82 1.66 1.85 1.4 1.87 1.18 1.88.96 1.88.75 1.88.57 1.9.4 1.87.22 1.88.06 1.88-.1 1.87-.3 1.87-.43 1.87-.63 1.85-.8 1.86-1.02 1.87-1.22 1.84-1.47 1.84-1.73 1.8-2.03 1.8-2.37 1.72-2.77 1.67-3.22 1.58-3.75 1.45-4.24 1.22" stroke="#333" fill="none"/><path d="M720.8 1419.52l-.04.83v-.83z" fill="#333"/><path d="M722.37 1476.6l13.66-6.2 1.03 9.22z" stroke="#333" fill="#333"/><g><use xlink:href="#ai" transform="matrix(1,0,0,1,769.3280116556251,1430.3786872979683) translate(0 12.444444444444446)"/><use xlink:href="#aj" transform="matrix(1,0,0,1,769.3280116556251,1430.3786872979683) translate(67.27777777777779 12.444444444444446)"/><use xlink:href="#C" transform="matrix(1,0,0,1,769.3280116556251,1430.3786872979683) translate(100.9814814814815 12.444444444444446)"/><use xlink:href="#ak" transform="matrix(1,0,0,1,769.3280116556251,1430.3786872979683) translate(131.2283950617284 12.444444444444446)"/></g><path d="M721.26 1500.02l6.45.24 6 .7 5.17 1.02 4.48 1.25 3.9 1.42 3.42 1.56 2.98 1.65 2.6 1.72 2.27 1.77 1.97 1.8 1.7 1.83 1.5 1.85 1.25 1.86 1.07 1.86.88 1.87.72 1.9.55 1.86.4 1.87.24 1.88.1 1.88-.04 1.88-.2 1.87-.34 1.88-.5 1.88-.66 1.88-.83 1.87-1 1.87-1.2 1.86-1.4 1.85-1.63 1.84-1.9 1.82-2.16 1.78-2.5 1.73-2.83 1.68-3.25 1.6-3.73 1.46-4.28 1.32-3.4.76" stroke="#333" fill="none"/><path d="M721.3 1499.52l-.04 1-.5-.02v-1z" fill="#333"/><path d="M722.37 1564.04l13.74-6.02.92 9.22z" stroke="#333" fill="#333"/><g><use xlink:href="#al" transform="matrix(1,0,0,1,776.870839019504,1522.385701146988) translate(0 14.4)"/></g><path d="M678.76 1600l-276.85-.52" stroke="#333" fill="none"/><path d="M678.76 1599.5v1-1z" fill="#333"/><path d="M419.22 1589.33l-17.24 10.15 17.2 10.2" stroke="#333" fill="none"/><g><use xlink:href="#am" transform="matrix(1,0,0,1,465.54367677228305,1577.0720683232228) translate(0 12.444444444444446)"/><use xlink:href="#an" transform="matrix(1,0,0,1,465.54367677228305,1577.0720683232228) translate(44.851851851851855 12.444444444444446)"/><use xlink:href="#Y" transform="matrix(1,0,0,1,465.54367677228305,1577.0720683232228) translate(116.58024691358025 12.444444444444446)"/></g><path d="M360 1588c0-4.42 3.58-8 8-8h24c4.42 0 8 3.58 8 8v67c0 4.42-3.58 8-8 8h-24c-4.42 0-8-3.58-8-8z" stroke="#0c7cba" stroke-width="2" fill="#fff"/><path d="M659.76 1720h80v80h-80z" fill="none"/><path d="M667.76 1728l64 64m0-64l-64 64" stroke="#333" stroke-width="8" fill="none"/><defs><path fill="#333" d="M194-120c59 52 2 134-86 124-53-6-90-18-98-63l31-7c8 30 29 43 70 43 46 0 84-17 71-62-32-43-135-20-137-98-3-89 178-90 191-16l-30 9c-8-48-127-53-127 5 0 53 81 35 115 65" id="ao"/><path fill="#333" d="M248-111c6-24 9-61-24-58-72 9-57 108-77 169h-31l26-142c3-37-50-30-64-10C52-115 50-51 37 0H6l36-190h30c-1 10-6 24-4 32 13-43 101-52 105 5 13-22 29-41 61-41 90 0 28 129 23 194h-31" id="ap"/><path fill="#333" d="M165-48c-4 18 1 34 23 27l-3 20c-29 8-62 0-52-35h-2C116-14 99 4 63 4 30 4 8-16 8-49c0-68 71-67 138-67 10-26 0-56-31-54-26 1-42 9-47 31l-32-5c8-67 160-71 144 15-5 28-9 54-15 81zM42-50c3 52 80 24 89-6 7-12 7-24 11-38-47 1-103-4-100 44" id="aq"/><path fill="#333" d="M66-151c12-25 30-51 66-40l-6 26C45-176 58-65 38 0H6l36-190h30" id="ar"/><path fill="#333" d="M51-54c-9 22 5 41 31 30L79-1C43 14 10-4 19-52l22-115H19l5-23h22l19-43h21l-9 43h35l-4 23H73" id="as"/><g id="a"><use transform="matrix(0.06172839506172839,0,0,0.06172839506172839,0,0)" xlink:href="#ao"/><use transform="matrix(0.06172839506172839,0,0,0.06172839506172839,14.814814814814813,0)" xlink:href="#ap"/><use transform="matrix(0.06172839506172839,0,0,0.06172839506172839,33.2716049382716,0)" xlink:href="#aq"/><use transform="matrix(0.06172839506172839,0,0,0.06172839506172839,45.61728395061728,0)" xlink:href="#ar"/><use transform="matrix(0.06172839506172839,0,0,0.06172839506172839,52.962962962962955,0)" xlink:href="#as"/><path fill="#333" d="M-1.1 1.54H66.4v1.63H-1.1z"/></g><path fill="#333" d="M125-24c46 0 70-25 89-51l25 16C214-24 183 4 123 4 8 4-5-146 60-208c32-50 158-61 191-5 5 7 9 14 11 22l-32 10c-9-28-33-43-69-43-74 0-108 51-108 125 0 46 24 75 72 75" id="at"/><path fill="#333" d="M30-147c31-64 166-65 159 27C183-49 158 1 86 4 9 8 1-88 30-147zM88-20c53 0 68-48 68-100 0-31-11-51-44-50-52 1-68 46-68 97 0 32 13 53 44 53" id="au"/><path fill="#333" d="M67-158c22-48 132-52 116 29L158 0h-32l25-140c3-38-53-32-70-12C52-117 51-52 38 0H6l36-190h30" id="av"/><path fill="#333" d="M44-68c0 29 11 47 38 47 30 0 42-19 51-41l28 9C148-21 126 4 82 4 31 4 10-29 12-85c3-77 74-140 146-93 12 8 15 23 18 40l-31 5c-1-22-13-36-36-36-52 0-65 49-65 101" id="aw"/><g id="b"><use transform="matrix(0.06172839506172839,0,0,0.06172839506172839,0,0)" xlink:href="#at"/><use transform="matrix(0.06172839506172839,0,0,0.06172839506172839,15.987654320987653,0)" xlink:href="#au"/><use transform="matrix(0.06172839506172839,0,0,0.06172839506172839,28.333333333333332,0)" xlink:href="#av"/><use transform="matrix(0.06172839506172839,0,0,0.06172839506172839,40.67901234567901,0)" xlink:href="#as"/><use transform="matrix(0.06172839506172839,0,0,0.06172839506172839,46.851851851851855,0)" xlink:href="#ar"/><use transform="matrix(0.06172839506172839,0,0,0.06172839506172839,54.19753086419753,0)" xlink:href="#aq"/><use transform="matrix(0.06172839506172839,0,0,0.06172839506172839,66.54320987654322,0)" xlink:href="#aw"/><use transform="matrix(0.06172839506172839,0,0,0.06172839506172839,77.65432098765433,0)" xlink:href="#as"/><path fill="#333" d="M-1.1 1.54h86.04v1.63H-1.1z"/></g><path fill="#333" d="M119 0H84L31-248h34l41 218 126-218h36" id="ax"/><path fill="#333" d="M6 0l50-261h32L37 0H6" id="ay"/><path fill="#333" d="M50-231l6-30h32l-6 30H50zM6 0l37-190h31L37 0H6" id="az"/><path fill="#333" d="M133-28C103 26-5 8 13-77c13-62 24-115 90-117 29-1 46 15 56 35l19-102h32L160 0h-30zM45-64c-2 27 10 43 35 43 54-1 69-50 69-103 0-29-15-46-42-46-53-1-58 58-62 106" id="aA"/><g id="c"><use transform="matrix(0.06172839506172839,0,0,0.06172839506172839,0,0)" xlink:href="#ax"/><use transform="matrix(0.06172839506172839,0,0,0.06172839506172839,14.012345679012345,0)" xlink:href="#aq"/><use transform="matrix(0.06172839506172839,0,0,0.06172839506172839,26.358024691358025,0)" xlink:href="#ay"/><use transform="matrix(0.06172839506172839,0,0,0.06172839506172839,31.23456790123457,0)" xlink:href="#az"/><use transform="matrix(0.06172839506172839,0,0,0.06172839506172839,36.111111111111114,0)" xlink:href="#aA"/><use transform="matrix(0.06172839506172839,0,0,0.06172839506172839,48.45679012345679,0)" xlink:href="#aq"/><use transform="matrix(0.06172839506172839,0,0,0.06172839506172839,60.80246913580247,0)" xlink:href="#as"/><use transform="matrix(0.06172839506172839,0,0,0.06172839506172839,66.9753086419753,0)" xlink:href="#au"/><use transform="matrix(0.06172839506172839,0,0,0.06172839506172839,79.32098765432099,0)" xlink:href="#ar"/><path fill="#333" d="M-1.1 1.54h88.88v1.63h-88.9z"/></g><path fill="#333" d="M249-183c0 48-29 72-75 77L221 0h-36l-43-103H65L45 0H11l48-248c83 2 190-17 190 65zm-34 3c0-55-74-39-127-41l-18 92c63-1 145 13 145-51" id="aB"/><path fill="#333" d="M111-194c62-3 86 47 72 106H45c-7 38 6 69 45 68 27-1 43-14 53-32l24 11C152-15 129 4 87 4 38 3 12-23 12-71c0-70 32-119 99-123zm44 81c14-66-71-72-95-28-4 8-8 17-11 28h106" id="aC"/><path fill="#333" d="M198-190L69 30C53 58 25 83-20 72c4-11-1-27 19-22 33-1 43-29 59-52L20-190h32L79-34l84-156h35" id="aD"/><g id="d"><use transform="matrix(0.06172839506172839,0,0,0.06172839506172839,0,0)" xlink:href="#aB"/><use transform="matrix(0.06172839506172839,0,0,0.06172839506172839,15.987654320987653,0)" xlink:href="#aC"/><use transform="matrix(0.06172839506172839,0,0,0.06172839506172839,28.333333333333332,0)" xlink:href="#ay"/><use transform="matrix(0.06172839506172839,0,0,0.06172839506172839,33.20987654320987,0)" xlink:href="#aq"/><use transform="matrix(0.06172839506172839,0,0,0.06172839506172839,45.55555555555555,0)" xlink:href="#aD"/><use transform="matrix(0.06172839506172839,0,0,0.06172839506172839,56.66666666666666,0)" xlink:href="#aC"/><use transform="matrix(0.06172839506172839,0,0,0.06172839506172839,69.01234567901234,0)" xlink:href="#ar"/><path fill="#333" d="M-1.1 1.54h78.57v1.63H-1.1z"/></g><g id="e"><use transform="matrix(0.04320987654320988,0,0,0.04320987654320988,0,0)" xlink:href="#at"/><use transform="matrix(0.04320987654320988,0,0,0.04320987654320988,11.19135802469136,0)" xlink:href="#ay"/><use transform="matrix(0.04320987654320988,0,0,0.04320987654320988,14.60493827160494,0)" xlink:href="#az"/><use transform="matrix(0.04320987654320988,0,0,0.04320987654320988,18.01851851851852,0)" xlink:href="#aC"/><use transform="matrix(0.04320987654320988,0,0,0.04320987654320988,26.66049382716049,0)" xlink:href="#av"/><use transform="matrix(0.04320987654320988,0,0,0.04320987654320988,35.30246913580247,0)" xlink:href="#as"/></g><path fill="#333" d="M124 0L87-78 21 0h-35l86-98-46-92h33l34 74 61-74h37l-83 92 50 98h-34" id="aE"/><path fill="#333" d="M67-158c15-20 31-36 64-36 94 0 33 127 27 194h-32l25-140c3-38-53-32-70-12C52-117 51-51 37 0H6l51-261h31" id="aF"/><path fill="#333" d="M103-194c29 0 47 14 56 36 2-11 5-23 8-32h30L160-5C157 61 82 97 21 62 9 55 4 45 1 30l28-7c7 42 83 31 92-3 4-16 9-38 13-55-13 20-29 36-62 36-40 0-60-25-60-64 0-71 23-131 91-131zm4 24c-53 0-58 54-61 104-2 27 10 44 36 44 49 0 65-50 67-102 1-29-15-46-42-46" id="aG"/><g id="f"><use transform="matrix(0.04320987654320988,0,0,0.04320987654320988,0,0)" xlink:href="#aC"/><use transform="matrix(0.04320987654320988,0,0,0.04320987654320988,8.641975308641976,0)" xlink:href="#aE"/><use transform="matrix(0.04320987654320988,0,0,0.04320987654320988,16.419753086419753,0)" xlink:href="#aw"/><use transform="matrix(0.04320987654320988,0,0,0.04320987654320988,24.19753086419753,0)" xlink:href="#aF"/><use transform="matrix(0.04320987654320988,0,0,0.04320987654320988,32.839506172839506,0)" xlink:href="#aq"/><use transform="matrix(0.04320987654320988,0,0,0.04320987654320988,41.48148148148148,0)" xlink:href="#av"/><use transform="matrix(0.04320987654320988,0,0,0.04320987654320988,50.123456790123456,0)" xlink:href="#aG"/><use transform="matrix(0.04320987654320988,0,0,0.04320987654320988,58.76543209876543,0)" xlink:href="#aC"/></g><path fill="#333" d="M133-28C103 26-5 8 13-77c13-62 24-115 90-117 29-1 46 15 56 35 2-12 6-24 8-34h31L144 75h-31zM45-64c-2 27 10 43 35 43 54-1 69-50 69-103 0-29-15-46-42-46-53-1-58 58-62 106" id="aH"/><path fill="#333" d="M67 3c-93-2-31-127-26-193h32L48-50c-3 39 53 32 70 12 30-34 30-101 43-152h32L157 0h-30c1-10 6-24 4-33-14 20-29 37-64 36" id="aI"/><path fill="#333" d="M55-144c13 50 104 24 104 88C159 21 15 23 1-39l26-10c6 40 102 42 102-4-13-50-104-23-104-87 0-71 143-71 148-8l-29 4c-5-35-85-37-89 0" id="aJ"/><g id="g"><use transform="matrix(0.04320987654320988,0,0,0.04320987654320988,0,0)" xlink:href="#ar"/><use transform="matrix(0.04320987654320988,0,0,0.04320987654320988,5.1419753086419755,0)" xlink:href="#aC"/><use transform="matrix(0.04320987654320988,0,0,0.04320987654320988,13.783950617283953,0)" xlink:href="#aH"/><use transform="matrix(0.04320987654320988,0,0,0.04320987654320988,22.425925925925934,0)" xlink:href="#aI"/><use transform="matrix(0.04320987654320988,0,0,0.04320987654320988,31.067901234567906,0)" xlink:href="#aC"/><use transform="matrix(0.04320987654320988,0,0,0.04320987654320988,39.70987654320988,0)" xlink:href="#aJ"/><use transform="matrix(0.04320987654320988,0,0,0.04320987654320988,47.48765432098766,0)" xlink:href="#as"/></g><path fill="#333" d="M135-194c53 0 70 44 70 98 0 56-19 98-73 100-31 1-45-17-59-34 3 33 2 69 2 105H25l-1-265h48c2 10 0 23 3 31 11-24 29-35 60-35zM114-30c33 0 39-31 40-66 0-38-9-64-40-64-56 0-55 130 0 130" id="aK"/><path fill="#333" d="M133-34C117-15 103 5 69 4 32 3 11-16 11-54c-1-60 55-63 116-61 1-26-3-47-28-47-18 1-26 9-28 27l-52-2c7-38 36-58 82-57s74 22 75 68l1 82c-1 14 12 18 25 15v27c-30 8-71 5-69-32zm-48 3c29 0 43-24 42-57-32 0-66-3-65 30 0 17 8 27 23 27" id="aL"/><path fill="#333" d="M135-150c-39-12-60 13-60 57V0H25l-1-190h47c2 13-1 29 3 40 6-28 27-53 61-41v41" id="aM"/><path fill="#333" d="M220-157c-53 9-28 100-34 157h-49v-107c1-27-5-49-29-50C55-147 81-57 75 0H25l-1-190h47c2 12-1 28 3 38 10-53 101-56 108 0 13-22 24-43 59-42 82 1 51 116 57 194h-49v-107c-1-25-5-48-29-50" id="aN"/><path fill="#333" d="M137-138c1-29-70-34-71-4 15 46 118 7 119 86 1 83-164 76-172 9l43-7c4 19 20 25 44 25 33 8 57-30 24-41C81-84 22-81 20-136c-2-80 154-74 161-7" id="aO"/><g id="h"><use transform="matrix(0.05,0,0,0.05,0,0)" xlink:href="#aK"/><use transform="matrix(0.05,0,0,0.05,10.950000000000001,0)" xlink:href="#aL"/><use transform="matrix(0.05,0,0,0.05,20.950000000000003,0)" xlink:href="#aM"/><use transform="matrix(0.05,0,0,0.05,27.950000000000003,0)" xlink:href="#aL"/><use transform="matrix(0.05,0,0,0.05,37.95,0)" xlink:href="#aN"/><use transform="matrix(0.05,0,0,0.05,53.95,0)" xlink:href="#aO"/></g><path fill="#333" d="M101-234c-31-9-42 10-38 44h38v23H63V0H32v-167H5v-23h27c-7-52 17-82 69-68v24" id="aP"/><path fill="#333" d="M114-163C36-179 61-72 57 0H25l-1-190h30c1 12-1 29 2 39 6-27 23-49 58-41v29" id="aQ"/><path fill="#333" d="M100-194c62-1 85 37 85 99 1 63-27 99-86 99S16-35 15-95c0-66 28-99 85-99zM99-20c44 1 53-31 53-75 0-43-8-75-51-75s-53 32-53 75 10 74 51 75" id="aR"/><path fill="#333" d="M210-169c-67 3-38 105-44 169h-31v-121c0-29-5-50-35-48C34-165 62-65 56 0H25l-1-190h30c1 10-1 24 2 32 10-44 99-50 107 0 11-21 27-35 58-36 85-2 47 119 55 194h-31v-121c0-29-5-49-35-48" id="aS"/><g id="j"><use transform="matrix(0.05,0,0,0.05,0,0)" xlink:href="#aP"/><use transform="matrix(0.05,0,0,0.05,5,0)" xlink:href="#aQ"/><use transform="matrix(0.05,0,0,0.05,10.95,0)" xlink:href="#aR"/><use transform="matrix(0.05,0,0,0.05,20.95,0)" xlink:href="#aS"/></g><path fill="#333" d="M96-169c-40 0-48 33-48 73s9 75 48 75c24 0 41-14 43-38l32 2c-6 37-31 61-74 61-59 0-76-41-82-99-10-93 101-131 147-64 4 7 5 14 7 22l-32 3c-4-21-16-35-41-35" id="aT"/><path fill="#333" d="M84 4C-5 8 30-112 23-190h32v120c0 31 7 50 39 49 72-2 45-101 50-169h31l1 190h-30c-1-10 1-25-2-33-11 22-28 36-60 37" id="aU"/><path fill="#333" d="M100-194c63 0 86 42 84 106H49c0 40 14 67 53 68 26 1 43-12 49-29l28 8c-11 28-37 45-77 45C44 4 14-33 15-96c1-61 26-98 85-98zm52 81c6-60-76-77-97-28-3 7-6 17-6 28h103" id="aV"/><path fill="#333" d="M117-194c89-4 53 116 60 194h-32v-121c0-31-8-49-39-48C34-167 62-67 57 0H25l-1-190h30c1 10-1 24 2 32 11-22 29-35 61-36" id="aW"/><path fill="#333" d="M179-190L93 31C79 59 56 82 12 73V49c39 6 53-20 64-50L1-190h34L92-34l54-156h33" id="aX"/><g id="k"><use transform="matrix(0.05,0,0,0.05,0,0)" xlink:href="#aT"/><use transform="matrix(0.05,0,0,0.05,9,0)" xlink:href="#aU"/><use transform="matrix(0.05,0,0,0.05,19,0)" xlink:href="#aQ"/><use transform="matrix(0.05,0,0,0.05,24.95,0)" xlink:href="#aQ"/><use transform="matrix(0.05,0,0,0.05,30.899999999999995,0)" xlink:href="#aV"/><use transform="matrix(0.05,0,0,0.05,40.9,0)" xlink:href="#aW"/><use transform="matrix(0.05,0,0,0.05,50.9,0)" xlink:href="#aT"/><use transform="matrix(0.05,0,0,0.05,59.900000000000006,0)" xlink:href="#aX"/></g><path fill="#333" d="M59-47c-2 24 18 29 38 22v24C64 9 27 4 27-40v-127H5v-23h24l9-43h21v43h35v23H59v120" id="aY"/><g id="l"><use transform="matrix(0.05,0,0,0.05,0,0)" xlink:href="#aY"/><use transform="matrix(0.05,0,0,0.05,5,0)" xlink:href="#aR"/></g><path fill="#333" d="M145-31C134-9 116 4 85 4 32 4 16-35 15-94c0-59 17-99 70-100 32-1 48 14 60 33 0-11-1-24 2-32h30l-1 268h-32zM93-21c41 0 51-33 51-76s-8-73-50-73c-40 0-46 35-46 75s5 74 45 74" id="aZ"/><path fill="#333" d="M141-36C126-15 110 5 73 4 37 3 15-17 15-53c-1-64 63-63 125-63 3-35-9-54-41-54-24 1-41 7-42 31l-33-3c5-37 33-52 76-52 45 0 72 20 72 64v82c-1 20 7 32 28 27v20c-31 9-61-2-59-35zM48-53c0 20 12 33 32 33 41-3 63-29 60-74-43 2-92-5-92 41" id="ba"/><path fill="#333" d="M24-231v-30h32v30H24zM24 0v-190h32V0H24" id="bb"/><g id="m"><use transform="matrix(0.05,0,0,0.05,0,0)" xlink:href="#aZ"/><use transform="matrix(0.05,0,0,0.05,10,0)" xlink:href="#aU"/><use transform="matrix(0.05,0,0,0.05,20,0)" xlink:href="#ba"/><use transform="matrix(0.05,0,0,0.05,30,0)" xlink:href="#aW"/><use transform="matrix(0.05,0,0,0.05,40,0)" xlink:href="#aY"/><use transform="matrix(0.05,0,0,0.05,45,0)" xlink:href="#bb"/><use transform="matrix(0.05,0,0,0.05,48.95,0)" xlink:href="#aY"/><use transform="matrix(0.05,0,0,0.05,53.95,0)" xlink:href="#aX"/></g><path fill="#333" d="M85-194c31 0 48 13 60 33l-1-100h32l1 261h-30c-2-10 0-23-3-31C134-8 116 4 85 4 32 4 16-35 15-94c0-66 23-100 70-100zm9 24c-40 0-46 34-46 75 0 40 6 74 45 74 42 0 51-32 51-76 0-42-9-74-50-73" id="bc"/><path fill="#333" d="M135-143c-3-34-86-38-87 0 15 53 115 12 119 90S17 21 10-45l28-5c4 36 97 45 98 0-10-56-113-15-118-90-4-57 82-63 122-42 12 7 21 19 24 35" id="bd"/><g id="n"><use transform="matrix(0.05,0,0,0.05,0,0)" xlink:href="#bc"/><use transform="matrix(0.05,0,0,0.05,10,0)" xlink:href="#bd"/><use transform="matrix(0.05,0,0,0.05,19,0)" xlink:href="#aY"/></g><path fill="#333" d="M206 0h-36l-40-164L89 0H53L-1-190h32L70-26l43-164h34l41 164 42-164h31" id="be"/><path fill="#333" d="M24 0v-261h32V0H24" id="bf"/><g id="o"><use transform="matrix(0.05,0,0,0.05,0,0)" xlink:href="#be"/><use transform="matrix(0.05,0,0,0.05,12.950000000000001,0)" xlink:href="#ba"/><use transform="matrix(0.05,0,0,0.05,22.950000000000003,0)" xlink:href="#bf"/><use transform="matrix(0.05,0,0,0.05,26.900000000000002,0)" xlink:href="#bf"/><use transform="matrix(0.05,0,0,0.05,30.85,0)" xlink:href="#aV"/><use transform="matrix(0.05,0,0,0.05,40.85,0)" xlink:href="#aY"/></g><g id="p"><use transform="matrix(0.05,0,0,0.05,0,0)" xlink:href="#bb"/><use transform="matrix(0.05,0,0,0.05,3.95,0)" xlink:href="#bc"/></g><g id="q"><use transform="matrix(0.05,0,0,0.05,0,0)" xlink:href="#aT"/><use transform="matrix(0.05,0,0,0.05,9,0)" xlink:href="#aQ"/><use transform="matrix(0.05,0,0,0.05,14.949999999999998,0)" xlink:href="#aV"/><use transform="matrix(0.05,0,0,0.05,24.95,0)" xlink:href="#ba"/><use transform="matrix(0.05,0,0,0.05,34.95,0)" xlink:href="#aY"/><use transform="matrix(0.05,0,0,0.05,39.95,0)" xlink:href="#aV"/></g><g id="r"><use transform="matrix(0.05,0,0,0.05,0,0)" xlink:href="#ba"/><use transform="matrix(0.05,0,0,0.05,10,0)" xlink:href="#aW"/><use transform="matrix(0.05,0,0,0.05,20,0)" xlink:href="#aW"/><use transform="matrix(0.05,0,0,0.05,30,0)" xlink:href="#aR"/><use transform="matrix(0.05,0,0,0.05,40,0)" xlink:href="#aU"/><use transform="matrix(0.05,0,0,0.05,50,0)" xlink:href="#aW"/><use transform="matrix(0.05,0,0,0.05,60,0)" xlink:href="#aT"/><use transform="matrix(0.05,0,0,0.05,69,0)" xlink:href="#aV"/></g><path fill="#333" d="M188 0h-37l-8-164L71 0H34L18-190h31l8 164 75-164h34l8 164 74-164h31" id="bg"/><g id="s"><use transform="matrix(0.04320987654320988,0,0,0.04320987654320988,0,0)" xlink:href="#av"/><use transform="matrix(0.04320987654320988,0,0,0.04320987654320988,8.641975308641976,0)" xlink:href="#aC"/><use transform="matrix(0.04320987654320988,0,0,0.04320987654320988,17.283950617283953,0)" xlink:href="#bg"/></g><g id="t"><use transform="matrix(0.04320987654320988,0,0,0.04320987654320988,0,0)" xlink:href="#aq"/><use transform="matrix(0.04320987654320988,0,0,0.04320987654320988,8.641975308641976,0)" xlink:href="#av"/><use transform="matrix(0.04320987654320988,0,0,0.04320987654320988,17.283950617283953,0)" xlink:href="#av"/><use transform="matrix(0.04320987654320988,0,0,0.04320987654320988,25.925925925925927,0)" xlink:href="#au"/><use transform="matrix(0.04320987654320988,0,0,0.04320987654320988,34.567901234567906,0)" xlink:href="#aI"/><use transform="matrix(0.04320987654320988,0,0,0.04320987654320988,43.20987654320988,0)" xlink:href="#av"/><use transform="matrix(0.04320987654320988,0,0,0.04320987654320988,51.851851851851855,0)" xlink:href="#aw"/><use transform="matrix(0.04320987654320988,0,0,0.04320987654320988,59.62962962962963,0)" xlink:href="#aC"/></g><path fill="#333" d="M89 0H52L20-190h33L74-25l89-165h34" id="bh"/><g id="u"><use transform="matrix(0.04320987654320988,0,0,0.04320987654320988,0,0)" xlink:href="#aC"/><use transform="matrix(0.04320987654320988,0,0,0.04320987654320988,8.641975308641976,0)" xlink:href="#bh"/><use transform="matrix(0.04320987654320988,0,0,0.04320987654320988,16.419753086419753,0)" xlink:href="#aC"/><use transform="matrix(0.04320987654320988,0,0,0.04320987654320988,25.061728395061728,0)" xlink:href="#av"/><use transform="matrix(0.04320987654320988,0,0,0.04320987654320988,33.7037037037037,0)" xlink:href="#as"/></g><path fill="#333" d="M68-162c25-46 127-43 121 31C183-60 169 1 98 4 69 5 53-11 43-31L36 0H5l52-261h31zm88 36c2-27-9-43-34-43-55 0-70 51-70 103 0 29 15 45 43 46 52 0 58-58 61-106" id="bi"/><g id="v"><use transform="matrix(0.04320987654320988,0,0,0.04320987654320988,0,0)" xlink:href="#aJ"/><use transform="matrix(0.04320987654320988,0,0,0.04320987654320988,7.777777777777779,0)" xlink:href="#aI"/><use transform="matrix(0.04320987654320988,0,0,0.04320987654320988,16.419753086419753,0)" xlink:href="#bi"/><use transform="matrix(0.04320987654320988,0,0,0.04320987654320988,25.061728395061728,0)" xlink:href="#aJ"/><use transform="matrix(0.04320987654320988,0,0,0.04320987654320988,32.839506172839506,0)" xlink:href="#aw"/><use transform="matrix(0.04320987654320988,0,0,0.04320987654320988,40.617283950617285,0)" xlink:href="#ar"/><use transform="matrix(0.04320987654320988,0,0,0.04320987654320988,45.75925925925927,0)" xlink:href="#az"/><use transform="matrix(0.04320987654320988,0,0,0.04320987654320988,49.17283950617284,0)" xlink:href="#bi"/><use transform="matrix(0.04320987654320988,0,0,0.04320987654320988,57.814814814814824,0)" xlink:href="#aC"/></g><g id="w"><use transform="matrix(0.04320987654320988,0,0,0.04320987654320988,0,0)" xlink:href="#bi"/><use transform="matrix(0.04320987654320988,0,0,0.04320987654320988,8.641975308641976,0)" xlink:href="#az"/><use transform="matrix(0.04320987654320988,0,0,0.04320987654320988,12.055555555555557,0)" xlink:href="#aA"/></g><g id="x"><use transform="matrix(0.04320987654320988,0,0,0.04320987654320988,0,0)" xlink:href="#aQ"/><use transform="matrix(0.04320987654320988,0,0,0.04320987654320988,5.1419753086419755,0)" xlink:href="#aV"/><use transform="matrix(0.04320987654320988,0,0,0.04320987654320988,13.783950617283953,0)" xlink:href="#aY"/><use transform="matrix(0.04320987654320988,0,0,0.04320987654320988,18.10493827160494,0)" xlink:href="#aU"/><use transform="matrix(0.04320987654320988,0,0,0.04320987654320988,26.746913580246915,0)" xlink:href="#aQ"/><use transform="matrix(0.04320987654320988,0,0,0.04320987654320988,31.888888888888893,0)" xlink:href="#aW"/></g><g id="y"><use transform="matrix(0.04320987654320988,0,0,0.04320987654320988,0,0)" xlink:href="#bd"/><use transform="matrix(0.04320987654320988,0,0,0.04320987654320988,7.777777777777779,0)" xlink:href="#aV"/><use transform="matrix(0.04320987654320988,0,0,0.04320987654320988,16.419753086419753,0)" xlink:href="#ba"/><use transform="matrix(0.04320987654320988,0,0,0.04320987654320988,25.061728395061728,0)" xlink:href="#bf"/><use transform="matrix(0.04320987654320988,0,0,0.04320987654320988,28.47530864197531,0)" xlink:href="#aV"/><use transform="matrix(0.04320987654320988,0,0,0.04320987654320988,37.117283950617285,0)" xlink:href="#bc"/></g><path fill="#333" d="M115-194c53 0 69 39 70 98 0 66-23 100-70 100C84 3 66-7 56-30L54 0H23l1-261h32v101c10-23 28-34 59-34zm-8 174c40 0 45-34 45-75 0-40-5-75-45-74-42 0-51 32-51 76 0 43 10 73 51 73" id="bj"/><g id="z"><use transform="matrix(0.04320987654320988,0,0,0.04320987654320988,0,0)" xlink:href="#bj"/><use transform="matrix(0.04320987654320988,0,0,0.04320987654320988,8.641975308641976,0)" xlink:href="#bb"/><use transform="matrix(0.04320987654320988,0,0,0.04320987654320988,12.055555555555557,0)" xlink:href="#bc"/></g><path fill="#333" d="M115-194c55 1 70 41 70 98S169 2 115 4C84 4 66-9 55-30l1 105H24l-1-265h31l2 30c10-21 28-34 59-34zm-8 174c40 0 45-34 45-75s-6-73-45-74c-42 0-51 32-51 76 0 43 10 73 51 73" id="bk"/><g id="A"><use transform="matrix(0.04320987654320988,0,0,0.04320987654320988,0,0)" xlink:href="#bk"/><use transform="matrix(0.04320987654320988,0,0,0.04320987654320988,8.641975308641976,0)" xlink:href="#aR"/><use transform="matrix(0.04320987654320988,0,0,0.04320987654320988,17.283950617283953,0)" xlink:href="#bd"/><use transform="matrix(0.04320987654320988,0,0,0.04320987654320988,25.06172839506173,0)" xlink:href="#aY"/></g><g id="B"><use transform="matrix(0.04320987654320988,0,0,0.04320987654320988,0,0)" xlink:href="#bj"/><use transform="matrix(0.04320987654320988,0,0,0.04320987654320988,8.641975308641976,0)" xlink:href="#bb"/><use transform="matrix(0.04320987654320988,0,0,0.04320987654320988,12.055555555555557,0)" xlink:href="#bc"/></g><g id="C"><use transform="matrix(0.04320987654320988,0,0,0.04320987654320988,0,0)" xlink:href="#ba"/><use transform="matrix(0.04320987654320988,0,0,0.04320987654320988,8.641975308641976,0)" xlink:href="#aW"/><use transform="matrix(0.04320987654320988,0,0,0.04320987654320988,17.283950617283953,0)" xlink:href="#bc"/></g><g id="D"><use transform="matrix(0.04320987654320988,0,0,0.04320987654320988,0,0)" xlink:href="#bd"/><use transform="matrix(0.04320987654320988,0,0,0.04320987654320988,7.777777777777779,0)" xlink:href="#aR"/><use transform="matrix(0.04320987654320988,0,0,0.04320987654320988,16.419753086419753,0)" xlink:href="#aU"/><use transform="matrix(0.04320987654320988,0,0,0.04320987654320988,25.061728395061728,0)" xlink:href="#aQ"/><use transform="matrix(0.04320987654320988,0,0,0.04320987654320988,30.203703703703702,0)" xlink:href="#aT"/><use transform="matrix(0.04320987654320988,0,0,0.04320987654320988,37.98148148148148,0)" xlink:href="#aV"/></g><g id="E"><use transform="matrix(0.04320987654320988,0,0,0.04320987654320988,0,0)" xlink:href="#be"/><use transform="matrix(0.04320987654320988,0,0,0.04320987654320988,11.19135802469136,0)" xlink:href="#ba"/><use transform="matrix(0.04320987654320988,0,0,0.04320987654320988,19.833333333333336,0)" xlink:href="#bf"/><use transform="matrix(0.04320987654320988,0,0,0.04320987654320988,23.246913580246915,0)" xlink:href="#bf"/><use transform="matrix(0.04320987654320988,0,0,0.04320987654320988,26.6604938271605,0)" xlink:href="#aV"/><use transform="matrix(0.04320987654320988,0,0,0.04320987654320988,35.302469135802475,0)" xlink:href="#aY"/></g><g id="F"><use transform="matrix(0.05,0,0,0.05,0,0)" xlink:href="#bk"/><use transform="matrix(0.05,0,0,0.05,10,0)" xlink:href="#bf"/><use transform="matrix(0.05,0,0,0.05,13.949999999999998,0)" xlink:href="#ba"/><use transform="matrix(0.05,0,0,0.05,23.95,0)" xlink:href="#aT"/><use transform="matrix(0.05,0,0,0.05,32.95,0)" xlink:href="#aV"/></g><g id="G"><use transform="matrix(0.05,0,0,0.05,0,0)" xlink:href="#bj"/><use transform="matrix(0.05,0,0,0.05,10,0)" xlink:href="#bb"/><use transform="matrix(0.05,0,0,0.05,13.949999999999998,0)" xlink:href="#bc"/></g><g id="H"><use transform="matrix(0.04320987654320988,0,0,0.04320987654320988,0,0)" xlink:href="#aV"/><use transform="matrix(0.04320987654320988,0,0,0.04320987654320988,8.641975308641976,0)" xlink:href="#aW"/><use transform="matrix(0.04320987654320988,0,0,0.04320987654320988,17.283950617283953,0)" xlink:href="#bc"/></g><path fill="#333" d="M177-190C167-65 218 103 67 71c-23-6-38-20-44-43l32-5c15 47 100 32 89-28v-30C133-14 115 1 83 1 29 1 15-40 15-95c0-56 16-97 71-98 29-1 48 16 59 35 1-10 0-23 2-32h30zM94-22c36 0 50-32 50-73 0-42-14-75-50-75-39 0-46 34-46 75s6 73 46 73" id="bl"/><g id="I"><use transform="matrix(0.04320987654320988,0,0,0.04320987654320988,0,0)" xlink:href="#bj"/><use transform="matrix(0.04320987654320988,0,0,0.04320987654320988,8.641975308641976,0)" xlink:href="#bb"/><use transform="matrix(0.04320987654320988,0,0,0.04320987654320988,12.055555555555557,0)" xlink:href="#bc"/><use transform="matrix(0.04320987654320988,0,0,0.04320987654320988,20.69753086419753,0)" xlink:href="#bc"/><use transform="matrix(0.04320987654320988,0,0,0.04320987654320988,29.339506172839503,0)" xlink:href="#bb"/><use transform="matrix(0.04320987654320988,0,0,0.04320987654320988,32.75308641975309,0)" xlink:href="#aW"/><use transform="matrix(0.04320987654320988,0,0,0.04320987654320988,41.39506172839506,0)" xlink:href="#bl"/></g><g id="J"><use transform="matrix(0.04320987654320988,0,0,0.04320987654320988,0,0)" xlink:href="#bj"/><use transform="matrix(0.04320987654320988,0,0,0.04320987654320988,8.641975308641976,0)" xlink:href="#bb"/><use transform="matrix(0.04320987654320988,0,0,0.04320987654320988,12.055555555555557,0)" xlink:href="#bc"/><use transform="matrix(0.04320987654320988,0,0,0.04320987654320988,20.69753086419753,0)" xlink:href="#bd"/></g><g id="K"><use transform="matrix(0.04320987654320988,0,0,0.04320987654320988,0,0)" xlink:href="#bf"/><use transform="matrix(0.04320987654320988,0,0,0.04320987654320988,3.4135802469135808,0)" xlink:href="#bb"/><use transform="matrix(0.04320987654320988,0,0,0.04320987654320988,6.8271604938271615,0)" xlink:href="#bd"/><use transform="matrix(0.04320987654320988,0,0,0.04320987654320988,14.60493827160494,0)" xlink:href="#aY"/></g><g id="L"><use transform="matrix(0.05,0,0,0.05,0,0)" xlink:href="#aT"/><use transform="matrix(0.05,0,0,0.05,9,0)" xlink:href="#aR"/><use transform="matrix(0.05,0,0,0.05,19,0)" xlink:href="#aS"/><use transform="matrix(0.05,0,0,0.05,33.95,0)" xlink:href="#bk"/><use transform="matrix(0.05,0,0,0.05,43.95,0)" xlink:href="#aU"/><use transform="matrix(0.05,0,0,0.05,53.95,0)" xlink:href="#aY"/><use transform="matrix(0.05,0,0,0.05,58.95,0)" xlink:href="#aV"/></g><g id="M"><use transform="matrix(0.05,0,0,0.05,0,0)" xlink:href="#be"/><use transform="matrix(0.05,0,0,0.05,12.950000000000001,0)" xlink:href="#bb"/><use transform="matrix(0.05,0,0,0.05,16.900000000000002,0)" xlink:href="#aW"/><use transform="matrix(0.05,0,0,0.05,26.900000000000002,0)" xlink:href="#aW"/><use transform="matrix(0.05,0,0,0.05,36.900000000000006,0)" xlink:href="#aV"/><use transform="matrix(0.05,0,0,0.05,46.900000000000006,0)" xlink:href="#aQ"/><use transform="matrix(0.05,0,0,0.05,52.85,0)" xlink:href="#bd"/></g><path fill="#333" d="M141 0L90-78 38 0H4l68-98-65-92h35l48 74 47-74h35l-64 92 68 98h-35" id="bm"/><g id="N"><use transform="matrix(0.04320987654320988,0,0,0.04320987654320988,0,0)" xlink:href="#aV"/><use transform="matrix(0.04320987654320988,0,0,0.04320987654320988,8.641975308641976,0)" xlink:href="#bm"/><use transform="matrix(0.04320987654320988,0,0,0.04320987654320988,16.419753086419753,0)" xlink:href="#aV"/><use transform="matrix(0.04320987654320988,0,0,0.04320987654320988,25.061728395061728,0)" xlink:href="#aT"/></g><g id="O"><use transform="matrix(0.04320987654320988,0,0,0.04320987654320988,0,0)" xlink:href="#be"/><use transform="matrix(0.04320987654320988,0,0,0.04320987654320988,11.19135802469136,0)" xlink:href="#bb"/><use transform="matrix(0.04320987654320988,0,0,0.04320987654320988,14.60493827160494,0)" xlink:href="#aW"/><use transform="matrix(0.04320987654320988,0,0,0.04320987654320988,23.246913580246915,0)" xlink:href="#aW"/><use transform="matrix(0.04320987654320988,0,0,0.04320987654320988,31.888888888888893,0)" xlink:href="#aV"/><use transform="matrix(0.04320987654320988,0,0,0.04320987654320988,40.53086419753087,0)" xlink:href="#aQ"/><use transform="matrix(0.04320987654320988,0,0,0.04320987654320988,45.67283950617284,0)" xlink:href="#bd"/></g><g id="P"><use transform="matrix(0.04320987654320988,0,0,0.04320987654320988,0,0)" xlink:href="#aQ"/><use transform="matrix(0.04320987654320988,0,0,0.04320987654320988,5.1419753086419755,0)" xlink:href="#aV"/><use transform="matrix(0.04320987654320988,0,0,0.04320987654320988,13.783950617283953,0)" xlink:href="#aZ"/><use transform="matrix(0.04320987654320988,0,0,0.04320987654320988,22.425925925925934,0)" xlink:href="#aU"/><use transform="matrix(0.04320987654320988,0,0,0.04320987654320988,31.067901234567906,0)" xlink:href="#aV"/><use transform="matrix(0.04320987654320988,0,0,0.04320987654320988,39.70987654320988,0)" xlink:href="#bd"/><use transform="matrix(0.04320987654320988,0,0,0.04320987654320988,47.48765432098766,0)" xlink:href="#aY"/></g><g id="Q"><use transform="matrix(0.04320987654320988,0,0,0.04320987654320988,0,0)" xlink:href="#ba"/><use transform="matrix(0.04320987654320988,0,0,0.04320987654320988,8.641975308641976,0)" xlink:href="#aS"/><use transform="matrix(0.04320987654320988,0,0,0.04320987654320988,21.56172839506173,0)" xlink:href="#aR"/><use transform="matrix(0.04320987654320988,0,0,0.04320987654320988,30.203703703703713,0)" xlink:href="#aU"/><use transform="matrix(0.04320987654320988,0,0,0.04320987654320988,38.845679012345684,0)" xlink:href="#aW"/><use transform="matrix(0.04320987654320988,0,0,0.04320987654320988,47.48765432098766,0)" xlink:href="#aY"/></g><g id="R"><use transform="matrix(0.04320987654320988,0,0,0.04320987654320988,0,0)" xlink:href="#bd"/><use transform="matrix(0.04320987654320988,0,0,0.04320987654320988,7.777777777777779,0)" xlink:href="#aV"/><use transform="matrix(0.04320987654320988,0,0,0.04320987654320988,16.419753086419753,0)" xlink:href="#aW"/><use transform="matrix(0.04320987654320988,0,0,0.04320987654320988,25.061728395061728,0)" xlink:href="#bc"/></g><g id="S"><use transform="matrix(0.04320987654320988,0,0,0.04320987654320988,0,0)" xlink:href="#ba"/><use transform="matrix(0.04320987654320988,0,0,0.04320987654320988,8.641975308641976,0)" xlink:href="#aS"/><use transform="matrix(0.04320987654320988,0,0,0.04320987654320988,21.56172839506173,0)" xlink:href="#aR"/><use transform="matrix(0.04320987654320988,0,0,0.04320987654320988,30.203703703703713,0)" xlink:href="#aU"/><use transform="matrix(0.04320987654320988,0,0,0.04320987654320988,38.845679012345684,0)" xlink:href="#aW"/><use transform="matrix(0.04320987654320988,0,0,0.04320987654320988,47.48765432098766,0)" xlink:href="#aY"/></g><g id="T"><use transform="matrix(0.04320987654320988,0,0,0.04320987654320988,0,0)" xlink:href="#aY"/><use transform="matrix(0.04320987654320988,0,0,0.04320987654320988,4.320987654320988,0)" xlink:href="#aR"/></g><g id="U"><use transform="matrix(0.04320987654320988,0,0,0.04320987654320988,0,0)" xlink:href="#aQ"/><use transform="matrix(0.04320987654320988,0,0,0.04320987654320988,5.1419753086419755,0)" xlink:href="#aV"/><use transform="matrix(0.04320987654320988,0,0,0.04320987654320988,13.783950617283953,0)" xlink:href="#bf"/><use transform="matrix(0.04320987654320988,0,0,0.04320987654320988,17.19753086419753,0)" xlink:href="#ba"/><use transform="matrix(0.04320987654320988,0,0,0.04320987654320988,25.839506172839503,0)" xlink:href="#aX"/><use transform="matrix(0.04320987654320988,0,0,0.04320987654320988,33.617283950617285,0)" xlink:href="#aV"/><use transform="matrix(0.04320987654320988,0,0,0.04320987654320988,42.25925925925926,0)" xlink:href="#aQ"/></g><g id="V"><use transform="matrix(0.04320987654320988,0,0,0.04320987654320988,0,0)" xlink:href="#bd"/><use transform="matrix(0.04320987654320988,0,0,0.04320987654320988,7.777777777777779,0)" xlink:href="#aR"/><use transform="matrix(0.04320987654320988,0,0,0.04320987654320988,16.419753086419753,0)" xlink:href="#aU"/><use transform="matrix(0.04320987654320988,0,0,0.04320987654320988,25.061728395061728,0)" xlink:href="#aQ"/><use transform="matrix(0.04320987654320988,0,0,0.04320987654320988,30.203703703703702,0)" xlink:href="#aT"/><use transform="matrix(0.04320987654320988,0,0,0.04320987654320988,37.98148148148148,0)" xlink:href="#aV"/></g><g id="W"><use transform="matrix(0.04320987654320988,0,0,0.04320987654320988,0,0)" xlink:href="#ba"/><use transform="matrix(0.04320987654320988,0,0,0.04320987654320988,8.641975308641976,0)" xlink:href="#aS"/><use transform="matrix(0.04320987654320988,0,0,0.04320987654320988,21.56172839506173,0)" xlink:href="#aR"/><use transform="matrix(0.04320987654320988,0,0,0.04320987654320988,30.203703703703713,0)" xlink:href="#aU"/><use transform="matrix(0.04320987654320988,0,0,0.04320987654320988,38.845679012345684,0)" xlink:href="#aW"/><use transform="matrix(0.04320987654320988,0,0,0.04320987654320988,47.48765432098766,0)" xlink:href="#aY"/></g><g id="X"><use transform="matrix(0.04320987654320988,0,0,0.04320987654320988,0,0)" xlink:href="#bc"/><use transform="matrix(0.04320987654320988,0,0,0.04320987654320988,8.641975308641976,0)" xlink:href="#aV"/><use transform="matrix(0.04320987654320988,0,0,0.04320987654320988,17.283950617283953,0)" xlink:href="#bk"/><use transform="matrix(0.04320987654320988,0,0,0.04320987654320988,25.925925925925927,0)" xlink:href="#aR"/><use transform="matrix(0.04320987654320988,0,0,0.04320987654320988,34.567901234567906,0)" xlink:href="#bd"/><use transform="matrix(0.04320987654320988,0,0,0.04320987654320988,42.345679012345684,0)" xlink:href="#bb"/><use transform="matrix(0.04320987654320988,0,0,0.04320987654320988,45.75925925925927,0)" xlink:href="#aY"/></g><g id="Y"><use transform="matrix(0.04320987654320988,0,0,0.04320987654320988,0,0)" xlink:href="#bc"/><use transform="matrix(0.04320987654320988,0,0,0.04320987654320988,8.641975308641976,0)" xlink:href="#aR"/><use transform="matrix(0.04320987654320988,0,0,0.04320987654320988,17.283950617283953,0)" xlink:href="#aW"/><use transform="matrix(0.04320987654320988,0,0,0.04320987654320988,25.925925925925927,0)" xlink:href="#aV"/></g><g id="Z"><use transform="matrix(0.04320987654320988,0,0,0.04320987654320988,0,0)" xlink:href="#bc"/><use transform="matrix(0.04320987654320988,0,0,0.04320987654320988,8.641975308641976,0)" xlink:href="#aV"/><use transform="matrix(0.04320987654320988,0,0,0.04320987654320988,17.283950617283953,0)" xlink:href="#bk"/><use transform="matrix(0.04320987654320988,0,0,0.04320987654320988,25.925925925925927,0)" xlink:href="#aR"/><use transform="matrix(0.04320987654320988,0,0,0.04320987654320988,34.567901234567906,0)" xlink:href="#bd"/><use transform="matrix(0.04320987654320988,0,0,0.04320987654320988,42.345679012345684,0)" xlink:href="#bb"/><use transform="matrix(0.04320987654320988,0,0,0.04320987654320988,45.75925925925927,0)" xlink:href="#aY"/></g><g id="aa"><use transform="matrix(0.04320987654320988,0,0,0.04320987654320988,0,0)" xlink:href="#bc"/><use transform="matrix(0.04320987654320988,0,0,0.04320987654320988,8.641975308641976,0)" xlink:href="#aR"/><use transform="matrix(0.04320987654320988,0,0,0.04320987654320988,17.283950617283953,0)" xlink:href="#aW"/><use transform="matrix(0.04320987654320988,0,0,0.04320987654320988,25.925925925925927,0)" xlink:href="#aV"/></g><path fill="#333" d="M108 0H70L1-190h34L89-25l56-165h34" id="bn"/><g id="ab"><use transform="matrix(0.04320987654320988,0,0,0.04320987654320988,0,0)" xlink:href="#aV"/><use transform="matrix(0.04320987654320988,0,0,0.04320987654320988,8.641975308641976,0)" xlink:href="#bn"/><use transform="matrix(0.04320987654320988,0,0,0.04320987654320988,16.419753086419753,0)" xlink:href="#aV"/><use transform="matrix(0.04320987654320988,0,0,0.04320987654320988,25.061728395061728,0)" xlink:href="#aW"/><use transform="matrix(0.04320987654320988,0,0,0.04320987654320988,33.7037037037037,0)" xlink:href="#aY"/></g><path fill="#333" d="M106-169C34-169 62-67 57 0H25v-261h32l-1 103c12-21 28-36 61-36 89 0 53 116 60 194h-32v-121c2-32-8-49-39-48" id="bo"/><g id="ac"><use transform="matrix(0.05,0,0,0.05,0,0)" xlink:href="#aV"/><use transform="matrix(0.05,0,0,0.05,10,0)" xlink:href="#bm"/><use transform="matrix(0.05,0,0,0.05,19,0)" xlink:href="#aT"/><use transform="matrix(0.05,0,0,0.05,28,0)" xlink:href="#bo"/><use transform="matrix(0.05,0,0,0.05,38,0)" xlink:href="#ba"/><use transform="matrix(0.05,0,0,0.05,48,0)" xlink:href="#aW"/><use transform="matrix(0.05,0,0,0.05,58,0)" xlink:href="#bl"/><use transform="matrix(0.05,0,0,0.05,68,0)" xlink:href="#aV"/></g><g id="ad"><use transform="matrix(0.04320987654320988,0,0,0.04320987654320988,0,0)" xlink:href="#aQ"/><use transform="matrix(0.04320987654320988,0,0,0.04320987654320988,5.1419753086419755,0)" xlink:href="#aV"/><use transform="matrix(0.04320987654320988,0,0,0.04320987654320988,13.783950617283953,0)" xlink:href="#bd"/><use transform="matrix(0.04320987654320988,0,0,0.04320987654320988,21.56172839506173,0)" xlink:href="#aU"/><use transform="matrix(0.04320987654320988,0,0,0.04320987654320988,30.203703703703713,0)" xlink:href="#bf"/><use transform="matrix(0.04320987654320988,0,0,0.04320987654320988,33.61728395061729,0)" xlink:href="#aY"/><use transform="matrix(0.04320987654320988,0,0,0.04320987654320988,37.93827160493828,0)" xlink:href="#bb"/><use transform="matrix(0.04320987654320988,0,0,0.04320987654320988,41.35185185185186,0)" xlink:href="#aW"/><use transform="matrix(0.04320987654320988,0,0,0.04320987654320988,49.99382716049383,0)" xlink:href="#bl"/></g><g id="ae"><use transform="matrix(0.04320987654320988,0,0,0.04320987654320988,0,0)" xlink:href="#aY"/><use transform="matrix(0.04320987654320988,0,0,0.04320987654320988,4.320987654320988,0)" xlink:href="#aR"/></g><g id="af"><use transform="matrix(0.04320987654320988,0,0,0.04320987654320988,0,0)" xlink:href="#aT"/><use transform="matrix(0.04320987654320988,0,0,0.04320987654320988,7.777777777777779,0)" xlink:href="#bf"/><use transform="matrix(0.04320987654320988,0,0,0.04320987654320988,11.19135802469136,0)" xlink:href="#bb"/><use transform="matrix(0.04320987654320988,0,0,0.04320987654320988,14.60493827160494,0)" xlink:href="#aV"/><use transform="matrix(0.04320987654320988,0,0,0.04320987654320988,23.246913580246915,0)" xlink:href="#aW"/><use transform="matrix(0.04320987654320988,0,0,0.04320987654320988,31.888888888888893,0)" xlink:href="#aY"/></g><g id="ag"><use transform="matrix(0.04320987654320988,0,0,0.04320987654320988,0,0)" xlink:href="#aR"/><use transform="matrix(0.04320987654320988,0,0,0.04320987654320988,8.641975308641976,0)" xlink:href="#aP"/></g><g id="ah"><use transform="matrix(0.04320987654320988,0,0,0.04320987654320988,0,0)" xlink:href="#aV"/><use transform="matrix(0.04320987654320988,0,0,0.04320987654320988,8.641975308641976,0)" xlink:href="#bm"/><use transform="matrix(0.04320987654320988,0,0,0.04320987654320988,16.419753086419753,0)" xlink:href="#aV"/><use transform="matrix(0.04320987654320988,0,0,0.04320987654320988,25.061728395061728,0)" xlink:href="#aT"/><use transform="matrix(0.04320987654320988,0,0,0.04320987654320988,32.839506172839506,0)" xlink:href="#aU"/><use transform="matrix(0.04320987654320988,0,0,0.04320987654320988,41.48148148148148,0)" xlink:href="#aY"/><use transform="matrix(0.04320987654320988,0,0,0.04320987654320988,45.80246913580246,0)" xlink:href="#bb"/><use transform="matrix(0.04320987654320988,0,0,0.04320987654320988,49.21604938271606,0)" xlink:href="#aR"/><use transform="matrix(0.04320987654320988,0,0,0.04320987654320988,57.85802469135802,0)" xlink:href="#aW"/></g><g id="ai"><use transform="matrix(0.04320987654320988,0,0,0.04320987654320988,0,0)" xlink:href="#bc"/><use transform="matrix(0.04320987654320988,0,0,0.04320987654320988,8.641975308641976,0)" xlink:href="#bb"/><use transform="matrix(0.04320987654320988,0,0,0.04320987654320988,12.055555555555557,0)" xlink:href="#bd"/><use transform="matrix(0.04320987654320988,0,0,0.04320987654320988,19.833333333333336,0)" xlink:href="#aY"/><use transform="matrix(0.04320987654320988,0,0,0.04320987654320988,24.154320987654323,0)" xlink:href="#aQ"/><use transform="matrix(0.04320987654320988,0,0,0.04320987654320988,29.296296296296298,0)" xlink:href="#bb"/><use transform="matrix(0.04320987654320988,0,0,0.04320987654320988,32.70987654320988,0)" xlink:href="#bj"/><use transform="matrix(0.04320987654320988,0,0,0.04320987654320988,41.351851851851855,0)" xlink:href="#aU"/><use transform="matrix(0.04320987654320988,0,0,0.04320987654320988,49.99382716049383,0)" xlink:href="#aY"/><use transform="matrix(0.04320987654320988,0,0,0.04320987654320988,54.314814814814824,0)" xlink:href="#aV"/></g><g id="aj"><use transform="matrix(0.04320987654320988,0,0,0.04320987654320988,0,0)" xlink:href="#aP"/><use transform="matrix(0.04320987654320988,0,0,0.04320987654320988,4.320987654320988,0)" xlink:href="#aV"/><use transform="matrix(0.04320987654320988,0,0,0.04320987654320988,12.962962962962964,0)" xlink:href="#aV"/><use transform="matrix(0.04320987654320988,0,0,0.04320987654320988,21.604938271604944,0)" xlink:href="#bd"/></g><g id="ak"><use transform="matrix(0.04320987654320988,0,0,0.04320987654320988,0,0)" xlink:href="#bk"/><use transform="matrix(0.04320987654320988,0,0,0.04320987654320988,8.641975308641976,0)" xlink:href="#aV"/><use transform="matrix(0.04320987654320988,0,0,0.04320987654320988,17.283950617283953,0)" xlink:href="#aW"/><use transform="matrix(0.04320987654320988,0,0,0.04320987654320988,25.925925925925927,0)" xlink:href="#ba"/><use transform="matrix(0.04320987654320988,0,0,0.04320987654320988,34.567901234567906,0)" xlink:href="#bf"/><use transform="matrix(0.04320987654320988,0,0,0.04320987654320988,37.98148148148149,0)" xlink:href="#aY"/><use transform="matrix(0.04320987654320988,0,0,0.04320987654320988,42.302469135802475,0)" xlink:href="#bb"/><use transform="matrix(0.04320987654320988,0,0,0.04320987654320988,45.71604938271605,0)" xlink:href="#aV"/><use transform="matrix(0.04320987654320988,0,0,0.04320987654320988,54.35802469135803,0)" xlink:href="#bd"/></g><path fill="#333" d="M9 0v-24l116-142H16v-24h144v24L44-24h123V0H9" id="bp"/><g id="al"><use transform="matrix(0.05,0,0,0.05,0,0)" xlink:href="#aP"/><use transform="matrix(0.05,0,0,0.05,5,0)" xlink:href="#bb"/><use transform="matrix(0.05,0,0,0.05,8.95,0)" xlink:href="#bf"/><use transform="matrix(0.05,0,0,0.05,12.899999999999999,0)" xlink:href="#ba"/><use transform="matrix(0.05,0,0,0.05,22.9,0)" xlink:href="#aW"/><use transform="matrix(0.05,0,0,0.05,32.9,0)" xlink:href="#bb"/><use transform="matrix(0.05,0,0,0.05,36.85,0)" xlink:href="#bp"/><use transform="matrix(0.05,0,0,0.05,45.85,0)" xlink:href="#aV"/></g><g id="am"><use transform="matrix(0.04320987654320988,0,0,0.04320987654320988,0,0)" xlink:href="#aQ"/><use transform="matrix(0.04320987654320988,0,0,0.04320987654320988,5.1419753086419755,0)" xlink:href="#aV"/><use transform="matrix(0.04320987654320988,0,0,0.04320987654320988,13.783950617283953,0)" xlink:href="#bk"/><use transform="matrix(0.04320987654320988,0,0,0.04320987654320988,22.425925925925934,0)" xlink:href="#aR"/><use transform="matrix(0.04320987654320988,0,0,0.04320987654320988,31.067901234567906,0)" xlink:href="#aQ"/><use transform="matrix(0.04320987654320988,0,0,0.04320987654320988,36.20987654320988,0)" xlink:href="#aY"/></g><g id="an"><use transform="matrix(0.04320987654320988,0,0,0.04320987654320988,0,0)" xlink:href="#aV"/><use transform="matrix(0.04320987654320988,0,0,0.04320987654320988,8.641975308641976,0)" xlink:href="#bm"/><use transform="matrix(0.04320987654320988,0,0,0.04320987654320988,16.419753086419753,0)" xlink:href="#aT"/><use transform="matrix(0.04320987654320988,0,0,0.04320987654320988,24.19753086419753,0)" xlink:href="#bo"/><use transform="matrix(0.04320987654320988,0,0,0.04320987654320988,32.839506172839506,0)" xlink:href="#ba"/><use transform="matrix(0.04320987654320988,0,0,0.04320987654320988,41.48148148148148,0)" xlink:href="#aW"/><use transform="matrix(0.04320987654320988,0,0,0.04320987654320988,50.123456790123456,0)" xlink:href="#bl"/><use transform="matrix(0.04320987654320988,0,0,0.04320987654320988,58.76543209876543,0)" xlink:href="#aV"/></g></defs></g></svg>