<svg xmlns="http://www.w3.org/2000/svg" xmlns:xlink="http://www.w3.org/1999/xlink" xmlns:lucid="lucid" width="1371" height="1667"><g transform="translate(-237 -151)" lucid:page-tab-id="0_0"><path d="M0 0h2280v1997.5H0z" fill="#fff"/><path d="M240 160h303.65v1660H240z" stroke="#000" stroke-opacity="0" fill="#a3d977" fill-opacity=".3"/><use xlink:href="#a" transform="matrix(1,0,0,1,245,165) translate(0 17.77777777777778)"/><use xlink:href="#b" transform="matrix(1,0,0,1,245,165) translate(129.25925925925927 17.77777777777778)"/><use xlink:href="#c" transform="matrix(1,0,0,1,245,165) translate(168.7037037037037 17.77777777777778)"/><path d="M880 160h360v1660H880z" stroke="#000" stroke-opacity="0" fill="#7ab648" fill-opacity=".25"/><use xlink:href="#d" transform="matrix(1,0,0,1,885,165) translate(0 17.77777777777778)"/><path d="M543.65 160H880v1660H543.65z" stroke="#000" stroke-opacity="0" fill="#c1e4f7" fill-opacity=".5"/><use xlink:href="#e" transform="matrix(1,0,0,1,548.6496896262572,165) translate(0 17.77777777777778)"/><path d="M1240 159.8h360V1820h-360z" stroke="#000" stroke-opacity="0" fill="#ffd99a" fill-opacity=".3"/><use xlink:href="#f" transform="matrix(1,0,0,1,1245,164.78918944783254) translate(0 17.77777777777778)"/><path d="M698.7 349.5v9.96m0 9.96l.02 19.92m0 9.96l.02 19.92m0 9.96l.02 19.92m0 9.96l.03 19.92m0 9.96v19.92m.02 9.96v19.92m.02 9.96l.02 19.92m0 9.96l.02 19.92m0 9.96l.02 19.92m0 9.96l.02 19.92m0 9.96l.03 19.92m0 9.96l.02 19.92m0 9.96l.02 19.92m0 9.96v19.9m.02 9.97l.02 19.92m0 9.96l.02 19.93m0 9.96l.02 19.9m0 9.97l.03 19.92m0 9.95l.03 19.92m0 9.96l.02 19.92m0 9.96l.02 19.93m0 9.96l.03 19.9m0 9.97l.02 19.92m0 9.95l.02 19.92m0 9.96l.03 19.92m0 9.96l.02 19.93m0 9.96v19.9m.02 9.97v19.92m.02 9.95l.02 19.92m0 9.96l.02 19.92m0 9.96l.02 19.93m0 9.96l.03 19.9m0 9.97l.02 19.92m0 9.95l.02 19.92m0 9.96l.02 19.92m0 9.96l.02 19.93m0 9.96l.02 19.9m0 9.97l.02 19.92m0 9.95l.03 19.92m0 9.96v19.92m.02 9.96v19.93m.02 9.96v19.9m.02 9.96l.02 19.92m0 9.96l.02 19.92m0 9.96l.02 19.92m0 9.96l.03 19.92m0 9.96v9.96" stroke="#333" fill="none"/><path d="M699.2 349.5h-1v-.5h1z" fill="#333"/><path d="M699.76 1753.83v3.5" stroke="#333" fill="none"/><path d="M679.76 448c0-4.42 3.58-8 8-8h24c4.42 0 8 3.58 8 8v144c0 4.42-3.58 8-8 8h-24c-4.42 0-8-3.58-8-8z" stroke="#0c7cba" stroke-width="2" fill="#fff"/><path d="M1059.5 349.5l-.13 10m-.15 9.97l-.3 19.97m-.15 10l-.3 19.96m-.14 9.98l-.3 19.98m-.15 9.98l-.3 19.97m-.14 10l-.3 19.97m-.15 9.98l-.3 19.97m-.15 10l-.3 19.96m-.15 10l-.3 19.96m-.15 9.98l-.3 19.97m-.14 9.98l-.3 19.97m-.14 10l-.3 19.96m-.14 10l-.3 19.96m-.15 10l-.3 19.96m-.14 10l-.3 19.96m-.15 9.98l-.3 19.97m-.14 10l-.3 19.96m-.15 9.98l-.3 19.97m-.15 9.98l-.3 19.97m-.15 10l-.3 19.96m-.14 9.98l-.3 19.98m-.15 9.98l-.3 19.97m-.13 10l-.3 19.96m-.15 9.98l-.3 20m-.15 9.97l-.3 19.97m-.14 10l-.3 19.96m-.15 9.98l-.3 19.98m-.14 9.98l-.3 19.97m-.15 10l-.3 19.97m-.15 9.98l-.3 19.97m-.15 10l-.3 19.96m-.14 10l-.3 19.96m-.15 9.98l-.3 19.97m-.13 9.98l-.3 19.97m-.15 10l-.3 19.96m-.14 10l-.3 19.96m-.15 10l-.3 19.96m-.14 10l-.3 19.96m-.16 9.98l-.3 19.97m-.15 10l-.3 19.96m-.15 9.98l-.3 19.97m-.15 9.98l-.3 19.97m-.14 10l-.3 19.96m-.15 9.98l-.28 19.98m-.15 9.98l-.3 19.97m-.15 10l-.3 19.96m-.14 9.98l-.15 10" stroke="#333" fill="none"/><path d="M1060 349.52h-1l.02-.52h1z" fill="#333"/><path fill="#333"/><path d="M1039.52 388c0-4.42 3.58-8 8-8h24c4.42 0 8 3.58 8 8v1384c0 4.42-3.58 8-8 8h-24c-4.42 0-8-3.58-8-8z" stroke="#0c7cba" stroke-width="2" fill="#fff"/><path d="M1420.36 357.5v10.1m0 10.07v20.17m0 10.1v20.16m0 10.08v20.17m0 10.1v20.16m0 10.1v20.16m0 10.1v20.16m0 10.08v20.17m0 10.1v20.16m0 10.08v20.18m0 10.1v20.16m0 10.08v20.17m0 10.08v20.17m0 10.08v20.17m0 10.1v20.16m0 10.08v20.17m0 10.1v20.17m0 10.1v20.16m0 10.08v20.18m0 10.1v20.16m0 10.08v20.17m0 10.08v20.17m0 10.08v20.17m0 10.1v20.16m0 10.08v20.17m0 10.1v20.17m0 10.08v20.17m0 10.1v20.16m0 10.08v20.17m0 10.1v20.16m0 10.07v20.17m0 10.1v20.16m0 10.1v20.16m0 10.08V1366m0 10.1v20.17m0 10.08v20.17m0 10.1v20.16m0 10.08v20.17m0 10.1v20.16m0 10.07v20.17m0 10.1v20.16m0 10.08v20.17m0 10.1v20.16m0 10.1v20.16m0 10.1v20.16m0 10.08v20.17m0 10.1v20.16m0 10.08v10.1" stroke="#333" fill="none"/><path d="M1420.86 357.5h-1v-.5h1z" fill="#333"/><path d="M1420.36 1779.5v.5" stroke="#333" fill="none"/><path d="M679.76 864.58c0-4.42 3.58-8 8-8h24c4.42 0 8 3.58 8 8V912c0 4.42-3.58 8-8 8h-24c-4.42 0-8-3.58-8-8zM603.65 248c0-4.42 3.58-8 8-8h174.07c4.42 0 8 3.58 8 8v92c0 4.42-3.58 8-8 8H611.65c-4.42 0-8-3.58-8-8z" stroke="#0c7cba" stroke-width="2" fill="#fff"/><use xlink:href="#g" transform="matrix(1,0,0,1,611.6496896262572,248) translate(12.932098765432102 50.44444444444444)"/><use xlink:href="#h" transform="matrix(1,0,0,1,611.6496896262572,248) translate(78.24074074074073 50.44444444444444)"/><path d="M964.48 248c0-4.42 3.6-8 8-8h174.08c4.42 0 8 3.58 8 8v92c0 4.42-3.58 8-8 8H972.48c-4.4 0-8-3.58-8-8z" stroke="#19967d" stroke-width="2" fill="#fff"/><use xlink:href="#i" transform="matrix(1,0,0,1,972.4836879544767,248) translate(44.166666666666664 50.44444444444444)"/><path d="M1325.32 248c0-4.42 3.58-8 8-8h174.07c4.4 0 8 3.58 8 8v100c0 4.42-3.6 8-8 8H1333.3c-4.42 0-8-3.58-8-8z" stroke="#ef8d22" stroke-width="2" fill="#fff"/><use xlink:href="#j" transform="matrix(1,0,0,1,1333.3176862826967,248) translate(49.32098765432099 54.44444444444444)"/><path d="M403.4 277.42c0 10.9-8.84 19.75-19.75 19.75-10.9 0-19.75-8.85-19.75-19.75s8.84-19.75 19.75-19.75c10.9 0 19.75 8.84 19.75 19.75z" stroke="#333" fill="#ffeca9"/><path d="M383.65 297.17v47.3c0 4.4 1.92 11.02 4.28 14.76l35.72 56.44m-40-63.2l-40 63.2m0-98.75h80" stroke="#333" fill="none"/><path d="M343.65 265.67c0-4.42 3.58-8 8-8h64c4.42 0 8 3.58 8 8v164c0 4.4-3.58 8-8 8h-64c-4.42 0-8-3.6-8-8z" fill="none"/><use xlink:href="#k" transform="matrix(1,0,0,1,263.6496896262572,415.6655519423589) translate(86.03703703703704 21.333333333333336)"/><path d="M387.05 449.12L387 459.2m-.05 10.07l-.1 20.16m-.06 10.08l-.12 20.17m-.05 10.07l-.1 20.16m-.06 10.08l-.1 20.16m-.06 10.08l-.1 20.15m-.05 10.08l-.1 20.16m-.06 10.1l-.12 20.15m-.05 10.07l-.1 20.16m-.06 10.08l-.1 20.16m-.06 10.08l-.1 20.15m-.05 10.08l-.1 20.16m-.07 10.07l-.1 20.16m-.06 10.07l-.1 20.16m-.06 10.08l-.1 20.16m-.06 10.08l-.1 20.15m-.06 10.08l-.1 20.17m-.06 10.08l-.1 20.16m-.06 10.08l-.1 20.16m-.06 10.08l-.1 20.16m-.06 10.08l-.1 20.15m-.06 10.1l-.1 20.15m-.06 10.08l-.1 20.16m-.06 10.07l-.1 20.15m-.06 10.08l-.1 20.16m-.06 10.08l-.1 20.15m-.06 10.07l-.1 20.16m-.06 10.08l-.1 20.17m-.06 10.08l-.1 20.15m-.06 10.08l-.1 20.16m-.06 10.08l-.1 20.15m-.06 10.08l-.1 20.16m-.06 10.1l-.1 20.15m-.06 10.08l-.1 20.15m-.06 10.08l-.1 20.16m-.06 10.08l-.1 20.15m-.06 10.08l-.1 20.16m-.06 10.07l-.1 20.16M381 1588l-.1 20.16m-.06 10.08l-.1 20.16m-.06 10.08l-.1 20.15m-.06 10.08l-.1 20.17m-.06 10.08l-.1 20.16m-.06 10.1l-.1 20.14m-.06 10.08l-.06 10.08M387.05 449.13v-.5M380 1779.5v.5M389.78 457.7h273.1M389.8 457.7h-.52" stroke="#333" fill="none"/><path d="M677.64 457.7l-14.26 4.65v-9.27z" stroke="#333" fill="#333"/><use xlink:href="#l" transform="matrix(1,0,0,1,446.02818031690435,427.0476190476191) translate(0.0049999999999954525 17.77777777777778)"/><use xlink:href="#m" transform="matrix(1,0,0,1,446.02818031690435,427.0476190476191) translate(102.47413580246914 17.77777777777778)"/><path d="M460 460h143.65v118H460z" stroke="#000" stroke-opacity="0" fill="#fff" fill-opacity="0"/><use xlink:href="#n" transform="matrix(1,0,0,1,464.9999999999593,465) translate(0 17.80625)"/><use xlink:href="#o" transform="matrix(1,0,0,1,464.9999999999593,465) translate(0 39.40625)"/><use xlink:href="#p" transform="matrix(1,0,0,1,464.9999999999593,465) translate(20 39.40625)"/><use xlink:href="#q" transform="matrix(1,0,0,1,464.9999999999593,465) translate(60.9 39.40625)"/><use xlink:href="#o" transform="matrix(1,0,0,1,464.9999999999593,465) translate(0 61.00625)"/><use xlink:href="#r" transform="matrix(1,0,0,1,464.9999999999593,465) translate(20 61.00625)"/><use xlink:href="#q" transform="matrix(1,0,0,1,464.9999999999593,465) translate(40 61.00625)"/><use xlink:href="#o" transform="matrix(1,0,0,1,464.9999999999593,465) translate(0 82.60625000000002)"/><use xlink:href="#s" transform="matrix(1,0,0,1,464.9999999999593,465) translate(20 82.60625000000002)"/><use xlink:href="#o" transform="matrix(1,0,0,1,464.9999999999593,465) translate(0 104.20625000000001)"/><use xlink:href="#t" transform="matrix(1,0,0,1,464.9999999999593,465) translate(20 104.20625000000001)"/><use xlink:href="#u" transform="matrix(1,0,0,1,464.9999999999593,465) translate(49 104.20625000000001)"/><path d="M678.62 593.87l-10.22-.1m-10.22-.12l-20.44-.23m-10.22-.1l-20.44-.23m-10.22-.12l-20.44-.22m-10.22-.12l-20.44-.22m-10.22-.1l-20.44-.23m-10.22-.13l-20.44-.22m-10.2-.1l-20.45-.23m-10.23-.1l-20.44-.24m-10.22-.1l-10.2-.12" stroke="#333" fill="none"/><path d="M679.02 593.37l.2 1h-.62v-1z" fill="#333"/><path d="M387.92 590.7l14.32-4.48-.1 9.27z" stroke="#333" fill="#333"/><use xlink:href="#v" transform="matrix(1,0,0,1,523.9270650360861,596.2775456706003) translate(0 17.77777777777778)"/><path d="M721.26 483.1l14.94.64 9.1 1.26 6.05 1.43 4.33 1.47 3.3 1.48 2.6 1.48 2.14 1.5 1.8 1.52 1.54 1.6 1.36 1.68 1.2 1.82 1.08 2.03.96 2.33.86 2.77.72 3.48.53 4.77.15 4.97-.3 6.98-.7 4.9-.9 3.83-1.08 3.18-1.22 2.73-1.38 2.42-1.54 2.2-1.73 2.03-1.97 1.9-2.27 1.84-2.66 1.75-3.2 1.7-3.96 1.65-5.03 1.55-6.7 1.4-2.17.23" stroke="#333" fill="none"/><path d="M721.3 482.6l-.05 1h-.5v-1z" fill="#333"/><path d="M722.38 560.58L736.3 555l.62 9.26z" stroke="#333" fill="#333"/><use xlink:href="#w" transform="matrix(1,0,0,1,781.7500190778802,510.05558118479956) translate(0 17.77777777777778)"/><use xlink:href="#x" transform="matrix(1,0,0,1,781.7500190778802,510.05558118479956) translate(67.8395061728395 17.77777777777778)"/><path d="M1400.36 586c0-4.42 3.58-8 8-8h24c4.4 0 8 3.58 8 8v104c0 4.42-3.6 8-8 8h-24c-4.42 0-8-3.58-8-8z" stroke="#0c7cba" stroke-width="2" fill="#fff"/><path d="M721.26 581.46l664.53-1.92" stroke="#333" fill="none"/><path d="M721.28 581.96h-.52v-1h.5z" fill="#333"/><path d="M1400.55 579.5l-14.25 4.67-.03-9.27z" stroke="#333" fill="#333"/><use xlink:href="#y" transform="matrix(1,0,0,1,1134.9016214440176,549.3006119016175) translate(0.0049999999999954525 17.77777777777778)"/><use xlink:href="#z" transform="matrix(1,0,0,1,1134.9016214440176,549.3006119016175) translate(46.85685185185185 17.77777777777778)"/><use xlink:href="#A" transform="matrix(1,0,0,1,1134.9016214440176,549.3006119016175) translate(150.56055555555557 17.77777777777778)"/><path d="M1398.86 616.44l-302.45.5" stroke="#333" fill="none"/><path d="M1399.36 616.94h-.52v-1h.52z" fill="#333"/><path d="M1081.64 616.95l14.26-4.66v9.26z" stroke="#333" fill="#333"/><use xlink:href="#B" transform="matrix(1,0,0,1,1224.8562086497068,586.0281172832614) translate(0.005000000000000782 17.77777777777778)"/><path d="M1080.52 660h10.6m10.6 0h21.17m10.6 0h21.17m10.6 0h21.18m10.6 0h21.18m10.6 0h10.6l.18.08.1.2.07.18.2.08h9.52m9.53 0h19.06m9.53 0h19.07m9.53 0h19.07m9.53 0h19.07m9.54 0h9.53" stroke="#333" fill="none"/><path d="M1080.53 660.5v-1z" fill="#333"/><path d="M1397.74 660.54l-14.27 4.63v-9.27z" stroke="#333" fill="#333"/><use xlink:href="#C" transform="matrix(1,0,0,1,1157.1062952208154,629.3341719553943) translate(0 17.77777777777778)"/><use xlink:href="#D" transform="matrix(1,0,0,1,1157.1062952208154,629.3341719553943) translate(64.07407407407406 17.77777777777778)"/><use xlink:href="#E" transform="matrix(1,0,0,1,1157.1062952208154,629.3341719553943) translate(135.61728395061726 17.77777777777778)"/><path d="M1399.02 690.9l-662.95-2.26" stroke="#333" fill="none"/><path d="M1399.42 690.4l.2 1h-.62v-1z" fill="#333"/><path d="M721.3 688.6l14.3-4.6-.04 9.28z" stroke="#333" fill="#333"/><use xlink:href="#F" transform="matrix(1,0,0,1,727.0199497422475,661.1073770967994) translate(0 16)"/><use xlink:href="#G" transform="matrix(1,0,0,1,727.0199497422475,661.1073770967994) translate(43.333333333333336 16)"/><use xlink:href="#H" transform="matrix(1,0,0,1,727.0199497422475,661.1073770967994) translate(107.72222222222223 16)"/><use xlink:href="#I" transform="matrix(1,0,0,1,727.0199497422475,661.1073770967994) translate(139.88888888888889 16)"/><use xlink:href="#J" transform="matrix(1,0,0,1,727.0199497422475,661.1073770967994) translate(178.77777777777777 16)"/><use xlink:href="#K" transform="matrix(1,0,0,1,727.0199497422475,661.1073770967994) translate(244.27777777777777 16)"/><path d="M678.7 688c0-4.42 3.57-8 8-8h24c4.4 0 8 3.58 8 8v124c0 4.42-3.6 8-8 8h-24c-4.43 0-8-3.58-8-8z" stroke="#0c7cba" stroke-width="2" fill="#fff"/><path d="M720.2 713.74l11.56.5 8.43 1.16 6.2 1.44 4.8 1.6 3.84 1.68 3.15 1.75 2.64 1.8 2.27 1.88 1.98 1.96 1.75 2.1 1.55 2.26 1.38 2.47 1.23 2.78 1.07 3.2.9 3.78.66 4.7.3 6.28v.3l-.3 6.6-.64 4.7-.88 3.7-1.04 3.05-1.17 2.65-1.3 2.35-1.5 2.14-1.65 1.98-1.9 1.87-2.18 1.77-2.57 1.73-3.1 1.68-3.8 1.63-4.87 1.57-6.46 1.43-3.97.5" stroke="#333" fill="none"/><path d="M720.22 713.25l-.04 1-.5-.03v-1z" fill="#333"/><path d="M721.88 795.65l13.93-5.55.6 9.25z" stroke="#333" fill="#333"/><use xlink:href="#L" transform="matrix(1,0,0,1,781.9245073612138,741.8753376632137) translate(0 17.77777777777778)"/><use xlink:href="#E" transform="matrix(1,0,0,1,781.9245073612138,741.8753376632137) translate(59.19753086419753 17.77777777777778)"/><path d="M1038.52 866.8l-301.38-.5" stroke="#333" fill="none"/><path d="M1038.52 866.3v1-1z" fill="#333"/><path d="M722.38 866.28l14.27-4.6v9.26z" stroke="#333" fill="#333"/><use xlink:href="#M" transform="matrix(1,0,0,1,822.95104944665,835.874397048455) translate(0 17.77777777777778)"/><use xlink:href="#N" transform="matrix(1,0,0,1,822.95104944665,835.874397048455) translate(43.20987654320988 17.77777777777778)"/><path d="M720.96 913.57h10.57m10.57 0h21.14m10.57 0h21.14m10.57 0h21.15m10.57 0h21.14m10.56 0h10.57l.17-.07.07-.18.08-.18.17-.07h9.5m9.5 0h19.03m9.5 0h19.03m9.5 0h19.03m9.5 0h19.02m9.5 0h9.52" stroke="#333" fill="none"/><path d="M720.98 914.07h-.62l.2-1h.42z" fill="#333"/><path d="M1037.4 913.07l-14.26 4.63v-9.27z" stroke="#333" fill="#333"/><use xlink:href="#O" transform="matrix(1,0,0,1,842.77880539245,882.4053310726963) translate(0 17.77777777777778)"/><use xlink:href="#P" transform="matrix(1,0,0,1,842.77880539245,882.4053310726963) translate(46.851851851851855 17.77777777777778)"/><path d="M1080.52 929.88l15.57.66 9.1 1.27 5.92 1.42 4.2 1.44 3.15 1.43 2.5 1.42 2.02 1.44 1.7 1.48 1.47 1.53 1.3 1.64 1.14 1.78 1.04 2 .92 2.3.82 2.76.7 3.58.5 5.13.1 4.18-.32 7.2-.62 4.37-.78 3.2-.88 2.54-1 2.16-1.1 1.88-1.22 1.7-1.4 1.6-1.6 1.5-1.9 1.47-2.3 1.45-2.86 1.43-3.73 1.45-5.14 1.43-7.64 1.36-3.25.25" stroke="#333" fill="none"/><path d="M1080.56 929.38l-.04.82v-.82z" fill="#333"/><path d="M1082.2 1001.08l14-5.37.5 9.27z" stroke="#333" fill="#333"/><use xlink:href="#Q" transform="matrix(1,0,0,1,1140.4141911291686,957.9744517268716) translate(0 17.77777777777778)"/><use xlink:href="#R" transform="matrix(1,0,0,1,1140.4141911291686,957.9744517268716) translate(91.29629629629629 17.77777777777778)"/><path d="M679.76 1028c0-4.42 3.58-8 8-8h24c4.42 0 8 3.58 8 8v47.42c0 4.42-3.58 8-8 8h-24c-4.42 0-8-3.58-8-8z" stroke="#0c7cba" stroke-width="2" fill="#fff"/><path d="M1038.02 1027.67l-300.88.65" stroke="#333" fill="none"/><path d="M1038.52 1028.17h-.5v-1h.5z" fill="#333"/><path d="M722.38 1028.35l14.25-4.66.02 9.26z" stroke="#333" fill="#333"/><use xlink:href="#S" transform="matrix(1,0,0,1,814.2563614560477,997.3445558589905) translate(0 17.77777777777778)"/><use xlink:href="#R" transform="matrix(1,0,0,1,814.2563614560477,997.3445558589905) translate(53.086419753086425 17.77777777777778)"/><path d="M678.26 1050.64h-272.7" stroke="#333" fill="none"/><path d="M678.76 1051.14h-.5v-1h.5z" fill="#333"/><path d="M422.85 1040.46l-17.22 10.18 17.22 10.18" stroke="#333" fill="none"/><use xlink:href="#T" transform="matrix(1,0,0,1,428.2176131068942,1019.9745489146923) translate(0 17.77777777777778)"/><use xlink:href="#U" transform="matrix(1,0,0,1,428.2176131068942,1019.9745489146923) translate(80.18518518518518 17.77777777777778)"/><use xlink:href="#V" transform="matrix(1,0,0,1,428.2176131068942,1019.9745489146923) translate(152.96296296296293 17.77777777777778)"/><path d="M363.65 1046.5c0-4.42 3.58-8 8-8h24c4.42 0 8 3.58 8 8v67c0 4.42-3.58 8-8 8h-24c-4.42 0-8-3.58-8-8z" stroke="#0c7cba" stroke-width="2" fill="#fff"/><path d="M405.15 1106.1l9.17-.13m9.18-.14l18.34-.28m9.17-.14l18.36-.27m9.17-.14l18.35-.3m9.17-.13l18.35-.28m9.17-.15l9.17-.14" stroke="#333" fill="none"/><path d="M405.17 1106.6l-.52.02v-1h.5z" fill="#333"/><path d="M525.6 1114.46l17.07-10.45-17.37-9.9" stroke="#333" fill="none"/><path d="M451.82 1120h160v90h-160z" stroke="#000" stroke-opacity="0" fill="#fff" fill-opacity="0"/><use xlink:href="#W" transform="matrix(1,0,0,1,456.82484481310826,1125) translate(14.537037037037038 17.77777777777778)"/><use xlink:href="#X" transform="matrix(1,0,0,1,456.82484481310826,1125) translate(68.85802469135803 17.77777777777778)"/><use xlink:href="#Y" transform="matrix(1,0,0,1,456.82484481310826,1125) translate(25.648148148148152 44.44444444444444)"/><use xlink:href="#Z" transform="matrix(1,0,0,1,456.82484481310826,1125) translate(105.83333333333333 44.44444444444444)"/><use xlink:href="#aa" transform="matrix(1,0,0,1,456.82484481310826,1125) translate(9.753086419753089 71.11111111111111)"/><use xlink:href="#ab" transform="matrix(1,0,0,1,456.82484481310826,1125) translate(83.64197530864196 71.11111111111111)"/><path d="M1038.02 1156.5H737.14" stroke="#333" fill="none"/><path d="M1038.52 1157h-.5v-1h.5z" fill="#333"/><path d="M722.38 1156.5l14.26-4.65v9.27z" stroke="#333" fill="#333"/><use xlink:href="#ac" transform="matrix(1,0,0,1,720.2368453893121,1125.8211382113823) translate(0 17.77777777777778)"/><use xlink:href="#Y" transform="matrix(1,0,0,1,720.2368453893121,1125.8211382113823) translate(72.77777777777777 17.77777777777778)"/><use xlink:href="#ad" transform="matrix(1,0,0,1,720.2368453893121,1125.8211382113823) translate(152.96296296296293 17.77777777777778)"/><use xlink:href="#ae" transform="matrix(1,0,0,1,720.2368453893121,1125.8211382113823) translate(230.67901234567898 17.77777777777778)"/><path d="M679.76 1155c0-4.42 3.58-8 8-8h24c4.42 0 8 3.58 8 8v47.42c0 4.42-3.58 8-8 8h-24c-4.42 0-8-3.58-8-8z" stroke="#0c7cba" stroke-width="2" fill="#fff"/><path d="M721.26 1199.15l659.02-.47" stroke="#333" fill="none"/><path d="M721.27 1199.65h-.5v-1h.5z" fill="#333"/><path d="M1395.05 1198.67l-14.26 4.64-.02-9.26z" stroke="#333" fill="#333"/><use xlink:href="#af" transform="matrix(1,0,0,1,1143.5592037106169,1168.11457067111) translate(0 17.77777777777778)"/><use xlink:href="#ag" transform="matrix(1,0,0,1,1143.5592037106169,1168.11457067111) translate(77.71604938271604 17.77777777777778)"/><use xlink:href="#ah" transform="matrix(1,0,0,1,1143.5592037106169,1168.11457067111) translate(133.2716049382716 17.77777777777778)"/><path d="M1400.36 1188c0-4.42 3.58-8 8-8h24c4.4 0 8 3.58 8 8v84c0 4.42-3.6 8-8 8h-24c-4.42 0-8-3.58-8-8z" stroke="#0c7cba" stroke-width="2" fill="#fff"/><path d="M1441.86 1211.58l6.34.3 5.72.8 4.8 1.14 4.07 1.38 3.44 1.55 2.93 1.65 2.48 1.74 2.1 1.8 1.8 1.8 1.48 1.86 1.24 1.86 1 1.86.78 1.87.6 1.87.4 1.87.2 1.88.05 1.87-.13 1.87-.32 1.87-.5 1.88-.7 1.87-.9 1.86-1.1 1.86-1.37 1.86-1.64 1.83-1.95 1.82-2.32 1.76-2.7 1.7-3.2 1.6-3.76 1.47-3.15.9" stroke="#333" fill="none"/><path d="M1441.9 1211.08l-.05 1-.5-.02v-1z" fill="#333"/><path d="M1442.96 1264.63l13.6-6.33 1.12 9.2z" stroke="#333" fill="#333"/><use xlink:href="#ai" transform="matrix(1,0,0,1,1489.1965923048947,1226.9923719091053) translate(0 17.77777777777778)"/><path d="M1398.86 1267.56l-10.26-.02m-10.26-.02l-20.5-.04m-10.27-.02l-20.5-.04m-10.26-.02l-20.5-.04m-10.26-.02l-20.52-.04m-10.25-.02l-20.52-.04m-10.25-.02l-10.26-.02" stroke="#333" fill="none"/><path d="M1399.36 1267.06v1h-.52v-1z" fill="#333"/><path d="M1231.55 1257.06l-17.23 10.14 17.2 10.22" stroke="#333" fill="none"/><path d="M1118.3 1267.2h190.07v100H1118.3z" stroke="#000" stroke-opacity="0" fill="#fff" fill-opacity="0"/><use xlink:href="#W" transform="matrix(1,0,0,1,1123.2957142684097,1272.2007210563665) translate(21.456790123456784 37.68402777777778)"/><use xlink:href="#aj" transform="matrix(1,0,0,1,1123.2957142684097,1272.2007210563665) translate(75.77777777777777 37.68402777777778)"/><use xlink:href="#Y" transform="matrix(1,0,0,1,1123.2957142684097,1272.2007210563665) translate(12.197530864197546 64.35069444444446)"/><use xlink:href="#ak" transform="matrix(1,0,0,1,1123.2957142684097,1272.2007210563665) translate(92.38271604938272 64.35069444444446)"/><use xlink:href="#al" transform="matrix(1,0,0,1,1123.2957142684097,1272.2007210563665) translate(117.07407407407408 64.35069444444446)"/><path d="M679.76 1388c0-4.42 3.58-8 8-8h24c4.42 0 8 3.58 8 8v224c0 4.42-3.58 8-8 8h-24c-4.42 0-8-3.58-8-8z" stroke="#0c7cba" stroke-width="2" fill="#fff"/><path d="M1038.52 1396H736.64" stroke="#333" fill="none"/><path d="M1038.52 1396.5v-1z" fill="#333"/><path d="M721.88 1396l14.26-4.64v9.28z" stroke="#333" fill="#333"/><g><use xlink:href="#M" transform="matrix(1,0,0,1,798.1904588405025,1365.3333333333337) translate(0 17.77777777777778)"/><use xlink:href="#am" transform="matrix(1,0,0,1,798.1904588405025,1365.3333333333337) translate(43.20987654320988 17.77777777777778)"/><use xlink:href="#an" transform="matrix(1,0,0,1,798.1904588405025,1365.3333333333337) translate(67.90123456790124 17.77777777777778)"/></g><path d="M720.76 1420.02l6.4.28 5.83.76 4.95 1.1 4.24 1.35 3.62 1.53 3.12 1.64 2.68 1.72 2.3 1.78 1.97 1.82 1.66 1.85 1.4 1.87 1.18 1.88.96 1.88.75 1.88.57 1.9.4 1.87.22 1.88.06 1.88-.1 1.87-.3 1.87-.43 1.87-.63 1.85-.8 1.86-1.02 1.87-1.22 1.84-1.47 1.84-1.73 1.8-2.03 1.8-2.37 1.72-2.77 1.67-3.22 1.58-3.75 1.45-4.24 1.22" stroke="#333" fill="none"/><path d="M720.8 1419.52l-.04.83v-.83z" fill="#333"/><path d="M722.37 1476.6l13.66-6.2 1.03 9.22z" stroke="#333" fill="#333"/><g><use xlink:href="#ao" transform="matrix(1,0,0,1,769.2215454225754,1427.399629184803) translate(0 16)"/><use xlink:href="#ap" transform="matrix(1,0,0,1,769.2215454225754,1427.399629184803) translate(86.50000000000001 16)"/><use xlink:href="#I" transform="matrix(1,0,0,1,769.2215454225754,1427.399629184803) translate(129.83333333333334 16)"/><use xlink:href="#aq" transform="matrix(1,0,0,1,769.2215454225754,1427.399629184803) translate(168.72222222222223 16)"/></g><path d="M721.26 1500.02l6.45.24 6 .7 5.17 1.02 4.48 1.25 3.9 1.42 3.42 1.56 2.98 1.65 2.6 1.72 2.27 1.77 1.97 1.8 1.7 1.83 1.5 1.85 1.25 1.86 1.07 1.86.88 1.87.72 1.9.55 1.86.4 1.87.24 1.88.1 1.88-.04 1.88-.2 1.87-.34 1.88-.5 1.88-.66 1.88-.83 1.87-1 1.87-1.2 1.86-1.4 1.85-1.63 1.84-1.9 1.82-2.16 1.78-2.5 1.73-2.83 1.68-3.25 1.6-3.73 1.46-4.28 1.32-3.4.76" stroke="#333" fill="none"/><path d="M721.3 1499.52l-.04 1-.5-.02v-1z" fill="#333"/><path d="M722.37 1564.04l13.74-6.02.92 9.22z" stroke="#333" fill="#333"/><g><use xlink:href="#ar" transform="matrix(1,0,0,1,776.865712675517,1520.0626730168663) translate(0 17.77777777777778)"/></g><path d="M678.76 1600l-276.85-.52" stroke="#333" fill="none"/><path d="M678.76 1599.5v1-1z" fill="#333"/><path d="M419.22 1589.33l-17.24 10.15 17.2 10.2" stroke="#333" fill="none"/><g><use xlink:href="#as" transform="matrix(1,0,0,1,433.6295764131163,1569.0725156775907) translate(0 17.77777777777778)"/><use xlink:href="#at" transform="matrix(1,0,0,1,433.6295764131163,1569.0725156775907) translate(64.07407407407408 17.77777777777778)"/><use xlink:href="#ae" transform="matrix(1,0,0,1,433.6295764131163,1569.0725156775907) translate(166.54320987654322 17.77777777777778)"/></g><path d="M360 1588c0-4.42 3.58-8 8-8h24c4.42 0 8 3.58 8 8v67c0 4.42-3.58 8-8 8h-24c-4.42 0-8-3.58-8-8z" stroke="#0c7cba" stroke-width="2" fill="#fff"/><path d="M659.76 1720h80v80h-80z" fill="none"/><path d="M667.76 1728l64 64m0-64l-64 64" stroke="#333" stroke-width="8" fill="none"/><path d="M1081.02 1040.02l9.66.42 7.68 1.03 6.04 1.37 4.88 1.6 4.06 1.72 3.44 1.86 2.97 1.97 2.62 2.08 2.32 2.24 2.07 2.4 1.9 2.62 1.7 2.88 1.53 3.25 1.37 3.7 1.18 4.38.92 5.3.56 6.82.07 3.66-.3 7.45-.72 5.3-.96 4.2-1.13 3.47-1.3 3-1.42 2.63-1.58 2.4-1.77 2.2-1.98 2.06-2.25 1.95-2.58 1.85-3.03 1.78-3.63 1.72-4.42 1.63-5.6 1.5-6.5 1.13" stroke="#333" fill="none"/><path d="M1081.06 1039.52l-.05 1-.48-.02v-1z" fill="#333"/><path d="M1082.14 1134.56l13.93-5.55.6 9.26z" stroke="#333" fill="#333"/><g><use xlink:href="#au" transform="matrix(1,0,0,1,1143.635333693036,1084.0038599705447) translate(0 17.77777777777778)"/><use xlink:href="#av" transform="matrix(1,0,0,1,1143.635333693036,1084.0038599705447) translate(45.55555555555556 17.77777777777778)"/><use xlink:href="#U" transform="matrix(1,0,0,1,1143.635333693036,1084.0038599705447) translate(77.5925925925926 17.77777777777778)"/><use xlink:href="#V" transform="matrix(1,0,0,1,1143.635333693036,1084.0038599705447) translate(150.37037037037038 17.77777777777778)"/></g><path d="M303.3 488c0-15.46 12.54-28 28-28h4.35c15.46 0 28 12.54 28 28s-12.54 28-28 28h-4.35c-15.46 0-28-12.54-28-28z" stroke="#000" stroke-width="2" fill="#fff"/><g><use xlink:href="#aw" transform="matrix(1,0,0,1,308.2993792525551,465) translate(18.09759259259259 27.083333333333336)"/></g><path d="M780 465.67c0-15.47 12.54-28 28-28h4.35c15.46 0 28 12.53 28 28 0 15.46-12.54 28-28 28H808c-15.46 0-28-12.54-28-28z" stroke="#000" stroke-width="2" fill="#fff"/><g><use xlink:href="#ax" transform="matrix(1,0,0,1,785,442.6655519423589) translate(18.09759259259259 27.083333333333336)"/></g><path d="M1455.04 568c0-15.46 12.54-28 28-28h4.35c15.46 0 28 12.54 28 28s-12.54 28-28 28h-4.36c-15.46 0-28-12.54-28-28z" stroke="#000" stroke-width="2" fill="#fff"/><g><use xlink:href="#ay" transform="matrix(1,0,0,1,1460.0426140388415,545) translate(18.09759259259259 27.083333333333336)"/></g><path d="M599.4 708c0-15.46 12.55-28 28-28h4.36c15.46 0 28 12.54 28 28s-12.54 28-28 28h-4.35c-15.45 0-28-12.54-28-28z" stroke="#000" stroke-width="2" fill="#fff"/><g><use xlink:href="#az" transform="matrix(1,0,0,1,604.4105348557932,685) translate(18.09759259259259 27.083333333333336)"/></g><path d="M1094.2 868c0-15.46 12.54-28 28-28h4.36c15.46 0 28 12.54 28 28s-12.54 28-28 28h-4.35c-15.46 0-28-12.54-28-28z" stroke="#000" stroke-width="2" fill="#fff"/><g><use xlink:href="#aA" transform="matrix(1,0,0,1,1099.2086157106214,845) translate(18.09759259259259 27.083333333333336)"/></g><path d="M551.47 968c0-15.46 12.54-28 28-28h4.35c15.47 0 28 12.54 28 28s-12.53 28-28 28h-4.35c-15.46 0-28-12.54-28-28z" stroke="#000" stroke-width="2" fill="#fff"/><g><use xlink:href="#aB" transform="matrix(1,0,0,1,556.4745344394062,945) translate(18.09759259259259 27.083333333333336)"/></g><path d="M964.48 1088c0-15.46 12.54-28 28-28h4.35c15.47 0 28 12.54 28 28s-12.53 28-28 28h-4.35c-15.46 0-28-12.54-28-28z" stroke="#000" stroke-width="2" fill="#fff"/><g><use xlink:href="#aC" transform="matrix(1,0,0,1,969.4836879544773,1065) translate(18.09759259259259 27.083333333333336)"/></g><path d="M1515.4 1178.7c0-15.45 12.53-28 28-28h4.34c15.47 0 28 12.55 28 28 0 15.47-12.53 28-28 28h-4.35c-15.47 0-28-12.53-28-28z" stroke="#000" stroke-width="2" fill="#fff"/><g><use xlink:href="#aD" transform="matrix(1,0,0,1,1520.3929244125436,1155.7101611642865) translate(18.09759259259259 27.083333333333336)"/></g><path d="M599.4 1409c0-15.46 12.55-28 28-28h4.36c15.46 0 28 12.54 28 28s-12.54 28-28 28h-4.35c-15.45 0-28-12.54-28-28z" stroke="#000" stroke-width="2" fill="#fff"/><g><use xlink:href="#aE" transform="matrix(1,0,0,1,604.4105348557932,1386) translate(18.09759259259259 27.083333333333336)"/></g><path d="M739.76 1648c0-15.46 12.54-28 28-28h4.35c15.48 0 28 12.54 28 28s-12.52 28-28 28h-4.34c-15.46 0-28-12.54-28-28z" stroke="#000" stroke-width="2" fill="#fff"/><g><use xlink:href="#aF" transform="matrix(1,0,0,1,744.7608452295176,1625) translate(10.690185185185184 27.083333333333336)"/></g><defs><path fill="#333" d="M63-220v92h138v28H63V0H30v-248h175v28H63" id="aG"/><path fill="#333" d="M233-177c-1 41-23 64-60 70L243 0h-38l-65-103H63V0H30v-248c88 3 205-21 203 71zM63-129c60-2 137 13 137-47 0-61-80-42-137-45v92" id="aH"/><path fill="#333" d="M140-251c81 0 123 46 123 126C263-46 219 4 140 4 59 4 17-45 17-125s42-126 123-126zm0 227c63 0 89-41 89-101s-29-99-89-99c-61 0-89 39-89 99S79-25 140-24" id="aI"/><path fill="#333" d="M190 0L58-211 59 0H30v-248h39L202-35l-2-213h31V0h-41" id="aJ"/><path fill="#333" d="M127-220V0H93v-220H8v-28h204v28h-85" id="aK"/><path fill="#333" d="M30 0v-248h187v28H63v79h144v27H63v87h162V0H30" id="aL"/><path fill="#333" d="M30-248c118-7 216 8 213 122C240-48 200 0 122 0H30v-248zM63-27c89 8 146-16 146-99s-60-101-146-95v194" id="aM"/><g id="a"><use transform="matrix(0.06172839506172839,0,0,0.06172839506172839,0,0)" xlink:href="#aG"/><use transform="matrix(0.06172839506172839,0,0,0.06172839506172839,13.518518518518517,0)" xlink:href="#aH"/><use transform="matrix(0.06172839506172839,0,0,0.06172839506172839,29.50617283950617,0)" xlink:href="#aI"/><use transform="matrix(0.06172839506172839,0,0,0.06172839506172839,46.79012345679012,0)" xlink:href="#aJ"/><use transform="matrix(0.06172839506172839,0,0,0.06172839506172839,62.77777777777777,0)" xlink:href="#aK"/><use transform="matrix(0.06172839506172839,0,0,0.06172839506172839,76.29629629629629,0)" xlink:href="#aL"/><use transform="matrix(0.06172839506172839,0,0,0.06172839506172839,91.1111111111111,0)" xlink:href="#aJ"/><use transform="matrix(0.06172839506172839,0,0,0.06172839506172839,107.09876543209876,0)" xlink:href="#aM"/></g><g id="b"><use transform="matrix(0.06172839506172839,0,0,0.06172839506172839,0,0)" xlink:href="#aI"/><use transform="matrix(0.06172839506172839,0,0,0.06172839506172839,17.28395061728395,0)" xlink:href="#aH"/></g><path fill="#333" d="M266 0h-40l-56-210L115 0H75L2-248h35L96-30l15-64 43-154h32l59 218 59-218h35" id="aN"/><path fill="#333" d="M160-131c35 5 61 23 61 61C221 17 115-2 30 0v-248c76 3 177-17 177 60 0 33-19 50-47 57zm-97-11c50-1 110 9 110-42 0-47-63-36-110-37v79zm0 115c55-2 124 14 124-45 0-56-70-42-124-44v89" id="aO"/><path fill="#333" d="M126-127c33 6 58 20 58 59 0 88-139 92-164 29-3-8-5-16-6-25l32-3c6 27 21 44 54 44 32 0 52-15 52-46 0-38-36-46-79-43v-28c39 1 72-4 72-42 0-27-17-43-46-43-28 0-47 15-49 41l-32-3c6-42 35-63 81-64 48-1 79 21 79 65 0 36-21 52-52 59" id="aP"/><g id="c"><use transform="matrix(0.06172839506172839,0,0,0.06172839506172839,0,0)" xlink:href="#aN"/><use transform="matrix(0.06172839506172839,0,0,0.06172839506172839,20.925925925925924,0)" xlink:href="#aL"/><use transform="matrix(0.06172839506172839,0,0,0.06172839506172839,35.74074074074073,0)" xlink:href="#aO"/><use transform="matrix(0.06172839506172839,0,0,0.06172839506172839,50.55555555555554,0)" xlink:href="#aP"/></g><path fill="#333" d="M240 0l2-218c-23 76-54 145-80 218h-23L58-218 59 0H30v-248h44l77 211c21-75 51-140 76-211h43V0h-30" id="aQ"/><path fill="#333" d="M33 0v-248h34V0H33" id="aR"/><g id="d"><use transform="matrix(0.06172839506172839,0,0,0.06172839506172839,0,0)" xlink:href="#aK"/><use transform="matrix(0.06172839506172839,0,0,0.06172839506172839,13.518518518518517,0)" xlink:href="#aL"/><use transform="matrix(0.06172839506172839,0,0,0.06172839506172839,28.33333333333333,0)" xlink:href="#aJ"/><use transform="matrix(0.06172839506172839,0,0,0.06172839506172839,44.32098765432098,0)" xlink:href="#aM"/><use transform="matrix(0.06172839506172839,0,0,0.06172839506172839,60.30864197530863,0)" xlink:href="#aL"/><use transform="matrix(0.06172839506172839,0,0,0.06172839506172839,75.12345679012344,0)" xlink:href="#aH"/><use transform="matrix(0.06172839506172839,0,0,0.06172839506172839,91.1111111111111,0)" xlink:href="#aQ"/><use transform="matrix(0.06172839506172839,0,0,0.06172839506172839,109.56790123456788,0)" xlink:href="#aR"/><use transform="matrix(0.06172839506172839,0,0,0.06172839506172839,115.74074074074072,0)" xlink:href="#aJ"/><use transform="matrix(0.06172839506172839,0,0,0.06172839506172839,131.72839506172838,0)" xlink:href="#aK"/></g><path fill="#333" d="M197 0v-115H63V0H30v-248h33v105h134v-105h34V0h-34" id="aS"/><path fill="#333" d="M232-93c-1 65-40 97-104 97C67 4 28-28 28-90v-158h33c8 89-33 224 67 224 102 0 64-133 71-224h33v155" id="aT"/><g id="e"><use transform="matrix(0.06172839506172839,0,0,0.06172839506172839,0,0)" xlink:href="#aL"/><use transform="matrix(0.06172839506172839,0,0,0.06172839506172839,14.814814814814813,0)" xlink:href="#aK"/><use transform="matrix(0.06172839506172839,0,0,0.06172839506172839,28.33333333333333,0)" xlink:href="#aS"/><use transform="matrix(0.06172839506172839,0,0,0.06172839506172839,44.32098765432098,0)" xlink:href="#aL"/><use transform="matrix(0.06172839506172839,0,0,0.06172839506172839,59.1358024691358,0)" xlink:href="#aH"/><use transform="matrix(0.06172839506172839,0,0,0.06172839506172839,75.12345679012346,0)" xlink:href="#aL"/><use transform="matrix(0.06172839506172839,0,0,0.06172839506172839,89.93827160493827,0)" xlink:href="#aT"/><use transform="matrix(0.06172839506172839,0,0,0.06172839506172839,105.92592592592592,0)" xlink:href="#aQ"/></g><path fill="#333" d="M195 0l-74-108L45 0H8l94-129-87-119h37l69 98 67-98h37l-84 118L233 0h-38" id="aU"/><path fill="#333" d="M212-179c-10-28-35-45-73-45-59 0-87 40-87 99 0 60 29 101 89 101 43 0 62-24 78-52l27 14C228-24 195 4 139 4 59 4 22-46 18-125c-6-104 99-153 187-111 19 9 31 26 39 46" id="aV"/><path fill="#333" d="M205 0l-28-72H64L36 0H1l101-248h38L239 0h-34zm-38-99l-47-123c-12 45-31 82-46 123h93" id="aW"/><path fill="#333" d="M143 4C61 4 22-44 18-125c-5-107 100-154 193-111 17 8 29 25 37 43l-32 9c-13-25-37-40-76-40-61 0-88 39-88 99 0 61 29 100 91 101 35 0 62-11 79-27v-45h-74v-28h105v86C228-13 192 4 143 4" id="aX"/><g id="f"><use transform="matrix(0.06172839506172839,0,0,0.06172839506172839,0,0)" xlink:href="#aL"/><use transform="matrix(0.06172839506172839,0,0,0.06172839506172839,14.814814814814813,0)" xlink:href="#aU"/><use transform="matrix(0.06172839506172839,0,0,0.06172839506172839,29.629629629629626,0)" xlink:href="#aV"/><use transform="matrix(0.06172839506172839,0,0,0.06172839506172839,45.61728395061728,0)" xlink:href="#aS"/><use transform="matrix(0.06172839506172839,0,0,0.06172839506172839,61.60493827160493,0)" xlink:href="#aW"/><use transform="matrix(0.06172839506172839,0,0,0.06172839506172839,76.41975308641975,0)" xlink:href="#aJ"/><use transform="matrix(0.06172839506172839,0,0,0.06172839506172839,92.4074074074074,0)" xlink:href="#aX"/><use transform="matrix(0.06172839506172839,0,0,0.06172839506172839,109.69135802469135,0)" xlink:href="#aL"/></g><path fill="#333" d="M194-120c59 52 2 134-86 124-53-6-90-18-98-63l31-7c8 30 29 43 70 43 46 0 84-17 71-62-32-43-135-20-137-98-3-89 178-90 191-16l-30 9c-8-48-127-53-127 5 0 53 81 35 115 65" id="aY"/><path fill="#333" d="M248-111c6-24 9-61-24-58-72 9-57 108-77 169h-31l26-142c3-37-50-30-64-10C52-115 50-51 37 0H6l36-190h30c-1 10-6 24-4 32 13-43 101-52 105 5 13-22 29-41 61-41 90 0 28 129 23 194h-31" id="aZ"/><path fill="#333" d="M165-48c-4 18 1 34 23 27l-3 20c-29 8-62 0-52-35h-2C116-14 99 4 63 4 30 4 8-16 8-49c0-68 71-67 138-67 10-26 0-56-31-54-26 1-42 9-47 31l-32-5c8-67 160-71 144 15-5 28-9 54-15 81zM42-50c3 52 80 24 89-6 7-12 7-24 11-38-47 1-103-4-100 44" id="ba"/><path fill="#333" d="M66-151c12-25 30-51 66-40l-6 26C45-176 58-65 38 0H6l36-190h30" id="bb"/><path fill="#333" d="M51-54c-9 22 5 41 31 30L79-1C43 14 10-4 19-52l22-115H19l5-23h22l19-43h21l-9 43h35l-4 23H73" id="bc"/><g id="g"><use transform="matrix(0.06172839506172839,0,0,0.06172839506172839,0,0)" xlink:href="#aY"/><use transform="matrix(0.06172839506172839,0,0,0.06172839506172839,14.814814814814813,0)" xlink:href="#aZ"/><use transform="matrix(0.06172839506172839,0,0,0.06172839506172839,33.2716049382716,0)" xlink:href="#ba"/><use transform="matrix(0.06172839506172839,0,0,0.06172839506172839,45.61728395061728,0)" xlink:href="#bb"/><use transform="matrix(0.06172839506172839,0,0,0.06172839506172839,52.962962962962955,0)" xlink:href="#bc"/><path fill="#333" d="M-1.1 1.54H66.4v1.63H-1.1z"/></g><path fill="#333" d="M125-24c46 0 70-25 89-51l25 16C214-24 183 4 123 4 8 4-5-146 60-208c32-50 158-61 191-5 5 7 9 14 11 22l-32 10c-9-28-33-43-69-43-74 0-108 51-108 125 0 46 24 75 72 75" id="bd"/><path fill="#333" d="M30-147c31-64 166-65 159 27C183-49 158 1 86 4 9 8 1-88 30-147zM88-20c53 0 68-48 68-100 0-31-11-51-44-50-52 1-68 46-68 97 0 32 13 53 44 53" id="be"/><path fill="#333" d="M67-158c22-48 132-52 116 29L158 0h-32l25-140c3-38-53-32-70-12C52-117 51-52 38 0H6l36-190h30" id="bf"/><path fill="#333" d="M44-68c0 29 11 47 38 47 30 0 42-19 51-41l28 9C148-21 126 4 82 4 31 4 10-29 12-85c3-77 74-140 146-93 12 8 15 23 18 40l-31 5c-1-22-13-36-36-36-52 0-65 49-65 101" id="bg"/><g id="h"><use transform="matrix(0.06172839506172839,0,0,0.06172839506172839,0,0)" xlink:href="#bd"/><use transform="matrix(0.06172839506172839,0,0,0.06172839506172839,15.987654320987653,0)" xlink:href="#be"/><use transform="matrix(0.06172839506172839,0,0,0.06172839506172839,28.333333333333332,0)" xlink:href="#bf"/><use transform="matrix(0.06172839506172839,0,0,0.06172839506172839,40.67901234567901,0)" xlink:href="#bc"/><use transform="matrix(0.06172839506172839,0,0,0.06172839506172839,46.851851851851855,0)" xlink:href="#bb"/><use transform="matrix(0.06172839506172839,0,0,0.06172839506172839,54.19753086419753,0)" xlink:href="#ba"/><use transform="matrix(0.06172839506172839,0,0,0.06172839506172839,66.54320987654322,0)" xlink:href="#bg"/><use transform="matrix(0.06172839506172839,0,0,0.06172839506172839,77.65432098765433,0)" xlink:href="#bc"/><path fill="#333" d="M-1.1 1.54h86.04v1.63H-1.1z"/></g><path fill="#333" d="M119 0H84L31-248h34l41 218 126-218h36" id="bh"/><path fill="#333" d="M6 0l50-261h32L37 0H6" id="bi"/><path fill="#333" d="M50-231l6-30h32l-6 30H50zM6 0l37-190h31L37 0H6" id="bj"/><path fill="#333" d="M133-28C103 26-5 8 13-77c13-62 24-115 90-117 29-1 46 15 56 35l19-102h32L160 0h-30zM45-64c-2 27 10 43 35 43 54-1 69-50 69-103 0-29-15-46-42-46-53-1-58 58-62 106" id="bk"/><g id="i"><use transform="matrix(0.06172839506172839,0,0,0.06172839506172839,0,0)" xlink:href="#bh"/><use transform="matrix(0.06172839506172839,0,0,0.06172839506172839,14.012345679012345,0)" xlink:href="#ba"/><use transform="matrix(0.06172839506172839,0,0,0.06172839506172839,26.358024691358025,0)" xlink:href="#bi"/><use transform="matrix(0.06172839506172839,0,0,0.06172839506172839,31.23456790123457,0)" xlink:href="#bj"/><use transform="matrix(0.06172839506172839,0,0,0.06172839506172839,36.111111111111114,0)" xlink:href="#bk"/><use transform="matrix(0.06172839506172839,0,0,0.06172839506172839,48.45679012345679,0)" xlink:href="#ba"/><use transform="matrix(0.06172839506172839,0,0,0.06172839506172839,60.80246913580247,0)" xlink:href="#bc"/><use transform="matrix(0.06172839506172839,0,0,0.06172839506172839,66.9753086419753,0)" xlink:href="#be"/><use transform="matrix(0.06172839506172839,0,0,0.06172839506172839,79.32098765432099,0)" xlink:href="#bb"/><path fill="#333" d="M-1.1 1.54h88.88v1.63h-88.9z"/></g><path fill="#333" d="M249-183c0 48-29 72-75 77L221 0h-36l-43-103H65L45 0H11l48-248c83 2 190-17 190 65zm-34 3c0-55-74-39-127-41l-18 92c63-1 145 13 145-51" id="bl"/><path fill="#333" d="M111-194c62-3 86 47 72 106H45c-7 38 6 69 45 68 27-1 43-14 53-32l24 11C152-15 129 4 87 4 38 3 12-23 12-71c0-70 32-119 99-123zm44 81c14-66-71-72-95-28-4 8-8 17-11 28h106" id="bm"/><path fill="#333" d="M198-190L69 30C53 58 25 83-20 72c4-11-1-27 19-22 33-1 43-29 59-52L20-190h32L79-34l84-156h35" id="bn"/><g id="j"><use transform="matrix(0.06172839506172839,0,0,0.06172839506172839,0,0)" xlink:href="#bl"/><use transform="matrix(0.06172839506172839,0,0,0.06172839506172839,15.987654320987653,0)" xlink:href="#bm"/><use transform="matrix(0.06172839506172839,0,0,0.06172839506172839,28.333333333333332,0)" xlink:href="#bi"/><use transform="matrix(0.06172839506172839,0,0,0.06172839506172839,33.20987654320987,0)" xlink:href="#ba"/><use transform="matrix(0.06172839506172839,0,0,0.06172839506172839,45.55555555555555,0)" xlink:href="#bn"/><use transform="matrix(0.06172839506172839,0,0,0.06172839506172839,56.66666666666666,0)" xlink:href="#bm"/><use transform="matrix(0.06172839506172839,0,0,0.06172839506172839,69.01234567901234,0)" xlink:href="#bb"/><path fill="#333" d="M-1.1 1.54h78.57v1.63H-1.1z"/></g><g id="k"><use transform="matrix(0.07407407407407408,0,0,0.07407407407407408,0,0)" xlink:href="#bd"/><use transform="matrix(0.07407407407407408,0,0,0.07407407407407408,19.185185185185187,0)" xlink:href="#bi"/><use transform="matrix(0.07407407407407408,0,0,0.07407407407407408,25.037037037037035,0)" xlink:href="#bj"/><use transform="matrix(0.07407407407407408,0,0,0.07407407407407408,30.888888888888893,0)" xlink:href="#bm"/><use transform="matrix(0.07407407407407408,0,0,0.07407407407407408,45.70370370370371,0)" xlink:href="#bf"/><use transform="matrix(0.07407407407407408,0,0,0.07407407407407408,60.518518518518526,0)" xlink:href="#bc"/></g><path fill="#333" d="M124 0L87-78 21 0h-35l86-98-46-92h33l34 74 61-74h37l-83 92 50 98h-34" id="bo"/><path fill="#333" d="M67-158c15-20 31-36 64-36 94 0 33 127 27 194h-32l25-140c3-38-53-32-70-12C52-117 51-51 37 0H6l51-261h31" id="bp"/><path fill="#333" d="M103-194c29 0 47 14 56 36 2-11 5-23 8-32h30L160-5C157 61 82 97 21 62 9 55 4 45 1 30l28-7c7 42 83 31 92-3 4-16 9-38 13-55-13 20-29 36-62 36-40 0-60-25-60-64 0-71 23-131 91-131zm4 24c-53 0-58 54-61 104-2 27 10 44 36 44 49 0 65-50 67-102 1-29-15-46-42-46" id="bq"/><g id="l"><use transform="matrix(0.06172839506172839,0,0,0.06172839506172839,0,0)" xlink:href="#bm"/><use transform="matrix(0.06172839506172839,0,0,0.06172839506172839,12.345679012345679,0)" xlink:href="#bo"/><use transform="matrix(0.06172839506172839,0,0,0.06172839506172839,23.45679012345679,0)" xlink:href="#bg"/><use transform="matrix(0.06172839506172839,0,0,0.06172839506172839,34.5679012345679,0)" xlink:href="#bp"/><use transform="matrix(0.06172839506172839,0,0,0.06172839506172839,46.913580246913575,0)" xlink:href="#ba"/><use transform="matrix(0.06172839506172839,0,0,0.06172839506172839,59.25925925925925,0)" xlink:href="#bf"/><use transform="matrix(0.06172839506172839,0,0,0.06172839506172839,71.60493827160494,0)" xlink:href="#bq"/><use transform="matrix(0.06172839506172839,0,0,0.06172839506172839,83.95061728395062,0)" xlink:href="#bm"/></g><path fill="#333" d="M133-28C103 26-5 8 13-77c13-62 24-115 90-117 29-1 46 15 56 35 2-12 6-24 8-34h31L144 75h-31zM45-64c-2 27 10 43 35 43 54-1 69-50 69-103 0-29-15-46-42-46-53-1-58 58-62 106" id="br"/><path fill="#333" d="M67 3c-93-2-31-127-26-193h32L48-50c-3 39 53 32 70 12 30-34 30-101 43-152h32L157 0h-30c1-10 6-24 4-33-14 20-29 37-64 36" id="bs"/><path fill="#333" d="M55-144c13 50 104 24 104 88C159 21 15 23 1-39l26-10c6 40 102 42 102-4-13-50-104-23-104-87 0-71 143-71 148-8l-29 4c-5-35-85-37-89 0" id="bt"/><g id="m"><use transform="matrix(0.06172839506172839,0,0,0.06172839506172839,0,0)" xlink:href="#bb"/><use transform="matrix(0.06172839506172839,0,0,0.06172839506172839,7.345679012345679,0)" xlink:href="#bm"/><use transform="matrix(0.06172839506172839,0,0,0.06172839506172839,19.691358024691358,0)" xlink:href="#br"/><use transform="matrix(0.06172839506172839,0,0,0.06172839506172839,32.03703703703704,0)" xlink:href="#bs"/><use transform="matrix(0.06172839506172839,0,0,0.06172839506172839,44.382716049382715,0)" xlink:href="#bm"/><use transform="matrix(0.06172839506172839,0,0,0.06172839506172839,56.72839506172839,0)" xlink:href="#bt"/><use transform="matrix(0.06172839506172839,0,0,0.06172839506172839,67.8395061728395,0)" xlink:href="#bc"/></g><path fill="#333" d="M135-194c53 0 70 44 70 98 0 56-19 98-73 100-31 1-45-17-59-34 3 33 2 69 2 105H25l-1-265h48c2 10 0 23 3 31 11-24 29-35 60-35zM114-30c33 0 39-31 40-66 0-38-9-64-40-64-56 0-55 130 0 130" id="bu"/><path fill="#333" d="M133-34C117-15 103 5 69 4 32 3 11-16 11-54c-1-60 55-63 116-61 1-26-3-47-28-47-18 1-26 9-28 27l-52-2c7-38 36-58 82-57s74 22 75 68l1 82c-1 14 12 18 25 15v27c-30 8-71 5-69-32zm-48 3c29 0 43-24 42-57-32 0-66-3-65 30 0 17 8 27 23 27" id="bv"/><path fill="#333" d="M135-150c-39-12-60 13-60 57V0H25l-1-190h47c2 13-1 29 3 40 6-28 27-53 61-41v41" id="bw"/><path fill="#333" d="M220-157c-53 9-28 100-34 157h-49v-107c1-27-5-49-29-50C55-147 81-57 75 0H25l-1-190h47c2 12-1 28 3 38 10-53 101-56 108 0 13-22 24-43 59-42 82 1 51 116 57 194h-49v-107c-1-25-5-48-29-50" id="bx"/><path fill="#333" d="M137-138c1-29-70-34-71-4 15 46 118 7 119 86 1 83-164 76-172 9l43-7c4 19 20 25 44 25 33 8 57-30 24-41C81-84 22-81 20-136c-2-80 154-74 161-7" id="by"/><g id="n"><use transform="matrix(0.05,0,0,0.05,0,0)" xlink:href="#bu"/><use transform="matrix(0.05,0,0,0.05,10.950000000000001,0)" xlink:href="#bv"/><use transform="matrix(0.05,0,0,0.05,20.950000000000003,0)" xlink:href="#bw"/><use transform="matrix(0.05,0,0,0.05,27.950000000000003,0)" xlink:href="#bv"/><use transform="matrix(0.05,0,0,0.05,37.95,0)" xlink:href="#bx"/><use transform="matrix(0.05,0,0,0.05,53.95,0)" xlink:href="#by"/></g><path fill="#333" d="M101-234c-31-9-42 10-38 44h38v23H63V0H32v-167H5v-23h27c-7-52 17-82 69-68v24" id="bz"/><path fill="#333" d="M114-163C36-179 61-72 57 0H25l-1-190h30c1 12-1 29 2 39 6-27 23-49 58-41v29" id="bA"/><path fill="#333" d="M100-194c62-1 85 37 85 99 1 63-27 99-86 99S16-35 15-95c0-66 28-99 85-99zM99-20c44 1 53-31 53-75 0-43-8-75-51-75s-53 32-53 75 10 74 51 75" id="bB"/><path fill="#333" d="M210-169c-67 3-38 105-44 169h-31v-121c0-29-5-50-35-48C34-165 62-65 56 0H25l-1-190h30c1 10-1 24 2 32 10-44 99-50 107 0 11-21 27-35 58-36 85-2 47 119 55 194h-31v-121c0-29-5-49-35-48" id="bC"/><g id="p"><use transform="matrix(0.05,0,0,0.05,0,0)" xlink:href="#bz"/><use transform="matrix(0.05,0,0,0.05,5,0)" xlink:href="#bA"/><use transform="matrix(0.05,0,0,0.05,10.95,0)" xlink:href="#bB"/><use transform="matrix(0.05,0,0,0.05,20.95,0)" xlink:href="#bC"/></g><path fill="#333" d="M96-169c-40 0-48 33-48 73s9 75 48 75c24 0 41-14 43-38l32 2c-6 37-31 61-74 61-59 0-76-41-82-99-10-93 101-131 147-64 4 7 5 14 7 22l-32 3c-4-21-16-35-41-35" id="bD"/><path fill="#333" d="M84 4C-5 8 30-112 23-190h32v120c0 31 7 50 39 49 72-2 45-101 50-169h31l1 190h-30c-1-10 1-25-2-33-11 22-28 36-60 37" id="bE"/><path fill="#333" d="M100-194c63 0 86 42 84 106H49c0 40 14 67 53 68 26 1 43-12 49-29l28 8c-11 28-37 45-77 45C44 4 14-33 15-96c1-61 26-98 85-98zm52 81c6-60-76-77-97-28-3 7-6 17-6 28h103" id="bF"/><path fill="#333" d="M117-194c89-4 53 116 60 194h-32v-121c0-31-8-49-39-48C34-167 62-67 57 0H25l-1-190h30c1 10-1 24 2 32 11-22 29-35 61-36" id="bG"/><path fill="#333" d="M179-190L93 31C79 59 56 82 12 73V49c39 6 53-20 64-50L1-190h34L92-34l54-156h33" id="bH"/><g id="q"><use transform="matrix(0.05,0,0,0.05,0,0)" xlink:href="#bD"/><use transform="matrix(0.05,0,0,0.05,9,0)" xlink:href="#bE"/><use transform="matrix(0.05,0,0,0.05,19,0)" xlink:href="#bA"/><use transform="matrix(0.05,0,0,0.05,24.95,0)" xlink:href="#bA"/><use transform="matrix(0.05,0,0,0.05,30.899999999999995,0)" xlink:href="#bF"/><use transform="matrix(0.05,0,0,0.05,40.9,0)" xlink:href="#bG"/><use transform="matrix(0.05,0,0,0.05,50.9,0)" xlink:href="#bD"/><use transform="matrix(0.05,0,0,0.05,59.900000000000006,0)" xlink:href="#bH"/></g><path fill="#333" d="M59-47c-2 24 18 29 38 22v24C64 9 27 4 27-40v-127H5v-23h24l9-43h21v43h35v23H59v120" id="bI"/><g id="r"><use transform="matrix(0.05,0,0,0.05,0,0)" xlink:href="#bI"/><use transform="matrix(0.05,0,0,0.05,5,0)" xlink:href="#bB"/></g><path fill="#333" d="M145-31C134-9 116 4 85 4 32 4 16-35 15-94c0-59 17-99 70-100 32-1 48 14 60 33 0-11-1-24 2-32h30l-1 268h-32zM93-21c41 0 51-33 51-76s-8-73-50-73c-40 0-46 35-46 75s5 74 45 74" id="bJ"/><path fill="#333" d="M141-36C126-15 110 5 73 4 37 3 15-17 15-53c-1-64 63-63 125-63 3-35-9-54-41-54-24 1-41 7-42 31l-33-3c5-37 33-52 76-52 45 0 72 20 72 64v82c-1 20 7 32 28 27v20c-31 9-61-2-59-35zM48-53c0 20 12 33 32 33 41-3 63-29 60-74-43 2-92-5-92 41" id="bK"/><path fill="#333" d="M24-231v-30h32v30H24zM24 0v-190h32V0H24" id="bL"/><g id="s"><use transform="matrix(0.05,0,0,0.05,0,0)" xlink:href="#bJ"/><use transform="matrix(0.05,0,0,0.05,10,0)" xlink:href="#bE"/><use transform="matrix(0.05,0,0,0.05,20,0)" xlink:href="#bK"/><use transform="matrix(0.05,0,0,0.05,30,0)" xlink:href="#bG"/><use transform="matrix(0.05,0,0,0.05,40,0)" xlink:href="#bI"/><use transform="matrix(0.05,0,0,0.05,45,0)" xlink:href="#bL"/><use transform="matrix(0.05,0,0,0.05,48.95,0)" xlink:href="#bI"/><use transform="matrix(0.05,0,0,0.05,53.95,0)" xlink:href="#bH"/></g><path fill="#333" d="M85-194c31 0 48 13 60 33l-1-100h32l1 261h-30c-2-10 0-23-3-31C134-8 116 4 85 4 32 4 16-35 15-94c0-66 23-100 70-100zm9 24c-40 0-46 34-46 75 0 40 6 74 45 74 42 0 51-32 51-76 0-42-9-74-50-73" id="bM"/><path fill="#333" d="M135-143c-3-34-86-38-87 0 15 53 115 12 119 90S17 21 10-45l28-5c4 36 97 45 98 0-10-56-113-15-118-90-4-57 82-63 122-42 12 7 21 19 24 35" id="bN"/><g id="t"><use transform="matrix(0.05,0,0,0.05,0,0)" xlink:href="#bM"/><use transform="matrix(0.05,0,0,0.05,10,0)" xlink:href="#bN"/><use transform="matrix(0.05,0,0,0.05,19,0)" xlink:href="#bI"/></g><path fill="#333" d="M206 0h-36l-40-164L89 0H53L-1-190h32L70-26l43-164h34l41 164 42-164h31" id="bO"/><path fill="#333" d="M24 0v-261h32V0H24" id="bP"/><g id="u"><use transform="matrix(0.05,0,0,0.05,0,0)" xlink:href="#bO"/><use transform="matrix(0.05,0,0,0.05,12.950000000000001,0)" xlink:href="#bK"/><use transform="matrix(0.05,0,0,0.05,22.950000000000003,0)" xlink:href="#bP"/><use transform="matrix(0.05,0,0,0.05,26.900000000000002,0)" xlink:href="#bP"/><use transform="matrix(0.05,0,0,0.05,30.85,0)" xlink:href="#bF"/><use transform="matrix(0.05,0,0,0.05,40.85,0)" xlink:href="#bI"/></g><g id="v"><use transform="matrix(0.06172839506172839,0,0,0.06172839506172839,0,0)" xlink:href="#bL"/><use transform="matrix(0.06172839506172839,0,0,0.06172839506172839,4.876543209876543,0)" xlink:href="#bM"/></g><g id="w"><use transform="matrix(0.06172839506172839,0,0,0.06172839506172839,0,0)" xlink:href="#bD"/><use transform="matrix(0.06172839506172839,0,0,0.06172839506172839,11.11111111111111,0)" xlink:href="#bA"/><use transform="matrix(0.06172839506172839,0,0,0.06172839506172839,18.45679012345679,0)" xlink:href="#bF"/><use transform="matrix(0.06172839506172839,0,0,0.06172839506172839,30.80246913580247,0)" xlink:href="#bK"/><use transform="matrix(0.06172839506172839,0,0,0.06172839506172839,43.148148148148145,0)" xlink:href="#bI"/><use transform="matrix(0.06172839506172839,0,0,0.06172839506172839,49.32098765432099,0)" xlink:href="#bF"/></g><g id="x"><use transform="matrix(0.06172839506172839,0,0,0.06172839506172839,0,0)" xlink:href="#bK"/><use transform="matrix(0.06172839506172839,0,0,0.06172839506172839,12.345679012345679,0)" xlink:href="#bG"/><use transform="matrix(0.06172839506172839,0,0,0.06172839506172839,24.691358024691358,0)" xlink:href="#bG"/><use transform="matrix(0.06172839506172839,0,0,0.06172839506172839,37.03703703703704,0)" xlink:href="#bB"/><use transform="matrix(0.06172839506172839,0,0,0.06172839506172839,49.382716049382715,0)" xlink:href="#bE"/><use transform="matrix(0.06172839506172839,0,0,0.06172839506172839,61.72839506172839,0)" xlink:href="#bG"/><use transform="matrix(0.06172839506172839,0,0,0.06172839506172839,74.07407407407408,0)" xlink:href="#bD"/><use transform="matrix(0.06172839506172839,0,0,0.06172839506172839,85.18518518518519,0)" xlink:href="#bF"/></g><path fill="#333" d="M188 0h-37l-8-164L71 0H34L18-190h31l8 164 75-164h34l8 164 74-164h31" id="bQ"/><g id="y"><use transform="matrix(0.06172839506172839,0,0,0.06172839506172839,0,0)" xlink:href="#bf"/><use transform="matrix(0.06172839506172839,0,0,0.06172839506172839,12.345679012345679,0)" xlink:href="#bm"/><use transform="matrix(0.06172839506172839,0,0,0.06172839506172839,24.691358024691358,0)" xlink:href="#bQ"/></g><g id="z"><use transform="matrix(0.06172839506172839,0,0,0.06172839506172839,0,0)" xlink:href="#ba"/><use transform="matrix(0.06172839506172839,0,0,0.06172839506172839,12.345679012345679,0)" xlink:href="#bf"/><use transform="matrix(0.06172839506172839,0,0,0.06172839506172839,24.691358024691358,0)" xlink:href="#bf"/><use transform="matrix(0.06172839506172839,0,0,0.06172839506172839,37.03703703703704,0)" xlink:href="#be"/><use transform="matrix(0.06172839506172839,0,0,0.06172839506172839,49.382716049382715,0)" xlink:href="#bs"/><use transform="matrix(0.06172839506172839,0,0,0.06172839506172839,61.72839506172839,0)" xlink:href="#bf"/><use transform="matrix(0.06172839506172839,0,0,0.06172839506172839,74.07407407407408,0)" xlink:href="#bg"/><use transform="matrix(0.06172839506172839,0,0,0.06172839506172839,85.18518518518519,0)" xlink:href="#bm"/></g><path fill="#333" d="M89 0H52L20-190h33L74-25l89-165h34" id="bR"/><g id="A"><use transform="matrix(0.06172839506172839,0,0,0.06172839506172839,0,0)" xlink:href="#bm"/><use transform="matrix(0.06172839506172839,0,0,0.06172839506172839,12.345679012345679,0)" xlink:href="#bR"/><use transform="matrix(0.06172839506172839,0,0,0.06172839506172839,23.45679012345679,0)" xlink:href="#bm"/><use transform="matrix(0.06172839506172839,0,0,0.06172839506172839,35.80246913580247,0)" xlink:href="#bf"/><use transform="matrix(0.06172839506172839,0,0,0.06172839506172839,48.148148148148145,0)" xlink:href="#bc"/></g><path fill="#333" d="M68-162c25-46 127-43 121 31C183-60 169 1 98 4 69 5 53-11 43-31L36 0H5l52-261h31zm88 36c2-27-9-43-34-43-55 0-70 51-70 103 0 29 15 45 43 46 52 0 58-58 61-106" id="bS"/><g id="B"><use transform="matrix(0.06172839506172839,0,0,0.06172839506172839,0,0)" xlink:href="#bS"/><use transform="matrix(0.06172839506172839,0,0,0.06172839506172839,12.345679012345679,0)" xlink:href="#bj"/><use transform="matrix(0.06172839506172839,0,0,0.06172839506172839,17.22222222222222,0)" xlink:href="#bk"/></g><g id="C"><use transform="matrix(0.06172839506172839,0,0,0.06172839506172839,0,0)" xlink:href="#bA"/><use transform="matrix(0.06172839506172839,0,0,0.06172839506172839,7.345679012345679,0)" xlink:href="#bF"/><use transform="matrix(0.06172839506172839,0,0,0.06172839506172839,19.691358024691358,0)" xlink:href="#bI"/><use transform="matrix(0.06172839506172839,0,0,0.06172839506172839,25.864197530864196,0)" xlink:href="#bE"/><use transform="matrix(0.06172839506172839,0,0,0.06172839506172839,38.20987654320987,0)" xlink:href="#bA"/><use transform="matrix(0.06172839506172839,0,0,0.06172839506172839,45.55555555555555,0)" xlink:href="#bG"/></g><g id="D"><use transform="matrix(0.06172839506172839,0,0,0.06172839506172839,0,0)" xlink:href="#bN"/><use transform="matrix(0.06172839506172839,0,0,0.06172839506172839,11.11111111111111,0)" xlink:href="#bF"/><use transform="matrix(0.06172839506172839,0,0,0.06172839506172839,23.45679012345679,0)" xlink:href="#bK"/><use transform="matrix(0.06172839506172839,0,0,0.06172839506172839,35.80246913580247,0)" xlink:href="#bP"/><use transform="matrix(0.06172839506172839,0,0,0.06172839506172839,40.67901234567901,0)" xlink:href="#bF"/><use transform="matrix(0.06172839506172839,0,0,0.06172839506172839,53.02469135802469,0)" xlink:href="#bM"/></g><path fill="#333" d="M115-194c53 0 69 39 70 98 0 66-23 100-70 100C84 3 66-7 56-30L54 0H23l1-261h32v101c10-23 28-34 59-34zm-8 174c40 0 45-34 45-75 0-40-5-75-45-74-42 0-51 32-51 76 0 43 10 73 51 73" id="bT"/><g id="E"><use transform="matrix(0.06172839506172839,0,0,0.06172839506172839,0,0)" xlink:href="#bT"/><use transform="matrix(0.06172839506172839,0,0,0.06172839506172839,12.345679012345679,0)" xlink:href="#bL"/><use transform="matrix(0.06172839506172839,0,0,0.06172839506172839,17.22222222222222,0)" xlink:href="#bM"/></g><path fill="#333" d="M115-194c55 1 70 41 70 98S169 2 115 4C84 4 66-9 55-30l1 105H24l-1-265h31l2 30c10-21 28-34 59-34zm-8 174c40 0 45-34 45-75s-6-73-45-74c-42 0-51 32-51 76 0 43 10 73 51 73" id="bU"/><g id="F"><use transform="matrix(0.05555555555555555,0,0,0.05555555555555555,0,0)" xlink:href="#bU"/><use transform="matrix(0.05555555555555555,0,0,0.05555555555555555,11.11111111111111,0)" xlink:href="#bB"/><use transform="matrix(0.05555555555555555,0,0,0.05555555555555555,22.22222222222222,0)" xlink:href="#bN"/><use transform="matrix(0.05555555555555555,0,0,0.05555555555555555,32.22222222222222,0)" xlink:href="#bI"/></g><g id="G"><use transform="matrix(0.05555555555555555,0,0,0.05555555555555555,0,0)" xlink:href="#bN"/><use transform="matrix(0.05555555555555555,0,0,0.05555555555555555,10,0)" xlink:href="#bF"/><use transform="matrix(0.05555555555555555,0,0,0.05555555555555555,21.11111111111111,0)" xlink:href="#bK"/><use transform="matrix(0.05555555555555555,0,0,0.05555555555555555,32.22222222222222,0)" xlink:href="#bP"/><use transform="matrix(0.05555555555555555,0,0,0.05555555555555555,36.61111111111111,0)" xlink:href="#bF"/><use transform="matrix(0.05555555555555555,0,0,0.05555555555555555,47.722222222222214,0)" xlink:href="#bM"/></g><g id="H"><use transform="matrix(0.05555555555555555,0,0,0.05555555555555555,0,0)" xlink:href="#bT"/><use transform="matrix(0.05555555555555555,0,0,0.05555555555555555,11.11111111111111,0)" xlink:href="#bL"/><use transform="matrix(0.05555555555555555,0,0,0.05555555555555555,15.5,0)" xlink:href="#bM"/></g><g id="I"><use transform="matrix(0.05555555555555555,0,0,0.05555555555555555,0,0)" xlink:href="#bK"/><use transform="matrix(0.05555555555555555,0,0,0.05555555555555555,11.11111111111111,0)" xlink:href="#bG"/><use transform="matrix(0.05555555555555555,0,0,0.05555555555555555,22.22222222222222,0)" xlink:href="#bM"/></g><g id="J"><use transform="matrix(0.05555555555555555,0,0,0.05555555555555555,0,0)" xlink:href="#bN"/><use transform="matrix(0.05555555555555555,0,0,0.05555555555555555,10,0)" xlink:href="#bB"/><use transform="matrix(0.05555555555555555,0,0,0.05555555555555555,21.11111111111111,0)" xlink:href="#bE"/><use transform="matrix(0.05555555555555555,0,0,0.05555555555555555,32.22222222222222,0)" xlink:href="#bA"/><use transform="matrix(0.05555555555555555,0,0,0.05555555555555555,38.83333333333333,0)" xlink:href="#bD"/><use transform="matrix(0.05555555555555555,0,0,0.05555555555555555,48.83333333333333,0)" xlink:href="#bF"/></g><g id="K"><use transform="matrix(0.05555555555555555,0,0,0.05555555555555555,0,0)" xlink:href="#bO"/><use transform="matrix(0.05555555555555555,0,0,0.05555555555555555,14.388888888888888,0)" xlink:href="#bK"/><use transform="matrix(0.05555555555555555,0,0,0.05555555555555555,25.5,0)" xlink:href="#bP"/><use transform="matrix(0.05555555555555555,0,0,0.05555555555555555,29.888888888888886,0)" xlink:href="#bP"/><use transform="matrix(0.05555555555555555,0,0,0.05555555555555555,34.27777777777778,0)" xlink:href="#bF"/><use transform="matrix(0.05555555555555555,0,0,0.05555555555555555,45.388888888888886,0)" xlink:href="#bI"/></g><g id="L"><use transform="matrix(0.06172839506172839,0,0,0.06172839506172839,0,0)" xlink:href="#bU"/><use transform="matrix(0.06172839506172839,0,0,0.06172839506172839,12.345679012345679,0)" xlink:href="#bP"/><use transform="matrix(0.06172839506172839,0,0,0.06172839506172839,17.22222222222222,0)" xlink:href="#bK"/><use transform="matrix(0.06172839506172839,0,0,0.06172839506172839,29.5679012345679,0)" xlink:href="#bD"/><use transform="matrix(0.06172839506172839,0,0,0.06172839506172839,40.67901234567901,0)" xlink:href="#bF"/></g><g id="M"><use transform="matrix(0.06172839506172839,0,0,0.06172839506172839,0,0)" xlink:href="#bF"/><use transform="matrix(0.06172839506172839,0,0,0.06172839506172839,12.345679012345679,0)" xlink:href="#bG"/><use transform="matrix(0.06172839506172839,0,0,0.06172839506172839,24.691358024691358,0)" xlink:href="#bM"/></g><path fill="#333" d="M177-190C167-65 218 103 67 71c-23-6-38-20-44-43l32-5c15 47 100 32 89-28v-30C133-14 115 1 83 1 29 1 15-40 15-95c0-56 16-97 71-98 29-1 48 16 59 35 1-10 0-23 2-32h30zM94-22c36 0 50-32 50-73 0-42-14-75-50-75-39 0-46 34-46 75s6 73 46 73" id="bV"/><g id="N"><use transform="matrix(0.06172839506172839,0,0,0.06172839506172839,0,0)" xlink:href="#bT"/><use transform="matrix(0.06172839506172839,0,0,0.06172839506172839,12.345679012345679,0)" xlink:href="#bL"/><use transform="matrix(0.06172839506172839,0,0,0.06172839506172839,17.22222222222222,0)" xlink:href="#bM"/><use transform="matrix(0.06172839506172839,0,0,0.06172839506172839,29.5679012345679,0)" xlink:href="#bM"/><use transform="matrix(0.06172839506172839,0,0,0.06172839506172839,41.913580246913575,0)" xlink:href="#bL"/><use transform="matrix(0.06172839506172839,0,0,0.06172839506172839,46.79012345679012,0)" xlink:href="#bG"/><use transform="matrix(0.06172839506172839,0,0,0.06172839506172839,59.1358024691358,0)" xlink:href="#bV"/></g><g id="O"><use transform="matrix(0.06172839506172839,0,0,0.06172839506172839,0,0)" xlink:href="#bT"/><use transform="matrix(0.06172839506172839,0,0,0.06172839506172839,12.345679012345679,0)" xlink:href="#bL"/><use transform="matrix(0.06172839506172839,0,0,0.06172839506172839,17.22222222222222,0)" xlink:href="#bM"/><use transform="matrix(0.06172839506172839,0,0,0.06172839506172839,29.5679012345679,0)" xlink:href="#bN"/></g><g id="P"><use transform="matrix(0.06172839506172839,0,0,0.06172839506172839,0,0)" xlink:href="#bP"/><use transform="matrix(0.06172839506172839,0,0,0.06172839506172839,4.876543209876543,0)" xlink:href="#bL"/><use transform="matrix(0.06172839506172839,0,0,0.06172839506172839,9.753086419753085,0)" xlink:href="#bN"/><use transform="matrix(0.06172839506172839,0,0,0.06172839506172839,20.864197530864196,0)" xlink:href="#bI"/></g><g id="Q"><use transform="matrix(0.06172839506172839,0,0,0.06172839506172839,0,0)" xlink:href="#bD"/><use transform="matrix(0.06172839506172839,0,0,0.06172839506172839,11.11111111111111,0)" xlink:href="#bB"/><use transform="matrix(0.06172839506172839,0,0,0.06172839506172839,23.45679012345679,0)" xlink:href="#bC"/><use transform="matrix(0.06172839506172839,0,0,0.06172839506172839,41.91358024691358,0)" xlink:href="#bU"/><use transform="matrix(0.06172839506172839,0,0,0.06172839506172839,54.25925925925926,0)" xlink:href="#bE"/><use transform="matrix(0.06172839506172839,0,0,0.06172839506172839,66.60493827160494,0)" xlink:href="#bI"/><use transform="matrix(0.06172839506172839,0,0,0.06172839506172839,72.77777777777777,0)" xlink:href="#bF"/></g><g id="R"><use transform="matrix(0.06172839506172839,0,0,0.06172839506172839,0,0)" xlink:href="#bO"/><use transform="matrix(0.06172839506172839,0,0,0.06172839506172839,15.987654320987653,0)" xlink:href="#bL"/><use transform="matrix(0.06172839506172839,0,0,0.06172839506172839,20.864197530864196,0)" xlink:href="#bG"/><use transform="matrix(0.06172839506172839,0,0,0.06172839506172839,33.20987654320987,0)" xlink:href="#bG"/><use transform="matrix(0.06172839506172839,0,0,0.06172839506172839,45.55555555555555,0)" xlink:href="#bF"/><use transform="matrix(0.06172839506172839,0,0,0.06172839506172839,57.90123456790123,0)" xlink:href="#bA"/><use transform="matrix(0.06172839506172839,0,0,0.06172839506172839,65.24691358024691,0)" xlink:href="#bN"/></g><path fill="#333" d="M141 0L90-78 38 0H4l68-98-65-92h35l48 74 47-74h35l-64 92 68 98h-35" id="bW"/><g id="S"><use transform="matrix(0.06172839506172839,0,0,0.06172839506172839,0,0)" xlink:href="#bF"/><use transform="matrix(0.06172839506172839,0,0,0.06172839506172839,12.345679012345679,0)" xlink:href="#bW"/><use transform="matrix(0.06172839506172839,0,0,0.06172839506172839,23.45679012345679,0)" xlink:href="#bF"/><use transform="matrix(0.06172839506172839,0,0,0.06172839506172839,35.80246913580247,0)" xlink:href="#bD"/></g><g id="T"><use transform="matrix(0.06172839506172839,0,0,0.06172839506172839,0,0)" xlink:href="#bA"/><use transform="matrix(0.06172839506172839,0,0,0.06172839506172839,7.345679012345679,0)" xlink:href="#bF"/><use transform="matrix(0.06172839506172839,0,0,0.06172839506172839,19.691358024691358,0)" xlink:href="#bJ"/><use transform="matrix(0.06172839506172839,0,0,0.06172839506172839,32.03703703703704,0)" xlink:href="#bE"/><use transform="matrix(0.06172839506172839,0,0,0.06172839506172839,44.382716049382715,0)" xlink:href="#bF"/><use transform="matrix(0.06172839506172839,0,0,0.06172839506172839,56.72839506172839,0)" xlink:href="#bN"/><use transform="matrix(0.06172839506172839,0,0,0.06172839506172839,67.8395061728395,0)" xlink:href="#bI"/></g><g id="U"><use transform="matrix(0.06172839506172839,0,0,0.06172839506172839,0,0)" xlink:href="#bN"/><use transform="matrix(0.06172839506172839,0,0,0.06172839506172839,11.11111111111111,0)" xlink:href="#bB"/><use transform="matrix(0.06172839506172839,0,0,0.06172839506172839,23.45679012345679,0)" xlink:href="#bE"/><use transform="matrix(0.06172839506172839,0,0,0.06172839506172839,35.80246913580247,0)" xlink:href="#bA"/><use transform="matrix(0.06172839506172839,0,0,0.06172839506172839,43.148148148148145,0)" xlink:href="#bD"/><use transform="matrix(0.06172839506172839,0,0,0.06172839506172839,54.25925925925925,0)" xlink:href="#bF"/></g><g id="V"><use transform="matrix(0.06172839506172839,0,0,0.06172839506172839,0,0)" xlink:href="#bK"/><use transform="matrix(0.06172839506172839,0,0,0.06172839506172839,12.345679012345679,0)" xlink:href="#bC"/><use transform="matrix(0.06172839506172839,0,0,0.06172839506172839,30.80246913580247,0)" xlink:href="#bB"/><use transform="matrix(0.06172839506172839,0,0,0.06172839506172839,43.148148148148145,0)" xlink:href="#bE"/><use transform="matrix(0.06172839506172839,0,0,0.06172839506172839,55.49382716049382,0)" xlink:href="#bG"/><use transform="matrix(0.06172839506172839,0,0,0.06172839506172839,67.8395061728395,0)" xlink:href="#bI"/></g><g id="W"><use transform="matrix(0.06172839506172839,0,0,0.06172839506172839,0,0)" xlink:href="#bN"/><use transform="matrix(0.06172839506172839,0,0,0.06172839506172839,11.11111111111111,0)" xlink:href="#bF"/><use transform="matrix(0.06172839506172839,0,0,0.06172839506172839,23.45679012345679,0)" xlink:href="#bG"/><use transform="matrix(0.06172839506172839,0,0,0.06172839506172839,35.80246913580247,0)" xlink:href="#bM"/></g><g id="X"><use transform="matrix(0.06172839506172839,0,0,0.06172839506172839,0,0)" xlink:href="#bN"/><use transform="matrix(0.06172839506172839,0,0,0.06172839506172839,11.11111111111111,0)" xlink:href="#bB"/><use transform="matrix(0.06172839506172839,0,0,0.06172839506172839,23.45679012345679,0)" xlink:href="#bE"/><use transform="matrix(0.06172839506172839,0,0,0.06172839506172839,35.80246913580247,0)" xlink:href="#bA"/><use transform="matrix(0.06172839506172839,0,0,0.06172839506172839,43.148148148148145,0)" xlink:href="#bD"/><use transform="matrix(0.06172839506172839,0,0,0.06172839506172839,54.25925925925925,0)" xlink:href="#bF"/></g><g id="Y"><use transform="matrix(0.06172839506172839,0,0,0.06172839506172839,0,0)" xlink:href="#bK"/><use transform="matrix(0.06172839506172839,0,0,0.06172839506172839,12.345679012345679,0)" xlink:href="#bC"/><use transform="matrix(0.06172839506172839,0,0,0.06172839506172839,30.80246913580247,0)" xlink:href="#bB"/><use transform="matrix(0.06172839506172839,0,0,0.06172839506172839,43.148148148148145,0)" xlink:href="#bE"/><use transform="matrix(0.06172839506172839,0,0,0.06172839506172839,55.49382716049382,0)" xlink:href="#bG"/><use transform="matrix(0.06172839506172839,0,0,0.06172839506172839,67.8395061728395,0)" xlink:href="#bI"/></g><g id="Z"><use transform="matrix(0.06172839506172839,0,0,0.06172839506172839,0,0)" xlink:href="#bI"/><use transform="matrix(0.06172839506172839,0,0,0.06172839506172839,6.172839506172839,0)" xlink:href="#bB"/></g><g id="aa"><use transform="matrix(0.06172839506172839,0,0,0.06172839506172839,0,0)" xlink:href="#bA"/><use transform="matrix(0.06172839506172839,0,0,0.06172839506172839,7.345679012345679,0)" xlink:href="#bF"/><use transform="matrix(0.06172839506172839,0,0,0.06172839506172839,19.691358024691358,0)" xlink:href="#bP"/><use transform="matrix(0.06172839506172839,0,0,0.06172839506172839,24.5679012345679,0)" xlink:href="#bK"/><use transform="matrix(0.06172839506172839,0,0,0.06172839506172839,36.913580246913575,0)" xlink:href="#bH"/><use transform="matrix(0.06172839506172839,0,0,0.06172839506172839,48.02469135802468,0)" xlink:href="#bF"/><use transform="matrix(0.06172839506172839,0,0,0.06172839506172839,60.37037037037036,0)" xlink:href="#bA"/></g><g id="ab"><use transform="matrix(0.06172839506172839,0,0,0.06172839506172839,0,0)" xlink:href="#bO"/><use transform="matrix(0.06172839506172839,0,0,0.06172839506172839,15.987654320987653,0)" xlink:href="#bK"/><use transform="matrix(0.06172839506172839,0,0,0.06172839506172839,28.333333333333332,0)" xlink:href="#bP"/><use transform="matrix(0.06172839506172839,0,0,0.06172839506172839,33.20987654320987,0)" xlink:href="#bP"/><use transform="matrix(0.06172839506172839,0,0,0.06172839506172839,38.08641975308642,0)" xlink:href="#bF"/><use transform="matrix(0.06172839506172839,0,0,0.06172839506172839,50.432098765432094,0)" xlink:href="#bI"/></g><g id="ac"><use transform="matrix(0.06172839506172839,0,0,0.06172839506172839,0,0)" xlink:href="#bN"/><use transform="matrix(0.06172839506172839,0,0,0.06172839506172839,11.11111111111111,0)" xlink:href="#bB"/><use transform="matrix(0.06172839506172839,0,0,0.06172839506172839,23.45679012345679,0)" xlink:href="#bE"/><use transform="matrix(0.06172839506172839,0,0,0.06172839506172839,35.80246913580247,0)" xlink:href="#bA"/><use transform="matrix(0.06172839506172839,0,0,0.06172839506172839,43.148148148148145,0)" xlink:href="#bD"/><use transform="matrix(0.06172839506172839,0,0,0.06172839506172839,54.25925925925925,0)" xlink:href="#bF"/></g><g id="ad"><use transform="matrix(0.06172839506172839,0,0,0.06172839506172839,0,0)" xlink:href="#bM"/><use transform="matrix(0.06172839506172839,0,0,0.06172839506172839,12.345679012345679,0)" xlink:href="#bF"/><use transform="matrix(0.06172839506172839,0,0,0.06172839506172839,24.691358024691358,0)" xlink:href="#bU"/><use transform="matrix(0.06172839506172839,0,0,0.06172839506172839,37.03703703703704,0)" xlink:href="#bB"/><use transform="matrix(0.06172839506172839,0,0,0.06172839506172839,49.382716049382715,0)" xlink:href="#bN"/><use transform="matrix(0.06172839506172839,0,0,0.06172839506172839,60.49382716049382,0)" xlink:href="#bL"/><use transform="matrix(0.06172839506172839,0,0,0.06172839506172839,65.37037037037037,0)" xlink:href="#bI"/></g><g id="ae"><use transform="matrix(0.06172839506172839,0,0,0.06172839506172839,0,0)" xlink:href="#bM"/><use transform="matrix(0.06172839506172839,0,0,0.06172839506172839,12.345679012345679,0)" xlink:href="#bB"/><use transform="matrix(0.06172839506172839,0,0,0.06172839506172839,24.691358024691358,0)" xlink:href="#bG"/><use transform="matrix(0.06172839506172839,0,0,0.06172839506172839,37.03703703703704,0)" xlink:href="#bF"/></g><g id="af"><use transform="matrix(0.06172839506172839,0,0,0.06172839506172839,0,0)" xlink:href="#bM"/><use transform="matrix(0.06172839506172839,0,0,0.06172839506172839,12.345679012345679,0)" xlink:href="#bF"/><use transform="matrix(0.06172839506172839,0,0,0.06172839506172839,24.691358024691358,0)" xlink:href="#bU"/><use transform="matrix(0.06172839506172839,0,0,0.06172839506172839,37.03703703703704,0)" xlink:href="#bB"/><use transform="matrix(0.06172839506172839,0,0,0.06172839506172839,49.382716049382715,0)" xlink:href="#bN"/><use transform="matrix(0.06172839506172839,0,0,0.06172839506172839,60.49382716049382,0)" xlink:href="#bL"/><use transform="matrix(0.06172839506172839,0,0,0.06172839506172839,65.37037037037037,0)" xlink:href="#bI"/></g><g id="ag"><use transform="matrix(0.06172839506172839,0,0,0.06172839506172839,0,0)" xlink:href="#bM"/><use transform="matrix(0.06172839506172839,0,0,0.06172839506172839,12.345679012345679,0)" xlink:href="#bB"/><use transform="matrix(0.06172839506172839,0,0,0.06172839506172839,24.691358024691358,0)" xlink:href="#bG"/><use transform="matrix(0.06172839506172839,0,0,0.06172839506172839,37.03703703703704,0)" xlink:href="#bF"/></g><path fill="#333" d="M108 0H70L1-190h34L89-25l56-165h34" id="bX"/><g id="ah"><use transform="matrix(0.06172839506172839,0,0,0.06172839506172839,0,0)" xlink:href="#bF"/><use transform="matrix(0.06172839506172839,0,0,0.06172839506172839,12.345679012345679,0)" xlink:href="#bX"/><use transform="matrix(0.06172839506172839,0,0,0.06172839506172839,23.45679012345679,0)" xlink:href="#bF"/><use transform="matrix(0.06172839506172839,0,0,0.06172839506172839,35.80246913580247,0)" xlink:href="#bG"/><use transform="matrix(0.06172839506172839,0,0,0.06172839506172839,48.148148148148145,0)" xlink:href="#bI"/></g><path fill="#333" d="M106-169C34-169 62-67 57 0H25v-261h32l-1 103c12-21 28-36 61-36 89 0 53 116 60 194h-32v-121c2-32-8-49-39-48" id="bY"/><g id="ai"><use transform="matrix(0.06172839506172839,0,0,0.06172839506172839,0,0)" xlink:href="#bF"/><use transform="matrix(0.06172839506172839,0,0,0.06172839506172839,12.345679012345679,0)" xlink:href="#bW"/><use transform="matrix(0.06172839506172839,0,0,0.06172839506172839,23.45679012345679,0)" xlink:href="#bD"/><use transform="matrix(0.06172839506172839,0,0,0.06172839506172839,34.5679012345679,0)" xlink:href="#bY"/><use transform="matrix(0.06172839506172839,0,0,0.06172839506172839,46.913580246913575,0)" xlink:href="#bK"/><use transform="matrix(0.06172839506172839,0,0,0.06172839506172839,59.25925925925925,0)" xlink:href="#bG"/><use transform="matrix(0.06172839506172839,0,0,0.06172839506172839,71.60493827160494,0)" xlink:href="#bV"/><use transform="matrix(0.06172839506172839,0,0,0.06172839506172839,83.95061728395062,0)" xlink:href="#bF"/></g><g id="aj"><use transform="matrix(0.06172839506172839,0,0,0.06172839506172839,0,0)" xlink:href="#bA"/><use transform="matrix(0.06172839506172839,0,0,0.06172839506172839,7.345679012345679,0)" xlink:href="#bF"/><use transform="matrix(0.06172839506172839,0,0,0.06172839506172839,19.691358024691358,0)" xlink:href="#bN"/><use transform="matrix(0.06172839506172839,0,0,0.06172839506172839,30.80246913580247,0)" xlink:href="#bE"/><use transform="matrix(0.06172839506172839,0,0,0.06172839506172839,43.148148148148145,0)" xlink:href="#bP"/><use transform="matrix(0.06172839506172839,0,0,0.06172839506172839,48.02469135802469,0)" xlink:href="#bI"/><use transform="matrix(0.06172839506172839,0,0,0.06172839506172839,54.19753086419753,0)" xlink:href="#bL"/><use transform="matrix(0.06172839506172839,0,0,0.06172839506172839,59.074074074074076,0)" xlink:href="#bG"/><use transform="matrix(0.06172839506172839,0,0,0.06172839506172839,71.41975308641976,0)" xlink:href="#bV"/></g><g id="ak"><use transform="matrix(0.06172839506172839,0,0,0.06172839506172839,0,0)" xlink:href="#bI"/><use transform="matrix(0.06172839506172839,0,0,0.06172839506172839,6.172839506172839,0)" xlink:href="#bB"/></g><g id="al"><use transform="matrix(0.06172839506172839,0,0,0.06172839506172839,0,0)" xlink:href="#bD"/><use transform="matrix(0.06172839506172839,0,0,0.06172839506172839,11.11111111111111,0)" xlink:href="#bP"/><use transform="matrix(0.06172839506172839,0,0,0.06172839506172839,15.987654320987653,0)" xlink:href="#bL"/><use transform="matrix(0.06172839506172839,0,0,0.06172839506172839,20.864197530864196,0)" xlink:href="#bF"/><use transform="matrix(0.06172839506172839,0,0,0.06172839506172839,33.20987654320987,0)" xlink:href="#bG"/><use transform="matrix(0.06172839506172839,0,0,0.06172839506172839,45.55555555555555,0)" xlink:href="#bI"/></g><g id="am"><use transform="matrix(0.06172839506172839,0,0,0.06172839506172839,0,0)" xlink:href="#bB"/><use transform="matrix(0.06172839506172839,0,0,0.06172839506172839,12.345679012345679,0)" xlink:href="#bz"/></g><g id="an"><use transform="matrix(0.06172839506172839,0,0,0.06172839506172839,0,0)" xlink:href="#bF"/><use transform="matrix(0.06172839506172839,0,0,0.06172839506172839,12.345679012345679,0)" xlink:href="#bW"/><use transform="matrix(0.06172839506172839,0,0,0.06172839506172839,23.45679012345679,0)" xlink:href="#bF"/><use transform="matrix(0.06172839506172839,0,0,0.06172839506172839,35.80246913580247,0)" xlink:href="#bD"/><use transform="matrix(0.06172839506172839,0,0,0.06172839506172839,46.91358024691358,0)" xlink:href="#bE"/><use transform="matrix(0.06172839506172839,0,0,0.06172839506172839,59.25925925925926,0)" xlink:href="#bI"/><use transform="matrix(0.06172839506172839,0,0,0.06172839506172839,65.4320987654321,0)" xlink:href="#bL"/><use transform="matrix(0.06172839506172839,0,0,0.06172839506172839,70.30864197530865,0)" xlink:href="#bB"/><use transform="matrix(0.06172839506172839,0,0,0.06172839506172839,82.65432098765433,0)" xlink:href="#bG"/></g><g id="ao"><use transform="matrix(0.05555555555555555,0,0,0.05555555555555555,0,0)" xlink:href="#bM"/><use transform="matrix(0.05555555555555555,0,0,0.05555555555555555,11.11111111111111,0)" xlink:href="#bL"/><use transform="matrix(0.05555555555555555,0,0,0.05555555555555555,15.5,0)" xlink:href="#bN"/><use transform="matrix(0.05555555555555555,0,0,0.05555555555555555,25.5,0)" xlink:href="#bI"/><use transform="matrix(0.05555555555555555,0,0,0.05555555555555555,31.05555555555556,0)" xlink:href="#bA"/><use transform="matrix(0.05555555555555555,0,0,0.05555555555555555,37.66666666666667,0)" xlink:href="#bL"/><use transform="matrix(0.05555555555555555,0,0,0.05555555555555555,42.05555555555556,0)" xlink:href="#bT"/><use transform="matrix(0.05555555555555555,0,0,0.05555555555555555,53.16666666666667,0)" xlink:href="#bE"/><use transform="matrix(0.05555555555555555,0,0,0.05555555555555555,64.27777777777779,0)" xlink:href="#bI"/><use transform="matrix(0.05555555555555555,0,0,0.05555555555555555,69.83333333333334,0)" xlink:href="#bF"/></g><g id="ap"><use transform="matrix(0.05555555555555555,0,0,0.05555555555555555,0,0)" xlink:href="#bz"/><use transform="matrix(0.05555555555555555,0,0,0.05555555555555555,5.555555555555555,0)" xlink:href="#bF"/><use transform="matrix(0.05555555555555555,0,0,0.05555555555555555,16.666666666666664,0)" xlink:href="#bF"/><use transform="matrix(0.05555555555555555,0,0,0.05555555555555555,27.777777777777775,0)" xlink:href="#bN"/></g><g id="aq"><use transform="matrix(0.05555555555555555,0,0,0.05555555555555555,0,0)" xlink:href="#bU"/><use transform="matrix(0.05555555555555555,0,0,0.05555555555555555,11.11111111111111,0)" xlink:href="#bF"/><use transform="matrix(0.05555555555555555,0,0,0.05555555555555555,22.22222222222222,0)" xlink:href="#bG"/><use transform="matrix(0.05555555555555555,0,0,0.05555555555555555,33.33333333333333,0)" xlink:href="#bK"/><use transform="matrix(0.05555555555555555,0,0,0.05555555555555555,44.44444444444444,0)" xlink:href="#bP"/><use transform="matrix(0.05555555555555555,0,0,0.05555555555555555,48.83333333333333,0)" xlink:href="#bI"/><use transform="matrix(0.05555555555555555,0,0,0.05555555555555555,54.388888888888886,0)" xlink:href="#bL"/><use transform="matrix(0.05555555555555555,0,0,0.05555555555555555,58.77777777777777,0)" xlink:href="#bF"/><use transform="matrix(0.05555555555555555,0,0,0.05555555555555555,69.88888888888889,0)" xlink:href="#bN"/></g><path fill="#333" d="M9 0v-24l116-142H16v-24h144v24L44-24h123V0H9" id="bZ"/><g id="ar"><use transform="matrix(0.06172839506172839,0,0,0.06172839506172839,0,0)" xlink:href="#bz"/><use transform="matrix(0.06172839506172839,0,0,0.06172839506172839,6.172839506172839,0)" xlink:href="#bL"/><use transform="matrix(0.06172839506172839,0,0,0.06172839506172839,11.049382716049383,0)" xlink:href="#bP"/><use transform="matrix(0.06172839506172839,0,0,0.06172839506172839,15.925925925925926,0)" xlink:href="#bK"/><use transform="matrix(0.06172839506172839,0,0,0.06172839506172839,28.271604938271604,0)" xlink:href="#bG"/><use transform="matrix(0.06172839506172839,0,0,0.06172839506172839,40.617283950617285,0)" xlink:href="#bL"/><use transform="matrix(0.06172839506172839,0,0,0.06172839506172839,45.49382716049383,0)" xlink:href="#bZ"/><use transform="matrix(0.06172839506172839,0,0,0.06172839506172839,56.60493827160494,0)" xlink:href="#bF"/></g><g id="as"><use transform="matrix(0.06172839506172839,0,0,0.06172839506172839,0,0)" xlink:href="#bA"/><use transform="matrix(0.06172839506172839,0,0,0.06172839506172839,7.345679012345679,0)" xlink:href="#bF"/><use transform="matrix(0.06172839506172839,0,0,0.06172839506172839,19.691358024691358,0)" xlink:href="#bU"/><use transform="matrix(0.06172839506172839,0,0,0.06172839506172839,32.03703703703704,0)" xlink:href="#bB"/><use transform="matrix(0.06172839506172839,0,0,0.06172839506172839,44.382716049382715,0)" xlink:href="#bA"/><use transform="matrix(0.06172839506172839,0,0,0.06172839506172839,51.72839506172839,0)" xlink:href="#bI"/></g><g id="at"><use transform="matrix(0.06172839506172839,0,0,0.06172839506172839,0,0)" xlink:href="#bF"/><use transform="matrix(0.06172839506172839,0,0,0.06172839506172839,12.345679012345679,0)" xlink:href="#bW"/><use transform="matrix(0.06172839506172839,0,0,0.06172839506172839,23.45679012345679,0)" xlink:href="#bD"/><use transform="matrix(0.06172839506172839,0,0,0.06172839506172839,34.5679012345679,0)" xlink:href="#bY"/><use transform="matrix(0.06172839506172839,0,0,0.06172839506172839,46.913580246913575,0)" xlink:href="#bK"/><use transform="matrix(0.06172839506172839,0,0,0.06172839506172839,59.25925925925925,0)" xlink:href="#bG"/><use transform="matrix(0.06172839506172839,0,0,0.06172839506172839,71.60493827160494,0)" xlink:href="#bV"/><use transform="matrix(0.06172839506172839,0,0,0.06172839506172839,83.95061728395062,0)" xlink:href="#bF"/></g><g id="au"><use transform="matrix(0.06172839506172839,0,0,0.06172839506172839,0,0)" xlink:href="#bO"/><use transform="matrix(0.06172839506172839,0,0,0.06172839506172839,15.987654320987653,0)" xlink:href="#bK"/><use transform="matrix(0.06172839506172839,0,0,0.06172839506172839,28.333333333333332,0)" xlink:href="#bL"/><use transform="matrix(0.06172839506172839,0,0,0.06172839506172839,33.20987654320987,0)" xlink:href="#bI"/></g><g id="av"><use transform="matrix(0.06172839506172839,0,0,0.06172839506172839,0,0)" xlink:href="#bz"/><use transform="matrix(0.06172839506172839,0,0,0.06172839506172839,6.172839506172839,0)" xlink:href="#bB"/><use transform="matrix(0.06172839506172839,0,0,0.06172839506172839,18.51851851851852,0)" xlink:href="#bA"/></g><path fill="#333" d="M23 0v-37h61v-169l-59 37v-38l62-41h46v211h57V0H23" id="ca"/><use transform="matrix(0.07407407407407408,0,0,0.07407407407407408,0,0)" xlink:href="#ca" id="aw"/><path fill="#333" d="M182-182c0 78-84 86-111 141h115V0H12c-6-101 99-100 120-180 1-22-12-31-33-32-23 0-32 14-35 34l-49-3c5-45 32-70 84-70 51 0 83 22 83 69" id="cb"/><use transform="matrix(0.07407407407407408,0,0,0.07407407407407408,0,0)" xlink:href="#cb" id="ax"/><path fill="#333" d="M128-127c34 4 56 21 59 58 7 91-148 94-172 28-4-9-6-17-7-26l51-5c1 24 16 35 40 36 23 0 39-12 38-36-1-31-31-36-65-34v-40c32 2 59-3 59-33 0-20-13-33-34-33s-33 13-35 32l-50-3c6-44 37-68 86-68 50 0 83 20 83 66 0 35-22 52-53 58" id="cc"/><use transform="matrix(0.07407407407407408,0,0,0.07407407407407408,0,0)" xlink:href="#cc" id="ay"/><path fill="#333" d="M165-50V0h-47v-50H5v-38l105-160h55v161h33v37h-33zm-47-37l2-116L46-87h72" id="cd"/><use transform="matrix(0.07407407407407408,0,0,0.07407407407407408,0,0)" xlink:href="#cd" id="az"/><path fill="#333" d="M139-81c0-46-55-55-73-27H18l9-140h149v37H72l-4 63c44-38 133-4 122 66C201 21 21 35 11-62l49-4c5 18 15 30 39 30 26 0 40-18 40-45" id="ce"/><use transform="matrix(0.07407407407407408,0,0,0.07407407407407408,0,0)" xlink:href="#ce" id="aA"/><path fill="#333" d="M115-159c48 0 72 30 72 78 0 54-30 85-83 85-64 0-91-50-91-122 0-98 58-163 141-120 15 8 21 24 27 44l-47 6c-5-31-48-31-61-4-7 14-11 33-11 60 9-17 28-27 53-27zM102-35c24 0 36-20 36-45s-11-43-37-43c-23 0-36 14-36 38 0 27 11 50 37 50" id="cf"/><use transform="matrix(0.07407407407407408,0,0,0.07407407407407408,0,0)" xlink:href="#cf" id="aB"/><path fill="#333" d="M52 0c1-96 47-148 87-207H15v-41h169v40c-36 62-79 113-81 208H52" id="cg"/><use transform="matrix(0.07407407407407408,0,0,0.07407407407407408,0,0)" xlink:href="#cg" id="aC"/><path fill="#333" d="M138-131c27 9 52 24 51 61 0 53-36 74-89 74S11-19 11-69c0-35 22-54 51-61-78-25-46-121 38-121 51 0 83 19 83 66 0 30-18 49-45 54zm-38-16c24 0 32-13 32-36 1-23-11-34-32-34-22 0-33 12-32 34 0 22 9 36 32 36zm1 116c27 0 37-17 37-43 0-25-13-39-39-39-24 0-37 15-37 40 0 27 11 42 39 42" id="ch"/><use transform="matrix(0.07407407407407408,0,0,0.07407407407407408,0,0)" xlink:href="#ch" id="aD"/><path fill="#333" d="M99-251c69 0 84 53 88 123 5 99-61 162-144 118-15-8-21-25-26-45l46-6c4 31 50 33 63 7 7-15 12-36 12-60-9 18-29 28-54 28-48 0-72-32-72-82 0-55 31-83 87-83zm-1 128c24 0 37-16 37-39 0-27-10-51-37-51-25 0-35 19-35 45 0 25 10 45 35 45" id="ci"/><use transform="matrix(0.07407407407407408,0,0,0.07407407407407408,0,0)" xlink:href="#ci" id="aE"/><path fill="#333" d="M101-251c68 0 84 54 84 127C185-50 166 4 99 4S15-52 14-124c-1-75 17-127 87-127zm-1 216c37-5 36-46 36-89s4-89-36-89c-39 0-36 45-36 89 0 43-3 85 36 89" id="cj"/><g id="aF"><use transform="matrix(0.07407407407407408,0,0,0.07407407407407408,0,0)" xlink:href="#ca"/><use transform="matrix(0.07407407407407408,0,0,0.07407407407407408,14.814814814814817,0)" xlink:href="#cj"/></g></defs></g></svg>